{
.appVersion = "118";
DisplayStrings = (
"É"
);
copyright = "Copyright © 2010 NHN Corporation. All rights reserved. Font designed by FONTRIX.";
date = "2024-10-31 06:49:45 +0000";
designer = "Yong-rak, Park; Ji-hee, Yoon — allégé et modifié par Philicare";
designerURL = "http://www.fontrix.co.kr";
familyName = "NanumMyeongjo-v2";
featurePrefixes = (
{
automatic = 1;
code = "languagesystem DFLT dflt;\012languagesystem latn dflt;\012languagesystem latn CAT;\012";
name = Languagesystems;
}
);
features = (
{
automatic = 1;
code = "feature locl;\012feature frac;\012feature ordn;\012";
name = aalt;
},
{
automatic = 1;
code = "script latn;\012language CAT;\012sub  l' periodcentered' l by ldot;\012sub  L' periodcentered' L by Ldot;\012";
name = locl;
},
{
automatic = 1;
code = "sub one slash eight by oneeighth;\012sub one slash four by onequarter;\012sub three slash eight by threeeighths;\012sub one slash two by onehalf;\012sub five slash eight by fiveeighths;\012sub three slash four by threequarters;\012sub seven slash eight by seveneighths;\012sub one slash three by onethird;\012sub two slash three by twothirds;\012";
name = frac;
},
{
automatic = 1;
code = "sub [zero one two three four five six seven eight nine] [A a]' by ordfeminine;\012sub [zero one two three four five six seven eight nine] [O o]' by ordmasculine;\012sub N o period by numero;\012";
name = ordn;
}
);
fontMaster = (
{
ascender = 819;
capHeight = 758;
custom = Demi;
descender = -205;
id = "59D766EC-4D78-4FC8-A1A0-9290DDB4C41B";
name = DemiBold;
weight = Bold;
weightValue = 600;
widthValue = 5;
xHeight = 486;
}
);
glyphs = (
{
glyphname = A;
layers = (
{
layerId = "59D766EC-4D78-4FC8-A1A0-9290DDB4C41B";
paths = (
{
closed = 1;
nodes = (
"188 139 LINE",
"239 284 LINE",
"476 284 LINE",
"524 141 LINE SMOOTH",
"527.333 130.333 OFFCURVE",
"530.167 120.833 OFFCURVE",
"532.5 112.5 CURVE SMOOTH",
"534.833 104.167 OFFCURVE",
"536.667 96.667 OFFCURVE",
"538 90 CURVE SMOOTH",
"540.667 77.333 OFFCURVE",
"540 67.333 OFFCURVE",
"536 60 CURVE SMOOTH",
"532 52.667 OFFCURVE",
"524.333 48 OFFCURVE",
"513 46 CURVE",
"507 44.667 OFFCURVE",
"499.833 43.667 OFFCURVE",
"491.5 43 CURVE SMOOTH",
"483.167 42.333 OFFCURVE",
"473.667 42 OFFCURVE",
"463 42 CURVE",
"463 6 LINE",
"471 6 OFFCURVE",
"480 6 OFFCURVE",
"490 6 CURVE SMOOTH",
"500 6 OFFCURVE",
"510.667 6.333 OFFCURVE",
"522 7 CURVE",
"533.333 7 OFFCURVE",
"545.167 7 OFFCURVE",
"557.5 7 CURVE SMOOTH",
"569.833 7 OFFCURVE",
"582.333 7 OFFCURVE",
"595 7 CURVE SMOOTH",
"668 7 LINE",
"679.333 6.333 OFFCURVE",
"690 6 OFFCURVE",
"700 6 CURVE SMOOTH",
"710 6 OFFCURVE",
"719 6 OFFCURVE",
"727 6 CURVE",
"727 41 LINE",
"718.333 41.667 OFFCURVE",
"710.333 42.667 OFFCURVE",
"703 44 CURVE SMOOTH",
"695.667 45.333 OFFCURVE",
"689.333 46.667 OFFCURVE",
"684 48 CURVE SMOOTH",
"672.667 50.667 OFFCURVE",
"662.333 56.333 OFFCURVE",
"653 65 CURVE",
"645 71 OFFCURVE",
"637.333 81 OFFCURVE",
"630 95 CURVE SMOOTH",
"626.667 101.667 OFFCURVE",
"623.333 109 OFFCURVE",
"620 117 CURVE SMOOTH",
"616.667 125 OFFCURVE",
"613.333 134 OFFCURVE",
"610 144 CURVE SMOOTH",
"393 787 LINE",
"354 787 LINE",
"131 146 LINE SMOOTH",
"127.667 136.667 OFFCURVE",
"124.333 128 OFFCURVE",
"121 120 CURVE SMOOTH",
"117.667 112 OFFCURVE",
"114.333 104.667 OFFCURVE",
"111 98 CURVE",
"105 84.667 OFFCURVE",
"98 74 OFFCURVE",
"90 66 CURVE SMOOTH",
"82 58 OFFCURVE",
"72.333 52.333 OFFCURVE",
"61 49 CURVE SMOOTH",
"49 45.667 OFFCURVE",
"34.333 44 OFFCURVE",
"17 44 CURVE",
"17 6 LINE",
"25 6 OFFCURVE",
"33.667 6 OFFCURVE",
"43 6 CURVE SMOOTH",
"52.333 6 OFFCURVE",
"62.333 6.333 OFFCURVE",
"73 7 CURVE",
"83.667 7 OFFCURVE",
"94.333 7 OFFCURVE",
"105 7 CURVE SMOOTH",
"115.667 7 OFFCURVE",
"126.333 7 OFFCURVE",
"137 7 CURVE SMOOTH",
"202 7 LINE",
"212.667 6.333 OFFCURVE",
"222.5 6 OFFCURVE",
"231.5 6 CURVE SMOOTH",
"240.5 6 OFFCURVE",
"249 6 OFFCURVE",
"257 6 CURVE",
"257 42 LINE",
"213.667 42 OFFCURVE",
"188.333 50 OFFCURVE",
"181 66 CURVE SMOOTH",
"173.667 82 OFFCURVE",
"176 106.333 OFFCURVE",
"188 139 CURVE"
);
},
{
closed = 1;
nodes = (
"462 329 LINE",
"254 329 LINE",
"359 634 LINE",
"462 329 LINE"
);
}
);
width = 744;
}
);
note = A;
unicode = 0041;
},
{
glyphname = AE;
layers = (
{
layerId = "59D766EC-4D78-4FC8-A1A0-9290DDB4C41B";
paths = (
{
closed = 1;
nodes = (
"466 46 LINE",
"466 6 LINE",
"909 6 LINE",
"955 214 LINE",
"911 214 LINE",
"904.333 195.333 OFFCURVE",
"898.333 178.5 OFFCURVE",
"893 163.5 CURVE SMOOTH",
"887.667 148.5 OFFCURVE",
"882.667 135.667 OFFCURVE",
"878 125 CURVE SMOOTH",
"868 103 OFFCURVE",
"854.667 86.667 OFFCURVE",
"838 76 CURVE SMOOTH",
"829.333 70.667 OFFCURVE",
"819.167 66.333 OFFCURVE",
"807.5 63 CURVE SMOOTH",
"795.833 59.667 OFFCURVE",
"782.333 57.333 OFFCURVE",
"767 56 CURVE SMOOTH",
"752.333 54.667 OFFCURVE",
"734.5 53.667 OFFCURVE",
"713.5 53 CURVE SMOOTH",
"692.5 52.333 OFFCURVE",
"668.667 52 OFFCURVE",
"642 52 CURVE",
"631.333 53.333 OFFCURVE",
"625.333 57.333 OFFCURVE",
"624 64 CURVE SMOOTH",
"623.333 67.333 OFFCURVE",
"622.833 70.5 OFFCURVE",
"622.5 73.5 CURVE SMOOTH",
"622.167 76.5 OFFCURVE",
"622 79.333 OFFCURVE",
"622 82 CURVE SMOOTH",
"622 351 LINE",
"641.333 351 OFFCURVE",
"658.667 350.833 OFFCURVE",
"674 350.5 CURVE SMOOTH",
"689.333 350.167 OFFCURVE",
"702.667 349.667 OFFCURVE",
"714 349 CURVE SMOOTH",
"736.667 348.333 OFFCURVE",
"753 344.333 OFFCURVE",
"763 337 CURVE SMOOTH",
"771.667 330.333 OFFCURVE",
"777.667 320 OFFCURVE",
"781 306 CURVE",
"783 292 OFFCURVE",
"784 271.667 OFFCURVE",
"784 245 CURVE",
"829 246 LINE",
"829 504 LINE",
"785 503 LINE",
"785 490.333 OFFCURVE",
"784.5 479 OFFCURVE",
"783.5 469 CURVE SMOOTH",
"782.5 459 OFFCURVE",
"781.333 450.333 OFFCURVE",
"780 443 CURVE",
"776 429 OFFCURVE",
"768.333 419 OFFCURVE",
"757 413 CURVE",
"746.333 406.333 OFFCURVE",
"730 402.333 OFFCURVE",
"708 401 CURVE SMOOTH",
"697.333 400.333 OFFCURVE",
"684.833 399.833 OFFCURVE",
"670.5 399.5 CURVE SMOOTH",
"656.167 399.167 OFFCURVE",
"640 399 OFFCURVE",
"622 399 CURVE",
"622 682 LINE SMOOTH",
"622 684 OFFCURVE",
"622.167 686.333 OFFCURVE",
"622.5 689 CURVE SMOOTH",
"622.833 691.667 OFFCURVE",
"623.333 694.667 OFFCURVE",
"624 698 CURVE SMOOTH",
"625.333 704.667 OFFCURVE",
"627.667 708.333 OFFCURVE",
"631 709 CURVE",
"632.333 710.333 OFFCURVE",
"634.167 711.167 OFFCURVE",
"636.5 711.5 CURVE SMOOTH",
"638.833 711.833 OFFCURVE",
"641.333 712.333 OFFCURVE",
"644 713 CURVE SMOOTH",
"646.667 713.667 OFFCURVE",
"650.333 714 OFFCURVE",
"655 714 CURVE SMOOTH",
"659.667 714 OFFCURVE",
"665.333 714 OFFCURVE",
"672 714 CURVE SMOOTH",
"693.333 714 OFFCURVE",
"712.167 713.667 OFFCURVE",
"728.5 713 CURVE SMOOTH",
"744.833 712.333 OFFCURVE",
"759.333 711.333 OFFCURVE",
"772 710 CURVE SMOOTH",
"784.667 708.667 OFFCURVE",
"795.833 706 OFFCURVE",
"805.5 702 CURVE SMOOTH",
"815.167 698 OFFCURVE",
"823.667 693.333 OFFCURVE",
"831 688 CURVE SMOOTH",
"845.667 676.667 OFFCURVE",
"856.333 659.667 OFFCURVE",
"863 637 CURVE SMOOTH",
"869.667 614.333 OFFCURVE",
"876.667 582.667 OFFCURVE",
"884 542 CURVE",
"927 541 LINE",
"909 756 LINE",
"473 757 LINE",
"456 714 LINE",
"466 714 OFFCURVE",
"475 713.833 OFFCURVE",
"483 713.5 CURVE SMOOTH",
"491 713.167 OFFCURVE",
"497.667 712.667 OFFCURVE",
"503 712 CURVE",
"514.333 711.333 OFFCURVE",
"522.333 709.333 OFFCURVE",
"527 706 CURVE SMOOTH",
"531.667 702.667 OFFCURVE",
"533.333 698.333 OFFCURVE",
"532 693 CURVE",
"531.333 688.333 OFFCURVE",
"528.667 681.667 OFFCURVE",
"524 673 CURVE",
"143 119 LINE SMOOTH",
"131 101.667 OFFCURVE",
"121 89 OFFCURVE",
"113 81 CURVE",
"104.333 71 OFFCURVE",
"96 63.667 OFFCURVE",
"88 59 CURVE SMOOTH",
"83.333 56.333 OFFCURVE",
"79 54.167 OFFCURVE",
"75 52.5 CURVE SMOOTH",
"71 50.833 OFFCURVE",
"66.667 49.667 OFFCURVE",
"62 49 CURVE",
"53.333 47 OFFCURVE",
"42.667 46 OFFCURVE",
"30 46 CURVE",
"18 6 LINE",
"229 6 LINE",
"241 46 LINE",
"232.333 46 OFFCURVE",
"224.5 46 OFFCURVE",
"217.5 46 CURVE SMOOTH",
"210.5 46 OFFCURVE",
"204.333 46.333 OFFCURVE",
"199 47 CURVE SMOOTH",
"188.333 48.333 OFFCURVE",
"181.667 50.333 OFFCURVE",
"179 53 CURVE",
"175 56.333 OFFCURVE",
"174.333 61 OFFCURVE",
"177 67 CURVE",
"179 73 OFFCURVE",
"183.667 82 OFFCURVE",
"191 94 CURVE",
"297 244 LINE",
"540 244 LINE",
"539 99 LINE SMOOTH",
"539 93 OFFCURVE",
"538.833 87.667 OFFCURVE",
"538.5 83 CURVE SMOOTH",
"538.167 78.333 OFFCURVE",
"537.667 74.333 OFFCURVE",
"537 71 CURVE",
"535 63.667 OFFCURVE",
"531.333 58.333 OFFCURVE",
"526 55 CURVE",
"521.333 51.667 OFFCURVE",
"514 49.333 OFFCURVE",
"504 48 CURVE SMOOTH",
"499.333 47.333 OFFCURVE",
"493.833 46.833 OFFCURVE",
"487.5 46.5 CURVE SMOOTH",
"481.167 46.167 OFFCURVE",
"474 46 OFFCURVE",
"466 46 CURVE SMOOTH"
);
},
{
closed = 1;
nodes = (
"329 291 LINE",
"539 596 LINE",
"539 291 LINE",
"329 291 LINE"
);
}
);
width = 973;
}
);
note = AE;
unicode = 00C6;
},
{
glyphname = B;
layers = (
{
layerId = "59D766EC-4D78-4FC8-A1A0-9290DDB4C41B";
paths = (
{
closed = 1;
nodes = (
"431.333 420 OFFCURVE",
"463.667 440.667 OFFCURVE",
"489 470 CURVE SMOOTH",
"513.667 498.667 OFFCURVE",
"526 534.667 OFFCURVE",
"526 578 CURVE SMOOTH",
"526 612 OFFCURVE",
"519 640.333 OFFCURVE",
"505 663 CURVE SMOOTH",
"489.667 686.333 OFFCURVE",
"471 704.667 OFFCURVE",
"449 718 CURVE",
"425 731.333 OFFCURVE",
"399.333 741 OFFCURVE",
"372 747 CURVE SMOOTH",
"343.333 753 OFFCURVE",
"314.667 756 OFFCURVE",
"286 756 CURVE",
"278 755.333 OFFCURVE",
"269.333 755 OFFCURVE",
"260 755 CURVE SMOOTH",
"250.667 755 OFFCURVE",
"240.333 755 OFFCURVE",
"229 755 CURVE",
"217.667 754.333 OFFCURVE",
"206.167 754 OFFCURVE",
"194.5 754 CURVE SMOOTH",
"182.833 754 OFFCURVE",
"171.333 754 OFFCURVE",
"160 754 CURVE SMOOTH",
"148.667 754 OFFCURVE",
"137.333 754 OFFCURVE",
"126 754 CURVE SMOOTH",
"114.667 754 OFFCURVE",
"103.333 754.333 OFFCURVE",
"92 755 CURVE",
"81.333 755 OFFCURVE",
"71.167 755 OFFCURVE",
"61.5 755 CURVE SMOOTH",
"51.833 755 OFFCURVE",
"43.333 755.333 OFFCURVE",
"36 756 CURVE",
"36 720 LINE",
"46.667 719.333 OFFCURVE",
"56 718.833 OFFCURVE",
"64 718.5 CURVE SMOOTH",
"72 718.167 OFFCURVE",
"79.333 717.333 OFFCURVE",
"86 716 CURVE",
"98 712.667 OFFCURVE",
"107.333 708.333 OFFCURVE",
"114 703 CURVE",
"120 697.667 OFFCURVE",
"124.667 689.667 OFFCURVE",
"128 679 CURVE",
"130 668.333 OFFCURVE",
"131 654.667 OFFCURVE",
"131 638 CURVE SMOOTH",
"131 129 LINE SMOOTH",
"131 109.667 OFFCURVE",
"130 94.333 OFFCURVE",
"128 83 CURVE",
"124.667 70.333 OFFCURVE",
"120 61.333 OFFCURVE",
"114 56 CURVE",
"106.667 50 OFFCURVE",
"97.333 46 OFFCURVE",
"86 44 CURVE SMOOTH",
"73.333 42 OFFCURVE",
"56.667 41 OFFCURVE",
"36 41 CURVE",
"36 6 LINE",
"45.333 6 OFFCURVE",
"55.167 6 OFFCURVE",
"65.5 6 CURVE SMOOTH",
"75.833 6 OFFCURVE",
"87.333 6.333 OFFCURVE",
"100 7 CURVE",
"112.667 7 OFFCURVE",
"125.167 7 OFFCURVE",
"137.5 7 CURVE SMOOTH",
"149.833 7 OFFCURVE",
"162.333 7 OFFCURVE",
"175 7 CURVE SMOOTH",
"251 7 LINE",
"263 6.333 OFFCURVE",
"274.333 6 OFFCURVE",
"285 6 CURVE SMOOTH",
"295.667 6 OFFCURVE",
"305.667 6 OFFCURVE",
"315 6 CURVE SMOOTH",
"405.667 6 OFFCURVE",
"474.667 25.333 OFFCURVE",
"522 64 CURVE SMOOTH",
"569.333 102 OFFCURVE",
"593 150.667 OFFCURVE",
"593 210 CURVE SMOOTH",
"593 264 OFFCURVE",
"574 308.333 OFFCURVE",
"536 343 CURVE SMOOTH",
"498.667 377 OFFCURVE",
"450.667 398.667 OFFCURVE",
"392 408 CURVE",
"392 408 LINE"
);
},
{
closed = 1;
nodes = (
"222 421 LINE",
"222 713 LINE",
"226 713 OFFCURVE",
"230.167 713 OFFCURVE",
"234.5 713 CURVE SMOOTH",
"238.833 713 OFFCURVE",
"243.333 713.333 OFFCURVE",
"248 714 CURVE",
"271 714 LINE SMOOTH",
"321 714 OFFCURVE",
"360.667 704.667 OFFCURVE",
"390 686 CURVE SMOOTH",
"420 667.333 OFFCURVE",
"435 631.333 OFFCURVE",
"435 578 CURVE SMOOTH",
"435 519.333 OFFCURVE",
"419 478.333 OFFCURVE",
"387 455 CURVE SMOOTH",
"355.667 432.333 OFFCURVE",
"315.667 421 OFFCURVE",
"267 421 CURVE SMOOTH",
"222 421 LINE"
);
},
{
closed = 1;
nodes = (
"222 128 LINE",
"222 377 LINE",
"291 377 LINE SMOOTH",
"352.333 377 OFFCURVE",
"402 363 OFFCURVE",
"440 335 CURVE SMOOTH",
"478 306.333 OFFCURVE",
"497 261 OFFCURVE",
"497 199 CURVE SMOOTH",
"497 147.667 OFFCURVE",
"481.333 110 OFFCURVE",
"450 86 CURVE SMOOTH",
"419.333 61.333 OFFCURVE",
"377.333 49 OFFCURVE",
"324 49 CURVE SMOOTH",
"312.667 49 OFFCURVE",
"302.333 49.167 OFFCURVE",
"293 49.5 CURVE SMOOTH",
"283.667 49.833 OFFCURVE",
"275.667 50.333 OFFCURVE",
"269 51 CURVE SMOOTH",
"255 52.333 OFFCURVE",
"244.667 55.333 OFFCURVE",
"238 60 CURVE SMOOTH",
"231.333 64.667 OFFCURVE",
"227 72.667 OFFCURVE",
"225 84 CURVE SMOOTH",
"223 94 OFFCURVE",
"222 108.667 OFFCURVE",
"222 128 CURVE"
);
}
);
width = 627;
}
);
note = B;
unicode = 0042;
},
{
glyphname = C;
layers = (
{
layerId = "59D766EC-4D78-4FC8-A1A0-9290DDB4C41B";
paths = (
{
closed = 1;
nodes = (
"707 554 LINE",
"696 718 LINE",
"678.667 725.333 OFFCURVE",
"660.333 732.167 OFFCURVE",
"641 738.5 CURVE SMOOTH",
"621.667 744.833 OFFCURVE",
"601.667 751 OFFCURVE",
"581 757 CURVE SMOOTH",
"537.667 768.333 OFFCURVE",
"495.667 774 OFFCURVE",
"455 774 CURVE SMOOTH",
"403 774 OFFCURVE",
"354 764.667 OFFCURVE",
"308 746 CURVE SMOOTH",
"260.667 726.667 OFFCURVE",
"218.333 700 OFFCURVE",
"181 666 CURVE SMOOTH",
"144.333 632 OFFCURVE",
"115 591.667 OFFCURVE",
"93 545 CURVE SMOOTH",
"70.333 499 OFFCURVE",
"59 448 OFFCURVE",
"59 392 CURVE SMOOTH",
"59 331.333 OFFCURVE",
"68.667 276 OFFCURVE",
"88 226 CURVE SMOOTH",
"107.333 177.333 OFFCURVE",
"134.667 135 OFFCURVE",
"170 99 CURVE SMOOTH",
"205.333 64.333 OFFCURVE",
"247.333 37.333 OFFCURVE",
"296 18 CURVE SMOOTH",
"320.667 8 OFFCURVE",
"346.5 0.667 OFFCURVE",
"373.5 -4 CURVE SMOOTH",
"400.5 -8.667 OFFCURVE",
"428.667 -11 OFFCURVE",
"458 -11 CURVE SMOOTH",
"466.667 -11 OFFCURVE",
"475.833 -10.667 OFFCURVE",
"485.5 -10 CURVE SMOOTH",
"495.167 -9.333 OFFCURVE",
"505.333 -8.333 OFFCURVE",
"516 -7 CURVE SMOOTH",
"526.667 -5.667 OFFCURVE",
"537.333 -4 OFFCURVE",
"548 -2 CURVE SMOOTH",
"558.667 0 OFFCURVE",
"569.333 2.333 OFFCURVE",
"580 5 CURVE SMOOTH",
"590.667 7.667 OFFCURVE",
"600.833 10.333 OFFCURVE",
"610.5 13 CURVE SMOOTH",
"620.167 15.667 OFFCURVE",
"629.333 18.667 OFFCURVE",
"638 22 CURVE SMOOTH",
"656.667 29.333 OFFCURVE",
"671.333 36.333 OFFCURVE",
"682 43 CURVE",
"710 214 LINE",
"669 214 LINE",
"659 161.333 OFFCURVE",
"638 118 OFFCURVE",
"606 84 CURVE SMOOTH",
"574 49.333 OFFCURVE",
"531 32 OFFCURVE",
"477 32 CURVE SMOOTH",
"434.333 32 OFFCURVE",
"393 40.667 OFFCURVE",
"353 58 CURVE SMOOTH",
"315 74.667 OFFCURVE",
"281 99 OFFCURVE",
"251 131 CURVE SMOOTH",
"223 161.667 OFFCURVE",
"200.333 200 OFFCURVE",
"183 246 CURVE SMOOTH",
"166.333 290 OFFCURVE",
"158 339.667 OFFCURVE",
"158 395 CURVE SMOOTH",
"158 443.667 OFFCURVE",
"165.667 489 OFFCURVE",
"181 531 CURVE SMOOTH",
"196.333 572.333 OFFCURVE",
"217.333 607.333 OFFCURVE",
"244 636 CURVE SMOOTH",
"271.333 665.333 OFFCURVE",
"303.333 688.333 OFFCURVE",
"340 705 CURVE SMOOTH",
"377.333 721 OFFCURVE",
"417.333 729 OFFCURVE",
"460 729 CURVE SMOOTH",
"520 729 OFFCURVE",
"567.667 715.333 OFFCURVE",
"603 688 CURVE SMOOTH",
"637.667 660.667 OFFCURVE",
"660 616 OFFCURVE",
"670 554 CURVE",
"707 554 LINE"
);
}
);
width = 745;
}
);
note = C;
unicode = 0043;
},
{
glyphname = D;
layers = (
{
layerId = "59D766EC-4D78-4FC8-A1A0-9290DDB4C41B";
paths = (
{
closed = 1;
nodes = (
"128 633 LINE",
"128 136 LINE SMOOTH",
"128 116 OFFCURVE",
"127 100 OFFCURVE",
"125 88 CURVE SMOOTH",
"123 76 OFFCURVE",
"118.667 66.667 OFFCURVE",
"112 60 CURVE SMOOTH",
"105.333 53.333 OFFCURVE",
"95.667 49 OFFCURVE",
"83 47 CURVE SMOOTH",
"70.333 45 OFFCURVE",
"53 44 OFFCURVE",
"31 44 CURVE",
"31 6 LINE",
"40.333 6 OFFCURVE",
"50.5 6 OFFCURVE",
"61.5 6 CURVE SMOOTH",
"72.5 6 OFFCURVE",
"84.333 6.333 OFFCURVE",
"97 7 CURVE",
"109.667 7 OFFCURVE",
"122.5 7 OFFCURVE",
"135.5 7 CURVE SMOOTH",
"148.5 7 OFFCURVE",
"161.333 7 OFFCURVE",
"174 7 CURVE SMOOTH",
"252 7 LINE",
"264.667 6.333 OFFCURVE",
"276.5 6 OFFCURVE",
"287.5 6 CURVE SMOOTH",
"298.5 6 OFFCURVE",
"308.667 6 OFFCURVE",
"318 6 CURVE SMOOTH",
"389.333 6 OFFCURVE",
"452.333 16.667 OFFCURVE",
"507 38 CURVE SMOOTH",
"560.333 59.333 OFFCURVE",
"604.667 87.667 OFFCURVE",
"640 123 CURVE SMOOTH",
"676 159 OFFCURVE",
"702.333 199 OFFCURVE",
"719 243 CURVE SMOOTH",
"736.333 289 OFFCURVE",
"745 335.333 OFFCURVE",
"745 382 CURVE SMOOTH",
"745 431.333 OFFCURVE",
"735.667 478 OFFCURVE",
"717 522 CURVE SMOOTH",
"698.333 566 OFFCURVE",
"671.333 605.667 OFFCURVE",
"636 641 CURVE SMOOTH",
"601.333 675.667 OFFCURVE",
"558 703.667 OFFCURVE",
"506 725 CURVE SMOOTH",
"456 745.667 OFFCURVE",
"397.333 756 OFFCURVE",
"330 756 CURVE",
"318.667 755.333 OFFCURVE",
"306.833 755 OFFCURVE",
"294.5 755 CURVE SMOOTH",
"282.167 755 OFFCURVE",
"269.333 755 OFFCURVE",
"256 755 CURVE SMOOTH",
"242.667 755 OFFCURVE",
"229.333 755 OFFCURVE",
"216 755 CURVE SMOOTH",
"202.667 755 OFFCURVE",
"189.333 755 OFFCURVE",
"176 755 CURVE SMOOTH",
"99 755 LINE SMOOTH",
"86.333 755 OFFCURVE",
"74.333 755 OFFCURVE",
"63 755 CURVE SMOOTH",
"51.667 755 OFFCURVE",
"41 755.333 OFFCURVE",
"31 756 CURVE",
"31 720 LINE",
"52.333 720 OFFCURVE",
"69.333 719 OFFCURVE",
"82 717 CURVE",
"95.333 714.333 OFFCURVE",
"105 709.667 OFFCURVE",
"111 703 CURVE",
"117 697.667 OFFCURVE",
"121.667 689 OFFCURVE",
"125 677 CURVE",
"127 666.333 OFFCURVE",
"128 651.667 OFFCURVE",
"128 633 CURVE"
);
},
{
closed = 1;
nodes = (
"219 135 LINE",
"219 710 LINE",
"221.667 710 OFFCURVE",
"224.167 710 OFFCURVE",
"226.5 710 CURVE SMOOTH",
"228.833 710 OFFCURVE",
"231.333 710.333 OFFCURVE",
"234 711 CURVE",
"252 711 LINE",
"255.333 711.667 OFFCURVE",
"259 712 OFFCURVE",
"263 712 CURVE SMOOTH",
"267 712 OFFCURVE",
"271.333 712.333 OFFCURVE",
"276 713 CURVE",
"307 713 LINE SMOOTH",
"412.333 713 OFFCURVE",
"495.333 684 OFFCURVE",
"556 626 CURVE SMOOTH",
"616.667 568 OFFCURVE",
"647 487.333 OFFCURVE",
"647 384 CURVE SMOOTH",
"647 338.667 OFFCURVE",
"641 296 OFFCURVE",
"629 256 CURVE SMOOTH",
"623 235.333 OFFCURVE",
"615.333 216.167 OFFCURVE",
"606 198.5 CURVE SMOOTH",
"596.667 180.833 OFFCURVE",
"585.667 164.333 OFFCURVE",
"573 149 CURVE SMOOTH",
"560.333 133.667 OFFCURVE",
"545.833 120 OFFCURVE",
"529.5 108 CURVE SMOOTH",
"513.167 96 OFFCURVE",
"495.333 85.333 OFFCURVE",
"476 76 CURVE SMOOTH",
"437.333 58 OFFCURVE",
"390.333 49 OFFCURVE",
"335 49 CURVE SMOOTH",
"322.333 49 OFFCURVE",
"310.833 49.167 OFFCURVE",
"300.5 49.5 CURVE SMOOTH",
"290.167 49.833 OFFCURVE",
"281.333 50.333 OFFCURVE",
"274 51 CURVE",
"259.333 51.667 OFFCURVE",
"247.667 55.333 OFFCURVE",
"239 62 CURVE",
"230.333 68 OFFCURVE",
"225 76.667 OFFCURVE",
"223 88 CURVE",
"221.667 93.333 OFFCURVE",
"220.667 100 OFFCURVE",
"220 108 CURVE SMOOTH",
"219.333 116 OFFCURVE",
"219 125 OFFCURVE",
"219 135 CURVE"
);
}
);
width = 806;
}
);
note = D;
unicode = 0044;
},
{
glyphname = Eth;
layers = (
{
layerId = "59D766EC-4D78-4FC8-A1A0-9290DDB4C41B";
paths = (
{
closed = 1;
nodes = (
"236 624 LINE",
"236 381 LINE",
"112 381 LINE",
"112 334 LINE",
"236 334 LINE",
"236 138 LINE SMOOTH",
"236 127.333 OFFCURVE",
"235.667 117.833 OFFCURVE",
"235 109.5 CURVE SMOOTH",
"234.333 101.167 OFFCURVE",
"233.333 94 OFFCURVE",
"232 88 CURVE SMOOTH",
"229.333 76.667 OFFCURVE",
"223.667 67.333 OFFCURVE",
"215 60 CURVE",
"206.333 53.333 OFFCURVE",
"194.667 49 OFFCURVE",
"180 47 CURVE",
"164.667 43.667 OFFCURVE",
"145.333 41.667 OFFCURVE",
"122 41 CURVE",
"122 7 LINE",
"418 7 LINE SMOOTH",
"440 7 OFFCURVE",
"460.833 8 OFFCURVE",
"480.5 10 CURVE SMOOTH",
"500.167 12 OFFCURVE",
"518.667 14.667 OFFCURVE",
"536 18 CURVE SMOOTH",
"553.333 21.333 OFFCURVE",
"570.167 25 OFFCURVE",
"586.5 29 CURVE SMOOTH",
"602.833 33 OFFCURVE",
"618.667 37.333 OFFCURVE",
"634 42 CURVE SMOOTH",
"671.333 54.667 OFFCURVE",
"704.333 73.333 OFFCURVE",
"733 98 CURVE SMOOTH",
"761.667 122.667 OFFCURVE",
"785.333 149.667 OFFCURVE",
"804 179 CURVE SMOOTH",
"822.667 209 OFFCURVE",
"836.667 241.667 OFFCURVE",
"846 277 CURVE SMOOTH",
"855.333 313 OFFCURVE",
"860 348 OFFCURVE",
"860 382 CURVE SMOOTH",
"860 454.667 OFFCURVE",
"845.667 518.333 OFFCURVE",
"817 573 CURVE SMOOTH",
"788.333 627 OFFCURVE",
"740.667 671.667 OFFCURVE",
"674 707 CURVE SMOOTH",
"657.333 715.667 OFFCURVE",
"639 723 OFFCURVE",
"619 729 CURVE SMOOTH",
"599 735 OFFCURVE",
"577.333 740.333 OFFCURVE",
"554 745 CURVE SMOOTH",
"508 753 OFFCURVE",
"459.333 757 OFFCURVE",
"408 757 CURVE SMOOTH",
"122 757 LINE",
"122 723 LINE",
"145.333 722.333 OFFCURVE",
"164.333 720.333 OFFCURVE",
"179 717 CURVE",
"186.333 715.667 OFFCURVE",
"192.833 713.5 OFFCURVE",
"198.5 710.5 CURVE SMOOTH",
"204.167 707.5 OFFCURVE",
"209.333 704.333 OFFCURVE",
"214 701 CURVE",
"222.667 692.333 OFFCURVE",
"228.333 682.333 OFFCURVE",
"231 671 CURVE SMOOTH",
"232.333 664.333 OFFCURVE",
"233.5 657.167 OFFCURVE",
"234.5 649.5 CURVE SMOOTH",
"235.5 641.833 OFFCURVE",
"236 633.333 OFFCURVE",
"236 624 CURVE"
);
},
{
closed = 1;
nodes = (
"577 381 LINE",
"326 381 LINE",
"326 679 LINE SMOOTH",
"326 690.333 OFFCURVE",
"327.333 698.667 OFFCURVE",
"330 704 CURVE",
"332 710 OFFCURVE",
"335.333 714.333 OFFCURVE",
"340 717 CURVE",
"342.667 718.333 OFFCURVE",
"345.5 719.333 OFFCURVE",
"348.5 720 CURVE SMOOTH",
"351.5 720.667 OFFCURVE",
"354.667 721.333 OFFCURVE",
"358 722 CURVE",
"382 722 LINE SMOOTH",
"408 722 OFFCURVE",
"433.333 721 OFFCURVE",
"458 719 CURVE SMOOTH",
"482.667 717 OFFCURVE",
"506.333 713.667 OFFCURVE",
"529 709 CURVE SMOOTH",
"574.333 699.667 OFFCURVE",
"614.333 682.333 OFFCURVE",
"649 657 CURVE",
"665 644.333 OFFCURVE",
"680.333 628.333 OFFCURVE",
"695 609 CURVE",
"709 589 OFFCURVE",
"721 567 OFFCURVE",
"731 543 CURVE SMOOTH",
"741 518.333 OFFCURVE",
"749 492.333 OFFCURVE",
"755 465 CURVE SMOOTH",
"757.667 451 OFFCURVE",
"759.667 437 OFFCURVE",
"761 423 CURVE SMOOTH",
"762.333 409 OFFCURVE",
"763 394.667 OFFCURVE",
"763 380 CURVE SMOOTH",
"763 364 OFFCURVE",
"762.167 348.333 OFFCURVE",
"760.5 333 CURVE SMOOTH",
"758.833 317.667 OFFCURVE",
"756.333 302.333 OFFCURVE",
"753 287 CURVE SMOOTH",
"749.667 272.333 OFFCURVE",
"745.667 258 OFFCURVE",
"741 244 CURVE SMOOTH",
"736.333 230 OFFCURVE",
"731 216.667 OFFCURVE",
"725 204 CURVE SMOOTH",
"712.333 178 OFFCURVE",
"697.333 155 OFFCURVE",
"680 135 CURVE SMOOTH",
"663.333 115.667 OFFCURVE",
"644 99.667 OFFCURVE",
"622 87 CURVE SMOOTH",
"594.667 70.333 OFFCURVE",
"559.667 59 OFFCURVE",
"517 53 CURVE SMOOTH",
"474.333 47 OFFCURVE",
"430.667 44 OFFCURVE",
"386 44 CURVE SMOOTH",
"381.333 44 OFFCURVE",
"376.833 44 OFFCURVE",
"372.5 44 CURVE SMOOTH",
"368.167 44 OFFCURVE",
"364.333 44.333 OFFCURVE",
"361 45 CURVE",
"353 45 OFFCURVE",
"346.667 46.333 OFFCURVE",
"342 49 CURVE",
"336.667 52.333 OFFCURVE",
"332.667 56.667 OFFCURVE",
"330 62 CURVE",
"327.333 66.667 OFFCURVE",
"326 75 OFFCURVE",
"326 87 CURVE SMOOTH",
"326 334 LINE",
"577 334 LINE",
"577 381 LINE"
);
}
);
width = 973;
}
);
note = Eth;
unicode = 00D0;
},
{
glyphname = E;
layers = (
{
layerId = "59D766EC-4D78-4FC8-A1A0-9290DDB4C41B";
paths = (
{
closed = 1;
nodes = (
"223 421 LINE",
"223 714 LINE",
"360 714 LINE SMOOTH",
"373.333 714 OFFCURVE",
"385.333 713.667 OFFCURVE",
"396 713 CURVE SMOOTH",
"406.667 712.333 OFFCURVE",
"416.333 711.333 OFFCURVE",
"425 710 CURVE SMOOTH",
"442.333 707.333 OFFCURVE",
"455.333 701.333 OFFCURVE",
"464 692 CURVE",
"473.333 683.333 OFFCURVE",
"480.667 670.333 OFFCURVE",
"486 653 CURVE",
"488 644.333 OFFCURVE",
"490 634.5 OFFCURVE",
"492 623.5 CURVE SMOOTH",
"494 612.5 OFFCURVE",
"495.667 600 OFFCURVE",
"497 586 CURVE",
"537 586 LINE",
"537 756 LINE",
"518.333 755.333 OFFCURVE",
"499 754.833 OFFCURVE",
"479 754.5 CURVE SMOOTH",
"459 754.167 OFFCURVE",
"438.333 754 OFFCURVE",
"417 754 CURVE SMOOTH",
"395.667 753.333 OFFCURVE",
"374.167 753 OFFCURVE",
"352.5 753 CURVE SMOOTH",
"330.833 753 OFFCURVE",
"309 753 OFFCURVE",
"287 753 CURVE SMOOTH",
"265 753 OFFCURVE",
"243 753 OFFCURVE",
"221 753 CURVE SMOOTH",
"199 753 OFFCURVE",
"177.333 753.333 OFFCURVE",
"156 754 CURVE SMOOTH",
"134.667 754 OFFCURVE",
"113.667 754.167 OFFCURVE",
"93 754.5 CURVE SMOOTH",
"72.333 754.833 OFFCURVE",
"52.333 755.333 OFFCURVE",
"33 756 CURVE",
"33 719 LINE",
"54.333 719 OFFCURVE",
"71.333 718 OFFCURVE",
"84 716 CURVE SMOOTH",
"97.333 714 OFFCURVE",
"107.333 710 OFFCURVE",
"114 704 CURVE SMOOTH",
"120 698.667 OFFCURVE",
"124.667 690 OFFCURVE",
"128 678 CURVE",
"129.333 672 OFFCURVE",
"130.333 665 OFFCURVE",
"131 657 CURVE SMOOTH",
"131.667 649 OFFCURVE",
"132 640 OFFCURVE",
"132 630 CURVE SMOOTH",
"132 140 LINE SMOOTH",
"132 118.667 OFFCURVE",
"130.667 102.333 OFFCURVE",
"128 91 CURVE SMOOTH",
"124.667 77 OFFCURVE",
"120 67 OFFCURVE",
"114 61 CURVE SMOOTH",
"107.333 54.333 OFFCURVE",
"97.333 49.333 OFFCURVE",
"84 46 CURVE",
"77.333 44.667 OFFCURVE",
"69.833 43.667 OFFCURVE",
"61.5 43 CURVE SMOOTH",
"53.167 42.333 OFFCURVE",
"43.667 42 OFFCURVE",
"33 42 CURVE",
"33 6 LINE",
"53 6.667 OFFCURVE",
"73.5 7 OFFCURVE",
"94.5 7 CURVE SMOOTH",
"115.5 7 OFFCURVE",
"137.333 7.333 OFFCURVE",
"160 8 CURVE SMOOTH",
"182.667 8 OFFCURVE",
"205.333 8 OFFCURVE",
"228 8 CURVE SMOOTH",
"250.667 8 OFFCURVE",
"273.333 8 OFFCURVE",
"296 8 CURVE SMOOTH",
"435 8 LINE SMOOTH",
"458.333 7.333 OFFCURVE",
"481 7 OFFCURVE",
"503 7 CURVE SMOOTH",
"525 7 OFFCURVE",
"546.667 6.667 OFFCURVE",
"568 6 CURVE",
"571.333 19.333 OFFCURVE",
"574.833 33.333 OFFCURVE",
"578.5 48 CURVE SMOOTH",
"582.167 62.667 OFFCURVE",
"586.333 77.667 OFFCURVE",
"591 93 CURVE SMOOTH",
"595.667 108.333 OFFCURVE",
"600 123.333 OFFCURVE",
"604 138 CURVE SMOOTH",
"608 152.667 OFFCURVE",
"612.333 166.667 OFFCURVE",
"617 180 CURVE",
"573 180 LINE",
"569 166.667 OFFCURVE",
"565 154.667 OFFCURVE",
"561 144 CURVE SMOOTH",
"557 133.333 OFFCURVE",
"553 123.667 OFFCURVE",
"549 115 CURVE",
"544.333 106.333 OFFCURVE",
"539.5 98.667 OFFCURVE",
"534.5 92 CURVE SMOOTH",
"529.5 85.333 OFFCURVE",
"524 79.667 OFFCURVE",
"518 75 CURVE",
"506.667 64.333 OFFCURVE",
"492.667 57.667 OFFCURVE",
"476 55 CURVE",
"459.333 51 OFFCURVE",
"438 49 OFFCURVE",
"412 49 CURVE SMOOTH",
"338 49 LINE SMOOTH",
"314 49 OFFCURVE",
"294.333 50 OFFCURVE",
"279 52 CURVE",
"264.333 53.333 OFFCURVE",
"252.333 57.333 OFFCURVE",
"243 64 CURVE",
"235 70.667 OFFCURVE",
"229.667 80 OFFCURVE",
"227 92 CURVE SMOOTH",
"225.667 98 OFFCURVE",
"224.667 105 OFFCURVE",
"224 113 CURVE SMOOTH",
"223.333 121 OFFCURVE",
"223 130 OFFCURVE",
"223 140 CURVE SMOOTH",
"223 368 LINE",
"365 368 LINE SMOOTH",
"378.333 368 OFFCURVE",
"389.333 367 OFFCURVE",
"398 365 CURVE",
"406 362.333 OFFCURVE",
"412.667 357.333 OFFCURVE",
"418 350 CURVE SMOOTH",
"422.667 344 OFFCURVE",
"426 333.667 OFFCURVE",
"428 319 CURVE",
"428.667 312.333 OFFCURVE",
"429.167 304.667 OFFCURVE",
"429.5 296 CURVE SMOOTH",
"429.833 287.333 OFFCURVE",
"430 277.333 OFFCURVE",
"430 266 CURVE",
"471 266 LINE",
"471 513 LINE",
"430 513 LINE",
"430 475 OFFCURVE",
"425.333 450.333 OFFCURVE",
"416 439 CURVE",
"407.333 427 OFFCURVE",
"390.667 421 OFFCURVE",
"366 421 CURVE SMOOTH",
"223 421 LINE"
);
}
);
width = 627;
}
);
note = E;
unicode = 0045;
},
{
glyphname = Eacute;
lastChange = "2025-11-26 14:15:37 +0000";
layers = (
{
layerId = "59D766EC-4D78-4FC8-A1A0-9290DDB4C41B";
paths = (
{
closed = 1;
nodes = (
"223 421 LINE",
"223 714 LINE",
"360 714 LINE SMOOTH",
"373.333 714 OFFCURVE",
"385.333 713.667 OFFCURVE",
"396 713 CURVE SMOOTH",
"406.667 712.333 OFFCURVE",
"416.333 711.333 OFFCURVE",
"425 710 CURVE SMOOTH",
"442.333 707.333 OFFCURVE",
"455.333 701.333 OFFCURVE",
"464 692 CURVE",
"473.333 683.333 OFFCURVE",
"480.667 670.333 OFFCURVE",
"486 653 CURVE",
"488 644.333 OFFCURVE",
"490 634.5 OFFCURVE",
"492 623.5 CURVE SMOOTH",
"494 612.5 OFFCURVE",
"495.667 600 OFFCURVE",
"497 586 CURVE",
"537 586 LINE",
"537 756 LINE",
"518.333 755.333 OFFCURVE",
"499 754.833 OFFCURVE",
"479 754.5 CURVE SMOOTH",
"459 754.167 OFFCURVE",
"438.333 754 OFFCURVE",
"417 754 CURVE SMOOTH",
"395.667 753.333 OFFCURVE",
"374.167 753 OFFCURVE",
"352.5 753 CURVE SMOOTH",
"330.833 753 OFFCURVE",
"309 753 OFFCURVE",
"287 753 CURVE SMOOTH",
"265 753 OFFCURVE",
"243 753 OFFCURVE",
"221 753 CURVE SMOOTH",
"199 753 OFFCURVE",
"177.333 753.333 OFFCURVE",
"156 754 CURVE SMOOTH",
"134.667 754 OFFCURVE",
"113.667 754.167 OFFCURVE",
"93 754.5 CURVE SMOOTH",
"72.333 754.833 OFFCURVE",
"52.333 755.333 OFFCURVE",
"33 756 CURVE",
"33 719 LINE",
"54.333 719 OFFCURVE",
"71.333 718 OFFCURVE",
"84 716 CURVE SMOOTH",
"97.333 714 OFFCURVE",
"107.333 710 OFFCURVE",
"114 704 CURVE SMOOTH",
"120 698.667 OFFCURVE",
"124.667 690 OFFCURVE",
"128 678 CURVE",
"129.333 672 OFFCURVE",
"130.333 665 OFFCURVE",
"131 657 CURVE SMOOTH",
"131.667 649 OFFCURVE",
"132 640 OFFCURVE",
"132 630 CURVE SMOOTH",
"132 140 LINE SMOOTH",
"132 118.667 OFFCURVE",
"130.667 102.333 OFFCURVE",
"128 91 CURVE SMOOTH",
"124.667 77 OFFCURVE",
"120 67 OFFCURVE",
"114 61 CURVE SMOOTH",
"107.333 54.333 OFFCURVE",
"97.333 49.333 OFFCURVE",
"84 46 CURVE",
"77.333 44.667 OFFCURVE",
"69.833 43.667 OFFCURVE",
"61.5 43 CURVE SMOOTH",
"53.167 42.333 OFFCURVE",
"43.667 42 OFFCURVE",
"33 42 CURVE",
"33 6 LINE",
"53 6.667 OFFCURVE",
"73.5 7 OFFCURVE",
"94.5 7 CURVE SMOOTH",
"115.5 7 OFFCURVE",
"137.333 7.333 OFFCURVE",
"160 8 CURVE SMOOTH",
"182.667 8 OFFCURVE",
"205.333 8 OFFCURVE",
"228 8 CURVE SMOOTH",
"250.667 8 OFFCURVE",
"273.333 8 OFFCURVE",
"296 8 CURVE SMOOTH",
"435 8 LINE SMOOTH",
"458 8 OFFCURVE",
"481 7 OFFCURVE",
"503 7 CURVE SMOOTH",
"525 7 OFFCURVE",
"546.667 6.667 OFFCURVE",
"568 6 CURVE",
"571.333 19.333 OFFCURVE",
"574.833 33.333 OFFCURVE",
"578.5 48 CURVE SMOOTH",
"582.167 62.667 OFFCURVE",
"586.333 77.667 OFFCURVE",
"591 93 CURVE SMOOTH",
"595.667 108.333 OFFCURVE",
"600 123.333 OFFCURVE",
"604 138 CURVE SMOOTH",
"608 152.667 OFFCURVE",
"612.333 166.667 OFFCURVE",
"617 180 CURVE",
"573 180 LINE",
"569 166.667 OFFCURVE",
"565 154.667 OFFCURVE",
"561 144 CURVE SMOOTH",
"557 133.333 OFFCURVE",
"553 123.667 OFFCURVE",
"549 115 CURVE",
"544.333 106.333 OFFCURVE",
"539.5 98.667 OFFCURVE",
"534.5 92 CURVE SMOOTH",
"529.5 85.333 OFFCURVE",
"524 79.667 OFFCURVE",
"518 75 CURVE",
"506.667 64.333 OFFCURVE",
"492.667 57.667 OFFCURVE",
"476 55 CURVE",
"459.333 51 OFFCURVE",
"438 49 OFFCURVE",
"412 49 CURVE SMOOTH",
"338 49 LINE SMOOTH",
"314 49 OFFCURVE",
"294.333 50 OFFCURVE",
"279 52 CURVE",
"264.333 53.333 OFFCURVE",
"252.333 57.333 OFFCURVE",
"243 64 CURVE",
"235 70.667 OFFCURVE",
"229.667 80 OFFCURVE",
"227 92 CURVE SMOOTH",
"225.667 98 OFFCURVE",
"224.667 105 OFFCURVE",
"224 113 CURVE SMOOTH",
"223.333 121 OFFCURVE",
"223 130 OFFCURVE",
"223 140 CURVE SMOOTH",
"223 368 LINE",
"365 368 LINE SMOOTH",
"378.333 368 OFFCURVE",
"389.333 367 OFFCURVE",
"398 365 CURVE",
"406 362.333 OFFCURVE",
"412.667 357.333 OFFCURVE",
"418 350 CURVE SMOOTH",
"422.667 344 OFFCURVE",
"426 333.667 OFFCURVE",
"428 319 CURVE",
"428.667 312.333 OFFCURVE",
"429.167 304.667 OFFCURVE",
"429.5 296 CURVE SMOOTH",
"429.833 287.333 OFFCURVE",
"430 277.333 OFFCURVE",
"430 266 CURVE",
"471 266 LINE",
"471 513 LINE",
"430 513 LINE",
"430 475 OFFCURVE",
"425.333 450.333 OFFCURVE",
"416 439 CURVE",
"407.333 427 OFFCURVE",
"390.667 421 OFFCURVE",
"366 421 CURVE SMOOTH",
"223 421 LINE"
);
},
{
closed = 1;
nodes = (
"392 937 OFFCURVE",
"380 942 OFFCURVE",
"368 941 CURVE",
"355 940 OFFCURVE",
"343 935 OFFCURVE",
"332 926 CURVE SMOOTH",
"329 923 OFFCURVE",
"325 920 OFFCURVE",
"320 917 CURVE SMOOTH",
"315 913 OFFCURVE",
"310 908 OFFCURVE",
"303 903 CURVE SMOOTH",
"296 898 OFFCURVE",
"290 892 OFFCURVE",
"283 886 CURVE SMOOTH",
"276 880 OFFCURVE",
"268 873 OFFCURVE",
"261 866 CURVE",
"214 823 LINE",
"205 816 OFFCURVE",
"198 808 OFFCURVE",
"191 801 CURVE SMOOTH",
"184 794 OFFCURVE",
"177 786 OFFCURVE",
"170 779 CURVE",
"163 774 OFFCURVE",
"162 770 OFFCURVE",
"165 769 CURVE",
"168 768 OFFCURVE",
"173 768 OFFCURVE",
"180 770 CURVE SMOOTH",
"191 773 OFFCURVE",
"203 777 OFFCURVE",
"214 780 CURVE SMOOTH",
"225 783 OFFCURVE",
"237 787 OFFCURVE",
"248 792 CURVE",
"259 796 OFFCURVE",
"270 800 OFFCURVE",
"281 805 CURVE SMOOTH",
"292 809 OFFCURVE",
"302 813 OFFCURVE",
"313 818 CURVE SMOOTH",
"324 823 OFFCURVE",
"334 827 OFFCURVE",
"343 831 CURVE SMOOTH",
"352 835 OFFCURVE",
"360 839 OFFCURVE",
"368 844 CURVE",
"385 853 OFFCURVE",
"397 860 OFFCURVE",
"404 866 CURVE SMOOTH",
"413 873 OFFCURVE",
"418 882 OFFCURVE",
"419 893 CURVE SMOOTH",
"420 904 OFFCURVE",
"415 914 OFFCURVE",
"405 924 CURVE",
"405 924 LINE"
);
}
);
width = 627;
}
);
note = E;
unicode = "00C9,00E9";
},
{
glyphname = F;
layers = (
{
layerId = "59D766EC-4D78-4FC8-A1A0-9290DDB4C41B";
paths = (
{
closed = 1;
nodes = (
"223 142 LINE",
"223 368 LINE",
"365 368 LINE SMOOTH",
"392.333 368 OFFCURVE",
"411 361.333 OFFCURVE",
"421 348 CURVE SMOOTH",
"430.333 334.667 OFFCURVE",
"436 309 OFFCURVE",
"438 271 CURVE",
"480 271 LINE",
"479.333 278.333 OFFCURVE",
"478.833 286.5 OFFCURVE",
"478.5 295.5 CURVE SMOOTH",
"478.167 304.5 OFFCURVE",
"478 314.333 OFFCURVE",
"478 325 CURVE",
"477.333 336.333 OFFCURVE",
"477 347.667 OFFCURVE",
"477 359 CURVE SMOOTH",
"477 370.333 OFFCURVE",
"477 381.667 OFFCURVE",
"477 393 CURVE SMOOTH",
"477 404.333 OFFCURVE",
"477 415.5 OFFCURVE",
"477 426.5 CURVE SMOOTH",
"477 437.5 OFFCURVE",
"477.333 448.333 OFFCURVE",
"478 459 CURVE",
"478 469.667 OFFCURVE",
"478.167 479.167 OFFCURVE",
"478.5 487.5 CURVE SMOOTH",
"478.833 495.833 OFFCURVE",
"479.333 503.333 OFFCURVE",
"480 510 CURVE",
"435 510 LINE",
"433 470.667 OFFCURVE",
"427 446 OFFCURVE",
"417 436 CURVE SMOOTH",
"407 426 OFFCURVE",
"388.667 421 OFFCURVE",
"362 421 CURVE SMOOTH",
"223 421 LINE",
"223 714 LINE",
"362 714 LINE SMOOTH",
"389.333 714 OFFCURVE",
"411.333 712 OFFCURVE",
"428 708 CURVE",
"444.667 702.667 OFFCURVE",
"457.333 695.667 OFFCURVE",
"466 687 CURVE",
"475.333 678.333 OFFCURVE",
"482.333 666.333 OFFCURVE",
"487 651 CURVE SMOOTH",
"491 637 OFFCURVE",
"495 618.333 OFFCURVE",
"499 595 CURVE",
"542 594 LINE",
"536 757 LINE",
"516 756.333 OFFCURVE",
"495.667 755.833 OFFCURVE",
"475 755.5 CURVE SMOOTH",
"454.333 755.167 OFFCURVE",
"433.333 755 OFFCURVE",
"412 755 CURVE SMOOTH",
"390.667 754.333 OFFCURVE",
"369.167 754 OFFCURVE",
"347.5 754 CURVE SMOOTH",
"325.833 754 OFFCURVE",
"304.333 754 OFFCURVE",
"283 754 CURVE SMOOTH",
"261.667 754 OFFCURVE",
"240.333 754 OFFCURVE",
"219 754 CURVE SMOOTH",
"197.667 754 OFFCURVE",
"176.333 754.333 OFFCURVE",
"155 755 CURVE SMOOTH",
"133.667 755 OFFCURVE",
"112.833 755.167 OFFCURVE",
"92.5 755.5 CURVE SMOOTH",
"72.167 755.833 OFFCURVE",
"52.333 756.333 OFFCURVE",
"33 757 CURVE",
"33 719 LINE",
"43.667 718.333 OFFCURVE",
"53.333 717.833 OFFCURVE",
"62 717.5 CURVE SMOOTH",
"70.667 717.167 OFFCURVE",
"78.333 716.333 OFFCURVE",
"85 715 CURVE",
"98.333 713 OFFCURVE",
"108.333 709 OFFCURVE",
"115 703 CURVE SMOOTH",
"121 697.667 OFFCURVE",
"125.667 689 OFFCURVE",
"129 677 CURVE",
"131 666.333 OFFCURVE",
"132 650.667 OFFCURVE",
"132 630 CURVE SMOOTH",
"132 142 LINE SMOOTH",
"132 120 OFFCURVE",
"131 102.333 OFFCURVE",
"129 89 CURVE SMOOTH",
"127 75.667 OFFCURVE",
"122.667 65.667 OFFCURVE",
"116 59 CURVE SMOOTH",
"108.667 51.667 OFFCURVE",
"99 47 OFFCURVE",
"87 45 CURVE SMOOTH",
"74.333 43 OFFCURVE",
"56.333 42 OFFCURVE",
"33 42 CURVE",
"33 5 LINE",
"39.667 5 OFFCURVE",
"47.833 5 OFFCURVE",
"57.5 5 CURVE SMOOTH",
"67.167 5 OFFCURVE",
"78.667 5.333 OFFCURVE",
"92 6 CURVE",
"105.333 6 OFFCURVE",
"118.833 6 OFFCURVE",
"132.5 6 CURVE SMOOTH",
"146.167 6 OFFCURVE",
"160.333 6 OFFCURVE",
"175 6 CURVE SMOOTH",
"258 6 LINE",
"271.333 5.333 OFFCURVE",
"283.167 5 OFFCURVE",
"293.5 5 CURVE SMOOTH",
"303.833 5 OFFCURVE",
"312.333 5 OFFCURVE",
"319 5 CURVE",
"319 42 LINE",
"297.667 42 OFFCURVE",
"280.333 43 OFFCURVE",
"267 45 CURVE SMOOTH",
"254.333 47 OFFCURVE",
"244.667 51.333 OFFCURVE",
"238 58 CURVE",
"231.333 65.333 OFFCURVE",
"227.333 75.333 OFFCURVE",
"226 88 CURVE",
"224 101.333 OFFCURVE",
"223 119.333 OFFCURVE",
"223 142 CURVE"
);
}
);
width = 568;
}
);
note = F;
unicode = 0046;
},
{
glyphname = G;
layers = (
{
layerId = "59D766EC-4D78-4FC8-A1A0-9290DDB4C41B";
paths = (
{
closed = 1;
nodes = (
"731 556 LINE",
"711 717 LINE",
"689 725 OFFCURVE",
"667.333 732.5 OFFCURVE",
"646 739.5 CURVE SMOOTH",
"624.667 746.5 OFFCURVE",
"603.667 752.667 OFFCURVE",
"583 758 CURVE SMOOTH",
"562.333 763.333 OFFCURVE",
"540.667 767.333 OFFCURVE",
"518 770 CURVE SMOOTH",
"495.333 772.667 OFFCURVE",
"472.333 774 OFFCURVE",
"449 774 CURVE SMOOTH",
"395 774 OFFCURVE",
"344.333 764 OFFCURVE",
"297 744 CURVE SMOOTH",
"250.333 723.333 OFFCURVE",
"209.333 695.333 OFFCURVE",
"174 660 CURVE SMOOTH",
"138.667 624.667 OFFCURVE",
"111 583 OFFCURVE",
"91 535 CURVE SMOOTH",
"71 486.333 OFFCURVE",
"61 434 OFFCURVE",
"61 378 CURVE SMOOTH",
"61 325.333 OFFCURVE",
"70.667 275 OFFCURVE",
"90 227 CURVE SMOOTH",
"109.333 180.333 OFFCURVE",
"136.667 139 OFFCURVE",
"172 103 CURVE SMOOTH",
"207.333 67.667 OFFCURVE",
"249.333 40 OFFCURVE",
"298 20 CURVE SMOOTH",
"346 -0.667 OFFCURVE",
"400.333 -11 OFFCURVE",
"461 -11 CURVE SMOOTH",
"507.667 -11 OFFCURVE",
"552 -5.667 OFFCURVE",
"594 5 CURVE SMOOTH",
"615.333 10.333 OFFCURVE",
"637.167 16.667 OFFCURVE",
"659.5 24 CURVE SMOOTH",
"681.833 31.333 OFFCURVE",
"704.667 40.333 OFFCURVE",
"728 51 CURVE",
"728 78 LINE",
"712 95 LINE",
"712 228 LINE SMOOTH",
"712 260 OFFCURVE",
"718.333 280 OFFCURVE",
"731 288 CURVE SMOOTH",
"743 296 OFFCURVE",
"761.333 300 OFFCURVE",
"786 300 CURVE",
"786 337 LINE",
"778.667 336.333 OFFCURVE",
"770.167 336 OFFCURVE",
"760.5 336 CURVE SMOOTH",
"750.833 336 OFFCURVE",
"740.333 336 OFFCURVE",
"729 336 CURVE",
"717.667 335.333 OFFCURVE",
"706.167 335 OFFCURVE",
"694.5 335 CURVE SMOOTH",
"682.833 335 OFFCURVE",
"670.667 335 OFFCURVE",
"658 335 CURVE SMOOTH",
"645.333 335 OFFCURVE",
"633 335 OFFCURVE",
"621 335 CURVE SMOOTH",
"609 335 OFFCURVE",
"597.333 335.333 OFFCURVE",
"586 336 CURVE",
"574 336 OFFCURVE",
"563 336 OFFCURVE",
"553 336 CURVE SMOOTH",
"543 336 OFFCURVE",
"533.667 336.333 OFFCURVE",
"525 337 CURVE",
"525 299 LINE",
"559 299 OFFCURVE",
"584 295.333 OFFCURVE",
"600 288 CURVE",
"614 280 OFFCURVE",
"621 260 OFFCURVE",
"621 228 CURVE SMOOTH",
"621 74 LINE",
"604 62 LINE SMOOTH",
"600 59.333 OFFCURVE",
"595.5 57 OFFCURVE",
"590.5 55 CURVE SMOOTH",
"585.5 53 OFFCURVE",
"580 50.667 OFFCURVE",
"574 48 CURVE",
"568 46 OFFCURVE",
"561.5 44 OFFCURVE",
"554.5 42 CURVE SMOOTH",
"547.5 40 OFFCURVE",
"539.667 38.333 OFFCURVE",
"531 37 CURVE SMOOTH",
"522.333 35.667 OFFCURVE",
"513.167 34.5 OFFCURVE",
"503.5 33.5 CURVE SMOOTH",
"493.833 32.5 OFFCURVE",
"483.333 32 OFFCURVE",
"472 32 CURVE SMOOTH",
"422 32 OFFCURVE",
"378 42 OFFCURVE",
"340 62 CURVE SMOOTH",
"302 80.667 OFFCURVE",
"269.333 106.667 OFFCURVE",
"242 140 CURVE SMOOTH",
"214.667 173.333 OFFCURVE",
"194.667 211 OFFCURVE",
"182 253 CURVE SMOOTH",
"168 295 OFFCURVE",
"161 339 OFFCURVE",
"161 385 CURVE SMOOTH",
"161 427 OFFCURVE",
"167.667 469 OFFCURVE",
"181 511 CURVE SMOOTH",
"187.667 531.667 OFFCURVE",
"195.833 551 OFFCURVE",
"205.5 569 CURVE SMOOTH",
"215.167 587 OFFCURVE",
"226.333 604.333 OFFCURVE",
"239 621 CURVE SMOOTH",
"265 653 OFFCURVE",
"297 679 OFFCURVE",
"335 699 CURVE SMOOTH",
"372.333 719 OFFCURVE",
"415.333 729 OFFCURVE",
"464 729 CURVE SMOOTH",
"524 729 OFFCURVE",
"573.333 715.667 OFFCURVE",
"612 689 CURVE SMOOTH",
"650.667 662.333 OFFCURVE",
"676 618 OFFCURVE",
"688 556 CURVE",
"731 556 LINE"
);
}
);
width = 806;
}
);
note = G;
unicode = 0047;
},
{
glyphname = H;
layers = (
{
layerId = "59D766EC-4D78-4FC8-A1A0-9290DDB4C41B";
paths = (
{
closed = 1;
nodes = (
"652 425 LINE",
"214 425 LINE",
"214 628 LINE SMOOTH",
"214 638 OFFCURVE",
"214.333 647 OFFCURVE",
"215 655 CURVE SMOOTH",
"215.667 663 OFFCURVE",
"216.667 670 OFFCURVE",
"218 676 CURVE",
"220 688 OFFCURVE",
"224.333 697.333 OFFCURVE",
"231 704 CURVE",
"238.333 710 OFFCURVE",
"248 714 OFFCURVE",
"260 716 CURVE SMOOTH",
"266.667 717.333 OFFCURVE",
"274 718.167 OFFCURVE",
"282 718.5 CURVE SMOOTH",
"290 718.833 OFFCURVE",
"299 719.333 OFFCURVE",
"309 720 CURVE",
"309 758 LINE",
"302.333 757.333 OFFCURVE",
"294.167 756.833 OFFCURVE",
"284.5 756.5 CURVE SMOOTH",
"274.833 756.167 OFFCURVE",
"263.333 756 OFFCURVE",
"250 756 CURVE",
"236.667 755.333 OFFCURVE",
"223 755 OFFCURVE",
"209 755 CURVE SMOOTH",
"195 755 OFFCURVE",
"180.667 755 OFFCURVE",
"166 755 CURVE SMOOTH",
"151.333 755 OFFCURVE",
"137.333 755 OFFCURVE",
"124 755 CURVE SMOOTH",
"110.667 755 OFFCURVE",
"97.333 755.333 OFFCURVE",
"84 756 CURVE",
"71.333 756 OFFCURVE",
"60.167 756.167 OFFCURVE",
"50.5 756.5 CURVE SMOOTH",
"40.833 756.833 OFFCURVE",
"33 757.333 OFFCURVE",
"27 758 CURVE",
"27 720 LINE",
"76 717 LINE",
"88.667 715 OFFCURVE",
"98.333 710.667 OFFCURVE",
"105 704 CURVE",
"112.333 698 OFFCURVE",
"117.333 689 OFFCURVE",
"120 677 CURVE",
"122 665 OFFCURVE",
"123 648.667 OFFCURVE",
"123 628 CURVE SMOOTH",
"123 143 LINE SMOOTH",
"123 122.333 OFFCURVE",
"122 105.333 OFFCURVE",
"120 92 CURVE",
"116.667 78 OFFCURVE",
"111.667 67.667 OFFCURVE",
"105 61 CURVE SMOOTH",
"97.667 53.667 OFFCURVE",
"88 48.667 OFFCURVE",
"76 46 CURVE SMOOTH",
"64.667 43.333 OFFCURVE",
"48.333 42 OFFCURVE",
"27 42 CURVE",
"27 5 LINE",
"33.667 5.667 OFFCURVE",
"41.833 6 OFFCURVE",
"51.5 6 CURVE SMOOTH",
"61.167 6 OFFCURVE",
"72.667 6 OFFCURVE",
"86 6 CURVE SMOOTH",
"99.333 6 OFFCURVE",
"112.667 6 OFFCURVE",
"126 6 CURVE SMOOTH",
"139.333 6 OFFCURVE",
"153.333 6 OFFCURVE",
"168 6 CURVE SMOOTH",
"250 6 LINE",
"263.333 5.333 OFFCURVE",
"274.833 5 OFFCURVE",
"284.5 5 CURVE SMOOTH",
"294.167 5 OFFCURVE",
"302.333 5 OFFCURVE",
"309 5 CURVE",
"309 42 LINE",
"298.333 42 OFFCURVE",
"288.833 42.333 OFFCURVE",
"280.5 43 CURVE SMOOTH",
"272.167 43.667 OFFCURVE",
"264.667 44.667 OFFCURVE",
"258 46 CURVE SMOOTH",
"245.333 48.667 OFFCURVE",
"236 53.667 OFFCURVE",
"230 61 CURVE",
"223.333 67.667 OFFCURVE",
"219 77.667 OFFCURVE",
"217 91 CURVE SMOOTH",
"215 104.333 OFFCURVE",
"214 121.667 OFFCURVE",
"214 143 CURVE SMOOTH",
"214 372 LINE",
"652 372 LINE",
"652 143 LINE SMOOTH",
"652 123 OFFCURVE",
"651 106.333 OFFCURVE",
"649 93 CURVE",
"647.667 86.333 OFFCURVE",
"645.833 80.333 OFFCURVE",
"643.5 75 CURVE SMOOTH",
"641.167 69.667 OFFCURVE",
"638.333 65.333 OFFCURVE",
"635 62 CURVE",
"628.333 54 OFFCURVE",
"618.667 48.667 OFFCURVE",
"606 46 CURVE SMOOTH",
"594.667 43.333 OFFCURVE",
"578 42 OFFCURVE",
"556 42 CURVE",
"556 5 LINE",
"562.667 5.667 OFFCURVE",
"571 6 OFFCURVE",
"581 6 CURVE SMOOTH",
"591 6 OFFCURVE",
"602.667 6.333 OFFCURVE",
"616 7 CURVE",
"629.333 7 OFFCURVE",
"642.833 7 OFFCURVE",
"656.5 7 CURVE SMOOTH",
"670.167 7 OFFCURVE",
"684.333 7 OFFCURVE",
"699 7 CURVE SMOOTH",
"782 7 LINE",
"795.333 6.333 OFFCURVE",
"806.667 6 OFFCURVE",
"816 6 CURVE SMOOTH",
"825.333 6 OFFCURVE",
"833 5.667 OFFCURVE",
"839 5 CURVE",
"839 42 LINE",
"817 42 OFFCURVE",
"800.667 43.333 OFFCURVE",
"790 46 CURVE",
"777.333 48 OFFCURVE",
"767.333 52.667 OFFCURVE",
"760 60 CURVE SMOOTH",
"753.333 66.667 OFFCURVE",
"749 76.667 OFFCURVE",
"747 90 CURVE",
"745.667 96.667 OFFCURVE",
"744.667 104.5 OFFCURVE",
"744 113.5 CURVE SMOOTH",
"743.333 122.5 OFFCURVE",
"743 132.333 OFFCURVE",
"743 143 CURVE SMOOTH",
"743 631 LINE SMOOTH",
"743 651 OFFCURVE",
"744 667 OFFCURVE",
"746 679 CURVE SMOOTH",
"748 690.333 OFFCURVE",
"752.667 699 OFFCURVE",
"760 705 CURVE SMOOTH",
"767.333 711 OFFCURVE",
"777 715 OFFCURVE",
"789 717 CURVE",
"839 720 LINE",
"839 758 LINE",
"833 757.333 OFFCURVE",
"825.333 757 OFFCURVE",
"816 757 CURVE SMOOTH",
"806.667 757 OFFCURVE",
"795.333 757 OFFCURVE",
"782 757 CURVE",
"769.333 756.333 OFFCURVE",
"756.167 756 OFFCURVE",
"742.5 756 CURVE SMOOTH",
"728.833 756 OFFCURVE",
"714.667 756 OFFCURVE",
"700 756 CURVE SMOOTH",
"685.333 756 OFFCURVE",
"671 756 OFFCURVE",
"657 756 CURVE SMOOTH",
"643 756 OFFCURVE",
"629.333 756.333 OFFCURVE",
"616 757 CURVE",
"602.667 757 OFFCURVE",
"591 757 OFFCURVE",
"581 757 CURVE SMOOTH",
"571 757 OFFCURVE",
"562.667 757.333 OFFCURVE",
"556 758 CURVE",
"556 720 LINE",
"605 717 LINE SMOOTH",
"617 716.333 OFFCURVE",
"626.667 712.667 OFFCURVE",
"634 706 CURVE SMOOTH",
"640.667 700 OFFCURVE",
"645.667 691.333 OFFCURVE",
"649 680 CURVE",
"651 668 OFFCURVE",
"652 651.667 OFFCURVE",
"652 631 CURVE SMOOTH",
"652 425 LINE"
);
}
);
width = 866;
}
);
note = H;
unicode = 0048;
},
{
glyphname = Hbar;
layers = (
{
layerId = "59D766EC-4D78-4FC8-A1A0-9290DDB4C41B";
paths = (
{
closed = 1;
nodes = (
"108 546 LINE",
"224 546 LINE",
"224 140 LINE SMOOTH",
"224 120 OFFCURVE",
"222.333 103.333 OFFCURVE",
"219 90 CURVE SMOOTH",
"216.333 78.667 OFFCURVE",
"210.333 69.333 OFFCURVE",
"201 62 CURVE SMOOTH",
"193 56 OFFCURVE",
"181.333 51.333 OFFCURVE",
"166 48 CURVE SMOOTH",
"158.667 46.667 OFFCURVE",
"150 45.333 OFFCURVE",
"140 44 CURVE SMOOTH",
"130 42.667 OFFCURVE",
"119.333 41.333 OFFCURVE",
"108 40 CURVE",
"108 7 LINE",
"427 7 LINE",
"427 43 LINE",
"402.333 44.333 OFFCURVE",
"382.333 46.333 OFFCURVE",
"367 49 CURVE",
"351 51 OFFCURVE",
"339.333 55.333 OFFCURVE",
"332 62 CURVE",
"324 67.333 OFFCURVE",
"318.333 76.667 OFFCURVE",
"315 90 CURVE SMOOTH",
"311.667 103.333 OFFCURVE",
"310 120 OFFCURVE",
"310 140 CURVE SMOOTH",
"310 366 LINE",
"662 366 LINE",
"662 140 LINE SMOOTH",
"662 129.333 OFFCURVE",
"661.667 119.833 OFFCURVE",
"661 111.5 CURVE SMOOTH",
"660.333 103.167 OFFCURVE",
"659.333 96 OFFCURVE",
"658 90 CURVE SMOOTH",
"655.333 78 OFFCURVE",
"650 68.667 OFFCURVE",
"642 62 CURVE",
"634 56 OFFCURVE",
"622.333 51.333 OFFCURVE",
"607 48 CURVE SMOOTH",
"599.667 46.667 OFFCURVE",
"591 45.333 OFFCURVE",
"581 44 CURVE SMOOTH",
"571 42.667 OFFCURVE",
"559.667 41.333 OFFCURVE",
"547 40 CURVE",
"547 7 LINE",
"864 7 LINE",
"864 43 LINE",
"840 43.667 OFFCURVE",
"820.333 45.667 OFFCURVE",
"805 49 CURVE",
"789 51 OFFCURVE",
"777.333 55.333 OFFCURVE",
"770 62 CURVE",
"762 67.333 OFFCURVE",
"756.333 76.667 OFFCURVE",
"753 90 CURVE SMOOTH",
"749.667 103.333 OFFCURVE",
"748 120 OFFCURVE",
"748 140 CURVE SMOOTH",
"748 546 LINE",
"865 546 LINE",
"865 591 LINE",
"748 591 LINE",
"748 626 LINE SMOOTH",
"748 636.667 OFFCURVE",
"748.5 646.167 OFFCURVE",
"749.5 654.5 CURVE SMOOTH",
"750.5 662.833 OFFCURVE",
"751.667 670.333 OFFCURVE",
"753 677 CURVE",
"756.333 689 OFFCURVE",
"762 698.333 OFFCURVE",
"770 705 CURVE",
"777.333 711.667 OFFCURVE",
"789 716 OFFCURVE",
"805 718 CURVE",
"812.333 719.333 OFFCURVE",
"821 720.333 OFFCURVE",
"831 721 CURVE SMOOTH",
"841 721.667 OFFCURVE",
"852 722.333 OFFCURVE",
"864 723 CURVE",
"864 757 LINE",
"547 757 LINE",
"547 723 LINE",
"570.333 722.333 OFFCURVE",
"589.667 720.333 OFFCURVE",
"605 717 CURVE SMOOTH",
"620.333 713.667 OFFCURVE",
"632 709 OFFCURVE",
"640 703 CURVE SMOOTH",
"649.333 695.667 OFFCURVE",
"655.333 686.333 OFFCURVE",
"658 675 CURVE SMOOTH",
"660.667 664.333 OFFCURVE",
"662 648 OFFCURVE",
"662 626 CURVE SMOOTH",
"662 591 LINE",
"310 591 LINE",
"310 626 LINE SMOOTH",
"310 636.667 OFFCURVE",
"310.5 646 OFFCURVE",
"311.5 654 CURVE SMOOTH",
"312.5 662 OFFCURVE",
"313.667 669 OFFCURVE",
"315 675 CURVE SMOOTH",
"317.667 686.333 OFFCURVE",
"323.667 695.667 OFFCURVE",
"333 703 CURVE SMOOTH",
"337 706.333 OFFCURVE",
"342 709.167 OFFCURVE",
"348 711.5 CURVE SMOOTH",
"354 713.833 OFFCURVE",
"360.667 715.667 OFFCURVE",
"368 717 CURVE SMOOTH",
"382.667 719.667 OFFCURVE",
"402.333 721.667 OFFCURVE",
"427 723 CURVE",
"427 757 LINE",
"108 757 LINE",
"108 723 LINE",
"132.667 721.667 OFFCURVE",
"152.333 719.667 OFFCURVE",
"167 717 CURVE SMOOTH",
"182.333 713.667 OFFCURVE",
"194 709 OFFCURVE",
"202 703 CURVE SMOOTH",
"211.333 695.667 OFFCURVE",
"217.333 686.333 OFFCURVE",
"220 675 CURVE SMOOTH",
"222.667 664.333 OFFCURVE",
"224 648 OFFCURVE",
"224 626 CURVE SMOOTH",
"224 591 LINE",
"108 591 LINE",
"108 546 LINE"
);
},
{
closed = 1;
nodes = (
"310 414 LINE",
"310 546 LINE",
"662 546 LINE",
"662 414 LINE",
"310 414 LINE"
);
}
);
width = 973;
}
);
note = Hbar;
unicode = 0126;
},
{
glyphname = I;
layers = (
{
layerId = "59D766EC-4D78-4FC8-A1A0-9290DDB4C41B";
paths = (
{
closed = 1;
nodes = (
"120 629 LINE",
"120 143 LINE SMOOTH",
"120 132.333 OFFCURVE",
"119.667 122.833 OFFCURVE",
"119 114.5 CURVE SMOOTH",
"118.333 106.167 OFFCURVE",
"117.333 98.667 OFFCURVE",
"116 92 CURVE",
"112.667 78 OFFCURVE",
"107.667 67.667 OFFCURVE",
"101 61 CURVE SMOOTH",
"93.667 53.667 OFFCURVE",
"84 48.667 OFFCURVE",
"72 46 CURVE SMOOTH",
"65.333 44.667 OFFCURVE",
"58 43.667 OFFCURVE",
"50 43 CURVE SMOOTH",
"42 42.333 OFFCURVE",
"33.333 42 OFFCURVE",
"24 42 CURVE",
"24 5 LINE",
"30.667 5.667 OFFCURVE",
"38.833 6 OFFCURVE",
"48.5 6 CURVE SMOOTH",
"58.167 6 OFFCURVE",
"69.667 6 OFFCURVE",
"83 6 CURVE SMOOTH",
"96.333 6 OFFCURVE",
"109.667 6 OFFCURVE",
"123 6 CURVE SMOOTH",
"136.333 6 OFFCURVE",
"150.333 6 OFFCURVE",
"165 6 CURVE SMOOTH",
"247 6 LINE",
"260.333 5.333 OFFCURVE",
"271.833 5 OFFCURVE",
"281.5 5 CURVE SMOOTH",
"291.167 5 OFFCURVE",
"299.333 5 OFFCURVE",
"306 5 CURVE",
"306 42 LINE",
"296 42 OFFCURVE",
"287 42.333 OFFCURVE",
"279 43 CURVE SMOOTH",
"271 43.667 OFFCURVE",
"264 44.667 OFFCURVE",
"258 46 CURVE",
"245.333 49.333 OFFCURVE",
"235.333 54.333 OFFCURVE",
"228 61 CURVE",
"221.333 67.667 OFFCURVE",
"217 78 OFFCURVE",
"215 92 CURVE",
"213.667 98.667 OFFCURVE",
"212.667 106.167 OFFCURVE",
"212 114.5 CURVE SMOOTH",
"211.333 122.833 OFFCURVE",
"211 132.333 OFFCURVE",
"211 143 CURVE SMOOTH",
"211 629 LINE SMOOTH",
"211 649.667 OFFCURVE",
"212 666 OFFCURVE",
"214 678 CURVE SMOOTH",
"216 690.667 OFFCURVE",
"220.333 699.667 OFFCURVE",
"227 705 CURVE SMOOTH",
"234.333 711 OFFCURVE",
"244 715 OFFCURVE",
"256 717 CURVE",
"306 720 LINE",
"306 758 LINE",
"299.333 757.333 OFFCURVE",
"291.167 757 OFFCURVE",
"281.5 757 CURVE SMOOTH",
"271.833 757 OFFCURVE",
"260.333 757 OFFCURVE",
"247 757 CURVE",
"233.667 756.333 OFFCURVE",
"220 756 OFFCURVE",
"206 756 CURVE SMOOTH",
"192 756 OFFCURVE",
"177.667 756 OFFCURVE",
"163 756 CURVE SMOOTH",
"81 756 LINE SMOOTH",
"68.333 756 OFFCURVE",
"57.167 756.167 OFFCURVE",
"47.5 756.5 CURVE SMOOTH",
"37.833 756.833 OFFCURVE",
"30 757.333 OFFCURVE",
"24 758 CURVE",
"24 720 LINE",
"73 717 LINE",
"85 715 OFFCURVE",
"94.667 711 OFFCURVE",
"102 705 CURVE SMOOTH",
"109.333 699 OFFCURVE",
"114.333 690 OFFCURVE",
"117 678 CURVE",
"119 666 OFFCURVE",
"120 649.667 OFFCURVE",
"120 629 CURVE"
);
}
);
width = 327;
}
);
note = I;
unicode = 0049;
},
{
glyphname = IJ;
layers = (
{
layerId = "59D766EC-4D78-4FC8-A1A0-9290DDB4C41B";
paths = (
{
closed = 1;
nodes = (
"103 46 LINE",
"103 7 LINE",
"380 7 LINE",
"380 46 LINE",
"356 46 OFFCURVE",
"338.333 47.333 OFFCURVE",
"327 50 CURVE SMOOTH",
"314.333 53.333 OFFCURVE",
"305 57.667 OFFCURVE",
"299 63 CURVE SMOOTH",
"293 68.333 OFFCURVE",
"289.333 76 OFFCURVE",
"288 86 CURVE SMOOTH",
"287.333 90.667 OFFCURVE",
"286.833 96 OFFCURVE",
"286.5 102 CURVE SMOOTH",
"286.167 108 OFFCURVE",
"286 114.333 OFFCURVE",
"286 121 CURVE SMOOTH",
"286 641 LINE SMOOTH",
"286 650.333 OFFCURVE",
"286.167 658.5 OFFCURVE",
"286.5 665.5 CURVE SMOOTH",
"286.833 672.5 OFFCURVE",
"287.333 678.333 OFFCURVE",
"288 683 CURVE",
"288.667 691.667 OFFCURVE",
"292.333 698.667 OFFCURVE",
"299 704 CURVE",
"305 709.333 OFFCURVE",
"314.333 712.333 OFFCURVE",
"327 713 CURVE",
"333.667 713.667 OFFCURVE",
"341.333 714.167 OFFCURVE",
"350 714.5 CURVE SMOOTH",
"358.667 714.833 OFFCURVE",
"368.667 715 OFFCURVE",
"380 715 CURVE",
"380 756 LINE",
"103 756 LINE",
"103 715 LINE",
"115 715 OFFCURVE",
"125.667 714.833 OFFCURVE",
"135 714.5 CURVE SMOOTH",
"144.333 714.167 OFFCURVE",
"152.333 713.667 OFFCURVE",
"159 713 CURVE SMOOTH",
"172.333 711.667 OFFCURVE",
"182 708.667 OFFCURVE",
"188 704 CURVE",
"194 698.667 OFFCURVE",
"197.667 691 OFFCURVE",
"199 681 CURVE SMOOTH",
"199.667 676.333 OFFCURVE",
"200.167 670.667 OFFCURVE",
"200.5 664 CURVE SMOOTH",
"200.833 657.333 OFFCURVE",
"201 649.667 OFFCURVE",
"201 641 CURVE SMOOTH",
"201 121 LINE SMOOTH",
"201 113 OFFCURVE",
"200.833 105.833 OFFCURVE",
"200.5 99.5 CURVE SMOOTH",
"200.167 93.167 OFFCURVE",
"199.667 87.333 OFFCURVE",
"199 82 CURVE SMOOTH",
"197.667 72 OFFCURVE",
"194 64.333 OFFCURVE",
"188 59 CURVE",
"184.667 56.333 OFFCURVE",
"180.667 54.167 OFFCURVE",
"176 52.5 CURVE SMOOTH",
"171.333 50.833 OFFCURVE",
"165.667 49.667 OFFCURVE",
"159 49 CURVE",
"146.333 47 OFFCURVE",
"127.667 46 OFFCURVE",
"103 46 CURVE SMOOTH"
);
},
{
closed = 1;
nodes = (
"870 715 LINE",
"870 756 LINE",
"596 756 LINE",
"596 715 LINE",
"607.333 715 OFFCURVE",
"617.333 714.833 OFFCURVE",
"626 714.5 CURVE SMOOTH",
"634.667 714.167 OFFCURVE",
"642.333 713.667 OFFCURVE",
"649 713 CURVE",
"661.667 712.333 OFFCURVE",
"671 709.333 OFFCURVE",
"677 704 CURVE SMOOTH",
"683 698.667 OFFCURVE",
"686.667 691 OFFCURVE",
"688 681 CURVE SMOOTH",
"688.667 676.333 OFFCURVE",
"689.167 670.667 OFFCURVE",
"689.5 664 CURVE SMOOTH",
"689.833 657.333 OFFCURVE",
"690 649.667 OFFCURVE",
"690 641 CURVE SMOOTH",
"690 293 LINE",
"690 270 LINE",
"689.333 263.333 OFFCURVE",
"689 256 OFFCURVE",
"689 248 CURVE SMOOTH",
"689 240 OFFCURVE",
"688.667 231.667 OFFCURVE",
"688 223 CURVE SMOOTH",
"687.333 214.333 OFFCURVE",
"686.667 205.5 OFFCURVE",
"686 196.5 CURVE SMOOTH",
"685.333 187.5 OFFCURVE",
"684.333 178.667 OFFCURVE",
"683 170 CURVE SMOOTH",
"681 153.333 OFFCURVE",
"678.333 139.667 OFFCURVE",
"675 129 CURVE SMOOTH",
"666.333 101.667 OFFCURVE",
"651 78.667 OFFCURVE",
"629 60 CURVE SMOOTH",
"608.333 42 OFFCURVE",
"583.333 33 OFFCURVE",
"554 33 CURVE SMOOTH",
"539.333 33 OFFCURVE",
"523.333 36 OFFCURVE",
"506 42 CURVE SMOOTH",
"488.667 48 OFFCURVE",
"474.333 56.667 OFFCURVE",
"463 68 CURVE",
"460.333 70 OFFCURVE",
"457.333 73.667 OFFCURVE",
"454 79 CURVE",
"451.333 83.667 OFFCURVE",
"448.333 90.333 OFFCURVE",
"445 99 CURVE SMOOTH",
"441.667 107 OFFCURVE",
"439 115.333 OFFCURVE",
"437 124 CURVE SMOOTH",
"435 134 OFFCURVE",
"434.333 143 OFFCURVE",
"435 151 CURVE",
"437.667 150.333 OFFCURVE",
"439.833 149.833 OFFCURVE",
"441.5 149.5 CURVE SMOOTH",
"443.167 149.167 OFFCURVE",
"444.667 148.667 OFFCURVE",
"446 148 CURVE",
"450 146.667 OFFCURVE",
"455 146 OFFCURVE",
"461 146 CURVE SMOOTH",
"481 146 OFFCURVE",
"496.667 152.667 OFFCURVE",
"508 166 CURVE",
"518 179.333 OFFCURVE",
"523 194.333 OFFCURVE",
"523 211 CURVE SMOOTH",
"523 230.333 OFFCURVE",
"516 245.333 OFFCURVE",
"502 256 CURVE SMOOTH",
"487.333 266.667 OFFCURVE",
"470.667 272 OFFCURVE",
"452 272 CURVE SMOOTH",
"437.333 272 OFFCURVE",
"424 269.333 OFFCURVE",
"412 264 CURVE",
"400.667 258 OFFCURVE",
"390.667 250.333 OFFCURVE",
"382 241 CURVE SMOOTH",
"374 232.333 OFFCURVE",
"368 221.667 OFFCURVE",
"364 209 CURVE SMOOTH",
"360 197 OFFCURVE",
"358 184.667 OFFCURVE",
"358 172 CURVE SMOOTH",
"358 143.333 OFFCURVE",
"363.667 117 OFFCURVE",
"375 93 CURVE SMOOTH",
"386.333 69 OFFCURVE",
"401 50 OFFCURVE",
"419 36 CURVE SMOOTH",
"428.333 28.667 OFFCURVE",
"438.333 22 OFFCURVE",
"449 16 CURVE SMOOTH",
"459.667 10 OFFCURVE",
"471 5.333 OFFCURVE",
"483 2 CURVE",
"507 -6 OFFCURVE",
"532 -10 OFFCURVE",
"558 -10 CURVE SMOOTH",
"592 -10 OFFCURVE",
"623 -4 OFFCURVE",
"651 8 CURVE",
"679 18.667 OFFCURVE",
"702.667 37 OFFCURVE",
"722 63 CURVE",
"734.667 77.667 OFFCURVE",
"744.333 92.667 OFFCURVE",
"751 108 CURVE SMOOTH",
"754.333 116 OFFCURVE",
"757.333 124.167 OFFCURVE",
"760 132.5 CURVE SMOOTH",
"762.667 140.833 OFFCURVE",
"765 149.333 OFFCURVE",
"767 158 CURVE SMOOTH",
"769 166.667 OFFCURVE",
"770.667 175.167 OFFCURVE",
"772 183.5 CURVE SMOOTH",
"773.333 191.833 OFFCURVE",
"774.333 200.333 OFFCURVE",
"775 209 CURVE SMOOTH",
"775.667 217.667 OFFCURVE",
"776 225.833 OFFCURVE",
"776 233.5 CURVE SMOOTH",
"776 241.167 OFFCURVE",
"776 248.667 OFFCURVE",
"776 256 CURVE SMOOTH",
"776 641 LINE SMOOTH",
"776 649.667 OFFCURVE",
"776.167 657.5 OFFCURVE",
"776.5 664.5 CURVE SMOOTH",
"776.833 671.5 OFFCURVE",
"777.333 677.333 OFFCURVE",
"778 682 CURVE SMOOTH",
"779.333 692 OFFCURVE",
"783 699.333 OFFCURVE",
"789 704 CURVE",
"795 709.333 OFFCURVE",
"804.333 712.333 OFFCURVE",
"817 713 CURVE",
"823.667 713.667 OFFCURVE",
"831.333 714.167 OFFCURVE",
"840 714.5 CURVE SMOOTH",
"848.667 714.833 OFFCURVE",
"858.667 715 OFFCURVE",
"870 715 CURVE"
);
}
);
width = 973;
}
);
note = IJ;
unicode = 0132;
},
{
glyphname = J;
layers = (
{
layerId = "59D766EC-4D78-4FC8-A1A0-9290DDB4C41B";
paths = (
{
closed = 1;
nodes = (
"271 102 LINE",
"271 628 LINE SMOOTH",
"271 648.667 OFFCURVE",
"272 665 OFFCURVE",
"274 677 CURVE SMOOTH",
"276 688.333 OFFCURVE",
"280.667 697.667 OFFCURVE",
"288 705 CURVE",
"295.333 711 OFFCURVE",
"305 715 OFFCURVE",
"317 717 CURVE",
"367 720 LINE",
"367 758 LINE",
"360.333 757.333 OFFCURVE",
"352.167 757 OFFCURVE",
"342.5 757 CURVE SMOOTH",
"332.833 757 OFFCURVE",
"321.333 757 OFFCURVE",
"308 757 CURVE",
"294.667 756.333 OFFCURVE",
"281.167 756 OFFCURVE",
"267.5 756 CURVE SMOOTH",
"253.833 756 OFFCURVE",
"239.667 756 OFFCURVE",
"225 756 CURVE SMOOTH",
"142 756 LINE SMOOTH",
"129.333 756 OFFCURVE",
"118.167 756.167 OFFCURVE",
"108.5 756.5 CURVE SMOOTH",
"98.833 756.833 OFFCURVE",
"90.667 757.333 OFFCURVE",
"84 758 CURVE",
"84 720 LINE",
"133 717 LINE",
"145.667 715 OFFCURVE",
"155.333 710.667 OFFCURVE",
"162 704 CURVE",
"169.333 698 OFFCURVE",
"174.333 689 OFFCURVE",
"177 677 CURVE",
"179 665 OFFCURVE",
"180 648.667 OFFCURVE",
"180 628 CURVE SMOOTH",
"180 35 LINE SMOOTH",
"180 -39 OFFCURVE",
"173.667 -93 OFFCURVE",
"161 -127 CURVE SMOOTH",
"148.333 -161 OFFCURVE",
"125 -178 OFFCURVE",
"91 -178 CURVE SMOOTH",
"75 -178 OFFCURVE",
"64.333 -174 OFFCURVE",
"59 -166 CURVE",
"53.667 -157.333 OFFCURVE",
"51 -148.333 OFFCURVE",
"51 -139 CURVE SMOOTH",
"51 -127 OFFCURVE",
"45.333 -116 OFFCURVE",
"34 -106 CURVE SMOOTH",
"23.333 -96 OFFCURVE",
"10.333 -91.667 OFFCURVE",
"-5 -93 CURVE",
"-19.667 -95 OFFCURVE",
"-30.333 -101 OFFCURVE",
"-37 -111 CURVE SMOOTH",
"-43.667 -120.333 OFFCURVE",
"-47 -131.667 OFFCURVE",
"-47 -145 CURVE",
"-45.667 -169.667 OFFCURVE",
"-33.667 -188.667 OFFCURVE",
"-11 -202 CURVE SMOOTH",
"11.667 -214.667 OFFCURVE",
"38 -221 OFFCURVE",
"68 -221 CURVE SMOOTH",
"136.667 -221 OFFCURVE",
"187.667 -194.333 OFFCURVE",
"221 -141 CURVE SMOOTH",
"254.333 -86.333 OFFCURVE",
"271 -5.333 OFFCURVE",
"271 102 CURVE"
);
}
);
width = 387;
}
);
note = J;
unicode = 004A;
},
{
glyphname = K;
layers = (
{
layerId = "59D766EC-4D78-4FC8-A1A0-9290DDB4C41B";
paths = (
{
closed = 1;
nodes = (
"609 77 LINE",
"337 447 LINE",
"502 609 LINE SMOOTH",
"513.333 620.333 OFFCURVE",
"524 630.667 OFFCURVE",
"534 640 CURVE SMOOTH",
"544 649.333 OFFCURVE",
"553.333 657.667 OFFCURVE",
"562 665 CURVE SMOOTH",
"578.667 678.333 OFFCURVE",
"594 689.667 OFFCURVE",
"608 699 CURVE SMOOTH",
"622 707.667 OFFCURVE",
"634.667 713.333 OFFCURVE",
"646 716 CURVE SMOOTH",
"656 718.667 OFFCURVE",
"668 720 OFFCURVE",
"682 720 CURVE",
"682 757 LINE",
"676.667 756.333 OFFCURVE",
"670 755.833 OFFCURVE",
"662 755.5 CURVE SMOOTH",
"654 755.167 OFFCURVE",
"645 755 OFFCURVE",
"635 755 CURVE SMOOTH",
"572 755 LINE SMOOTH",
"560.667 755 OFFCURVE",
"549.667 755 OFFCURVE",
"539 755 CURVE SMOOTH",
"528.333 755 OFFCURVE",
"517.667 755.333 OFFCURVE",
"507 756 CURVE SMOOTH",
"496.333 756.667 OFFCURVE",
"487 757 OFFCURVE",
"479 757 CURVE SMOOTH",
"471 757 OFFCURVE",
"464.333 757.333 OFFCURVE",
"459 758 CURVE",
"459 720 LINE",
"480.333 720 OFFCURVE",
"495.333 719 OFFCURVE",
"504 717 CURVE",
"512.667 714.333 OFFCURVE",
"517 709 OFFCURVE",
"517 701 CURVE SMOOTH",
"517 697 OFFCURVE",
"515 692 OFFCURVE",
"511 686 CURVE",
"509 683.333 OFFCURVE",
"507 680.5 OFFCURVE",
"505 677.5 CURVE SMOOTH",
"503 674.5 OFFCURVE",
"500.667 671.333 OFFCURVE",
"498 668 CURVE",
"495.333 665.333 OFFCURVE",
"492.667 662.5 OFFCURVE",
"490 659.5 CURVE SMOOTH",
"487.333 656.5 OFFCURVE",
"484.667 653.667 OFFCURVE",
"482 651 CURVE SMOOTH",
"470 639 LINE",
"214 391 LINE",
"214 627 LINE SMOOTH",
"214 647.667 OFFCURVE",
"215 664 OFFCURVE",
"217 676 CURVE SMOOTH",
"219 687.333 OFFCURVE",
"223 696.667 OFFCURVE",
"229 704 CURVE",
"235 710 OFFCURVE",
"243.333 714 OFFCURVE",
"254 716 CURVE",
"259.333 717.333 OFFCURVE",
"265.167 718.167 OFFCURVE",
"271.5 718.5 CURVE SMOOTH",
"277.833 718.833 OFFCURVE",
"285.333 719.333 OFFCURVE",
"294 720 CURVE",
"294 758 LINE",
"288.667 757.333 OFFCURVE",
"281.5 757 OFFCURVE",
"272.5 757 CURVE SMOOTH",
"263.5 757 OFFCURVE",
"253 757 OFFCURVE",
"241 757 CURVE",
"228.333 756.333 OFFCURVE",
"215.5 756 OFFCURVE",
"202.5 756 CURVE SMOOTH",
"189.5 756 OFFCURVE",
"176 756 OFFCURVE",
"162 756 CURVE SMOOTH",
"148.667 756 OFFCURVE",
"135.333 756 OFFCURVE",
"122 756 CURVE SMOOTH",
"108.667 756 OFFCURVE",
"95.667 756.333 OFFCURVE",
"83 757 CURVE",
"70.333 757 OFFCURVE",
"59.333 757 OFFCURVE",
"50 757 CURVE SMOOTH",
"40.667 757 OFFCURVE",
"33 757.333 OFFCURVE",
"27 758 CURVE",
"27 720 LINE",
"37 719.333 OFFCURVE",
"46 718.833 OFFCURVE",
"54 718.5 CURVE SMOOTH",
"62 718.167 OFFCURVE",
"69.333 717.333 OFFCURVE",
"76 716 CURVE SMOOTH",
"88 714 OFFCURVE",
"97.667 710 OFFCURVE",
"105 704 CURVE",
"112.333 696.667 OFFCURVE",
"117.333 687.333 OFFCURVE",
"120 676 CURVE",
"122 664 OFFCURVE",
"123 647.667 OFFCURVE",
"123 627 CURVE SMOOTH",
"123 142 LINE SMOOTH",
"123 118.667 OFFCURVE",
"121.667 101.333 OFFCURVE",
"119 90 CURVE SMOOTH",
"117.667 83.333 OFFCURVE",
"115.833 77.333 OFFCURVE",
"113.5 72 CURVE SMOOTH",
"111.167 66.667 OFFCURVE",
"108.333 62.333 OFFCURVE",
"105 59 CURVE SMOOTH",
"98.333 52.333 OFFCURVE",
"88.667 48 OFFCURVE",
"76 46 CURVE",
"64.667 43.333 OFFCURVE",
"48.333 42 OFFCURVE",
"27 42 CURVE",
"27 5 LINE",
"33.667 5.667 OFFCURVE",
"41.667 6 OFFCURVE",
"51 6 CURVE SMOOTH",
"60.333 6 OFFCURVE",
"71.333 6 OFFCURVE",
"84 6 CURVE SMOOTH",
"96.667 6 OFFCURVE",
"109.667 6 OFFCURVE",
"123 6 CURVE SMOOTH",
"136.333 6 OFFCURVE",
"150 6 OFFCURVE",
"164 6 CURVE SMOOTH",
"244 6 LINE",
"256.667 5.333 OFFCURVE",
"267.5 5 OFFCURVE",
"276.5 5 CURVE SMOOTH",
"285.5 5 OFFCURVE",
"293 5 OFFCURVE",
"299 5 CURVE",
"299 42 LINE",
"280.333 42 OFFCURVE",
"266 43.333 OFFCURVE",
"256 46 CURVE",
"244 48 OFFCURVE",
"235.333 52.333 OFFCURVE",
"230 59 CURVE",
"223.333 65.667 OFFCURVE",
"219 76 OFFCURVE",
"217 90 CURVE SMOOTH",
"215 103.333 OFFCURVE",
"214 120.667 OFFCURVE",
"214 142 CURVE SMOOTH",
"214 326 LINE",
"280 392 LINE",
"557 6 LINE",
"561 6 OFFCURVE",
"566 6 OFFCURVE",
"572 6 CURVE SMOOTH",
"578 6 OFFCURVE",
"584.667 6.333 OFFCURVE",
"592 7 CURVE",
"599.333 7 OFFCURVE",
"606.833 7 OFFCURVE",
"614.5 7 CURVE SMOOTH",
"622.167 7 OFFCURVE",
"630.333 7 OFFCURVE",
"639 7 CURVE SMOOTH",
"687 7 LINE",
"694.333 6.333 OFFCURVE",
"701.167 6 OFFCURVE",
"707.5 6 CURVE SMOOTH",
"713.833 6 OFFCURVE",
"719.333 6 OFFCURVE",
"724 6 CURVE",
"724 42 LINE",
"700 42 LINE SMOOTH",
"695.333 42 OFFCURVE",
"690.167 42.333 OFFCURVE",
"684.5 43 CURVE SMOOTH",
"678.833 43.667 OFFCURVE",
"673.333 44.667 OFFCURVE",
"668 46 CURVE",
"656 48 OFFCURVE",
"645 51.333 OFFCURVE",
"635 56 CURVE SMOOTH",
"625 60.667 OFFCURVE",
"616.333 67.667 OFFCURVE",
"609 77 CURVE"
);
}
);
width = 745;
}
);
note = K;
unicode = 004B;
},
{
glyphname = L;
layers = (
{
layerId = "59D766EC-4D78-4FC8-A1A0-9290DDB4C41B";
paths = (
{
closed = 1;
nodes = (
"571 6 LINE",
"614 180 LINE",
"573 180 LINE",
"566.333 152.667 OFFCURVE",
"558.333 130.333 OFFCURVE",
"549 113 CURVE SMOOTH",
"539.667 95 OFFCURVE",
"529.333 81.333 OFFCURVE",
"518 72 CURVE",
"504.667 62.667 OFFCURVE",
"489.333 56.667 OFFCURVE",
"472 54 CURVE SMOOTH",
"462.667 52.667 OFFCURVE",
"452.333 51.5 OFFCURVE",
"441 50.5 CURVE SMOOTH",
"429.667 49.5 OFFCURVE",
"417.333 49 OFFCURVE",
"404 49 CURVE SMOOTH",
"366.667 49 OFFCURVE",
"336.333 50 OFFCURVE",
"313 52 CURVE",
"289.667 52.667 OFFCURVE",
"271.333 56.667 OFFCURVE",
"258 64 CURVE SMOOTH",
"244.667 71.333 OFFCURVE",
"235.667 81 OFFCURVE",
"231 93 CURVE SMOOTH",
"226.333 105 OFFCURVE",
"224 122.333 OFFCURVE",
"224 145 CURVE SMOOTH",
"224 628 LINE SMOOTH",
"224 650 OFFCURVE",
"225.333 666.333 OFFCURVE",
"228 677 CURVE",
"230 689.667 OFFCURVE",
"234.333 698.667 OFFCURVE",
"241 704 CURVE",
"247.667 710.667 OFFCURVE",
"257.667 715 OFFCURVE",
"271 717 CURVE",
"321 720 LINE",
"321 758 LINE",
"314.333 757.333 OFFCURVE",
"305.833 756.833 OFFCURVE",
"295.5 756.5 CURVE SMOOTH",
"285.167 756.167 OFFCURVE",
"273.333 756 OFFCURVE",
"260 756 CURVE",
"246.667 755.333 OFFCURVE",
"233 755 OFFCURVE",
"219 755 CURVE SMOOTH",
"205 755 OFFCURVE",
"190.667 755 OFFCURVE",
"176 755 CURVE SMOOTH",
"161.333 755 OFFCURVE",
"147.333 755 OFFCURVE",
"134 755 CURVE SMOOTH",
"120.667 755 OFFCURVE",
"107.667 755.333 OFFCURVE",
"95 756 CURVE",
"82.333 756 OFFCURVE",
"71.167 756.167 OFFCURVE",
"61.5 756.5 CURVE SMOOTH",
"51.833 756.833 OFFCURVE",
"44 757.333 OFFCURVE",
"38 758 CURVE",
"38 720 LINE",
"87 717 LINE",
"99 715 OFFCURVE",
"108.667 711 OFFCURVE",
"116 705 CURVE",
"122 699 OFFCURVE",
"126.667 689.667 OFFCURVE",
"130 677 CURVE",
"132 665 OFFCURVE",
"133 648.667 OFFCURVE",
"133 628 CURVE SMOOTH",
"133 145 LINE SMOOTH",
"133 122.333 OFFCURVE",
"132 104.333 OFFCURVE",
"130 91 CURVE",
"128.667 84.333 OFFCURVE",
"126.833 78.333 OFFCURVE",
"124.5 73 CURVE SMOOTH",
"122.167 67.667 OFFCURVE",
"119.333 63.333 OFFCURVE",
"116 60 CURVE SMOOTH",
"108.667 52.667 OFFCURVE",
"99 47.667 OFFCURVE",
"87 45 CURVE SMOOTH",
"75.667 42.333 OFFCURVE",
"59.333 41 OFFCURVE",
"38 41 CURVE",
"38 6 LINE",
"54.667 6.667 OFFCURVE",
"73 7 OFFCURVE",
"93 7 CURVE SMOOTH",
"113 7 OFFCURVE",
"134.667 7.333 OFFCURVE",
"158 8 CURVE SMOOTH",
"181.333 8.667 OFFCURVE",
"205.333 9 OFFCURVE",
"230 9 CURVE SMOOTH",
"254.667 9 OFFCURVE",
"279.667 9 OFFCURVE",
"305 9 CURVE SMOOTH",
"330.333 9 OFFCURVE",
"355.333 9 OFFCURVE",
"380 9 CURVE SMOOTH",
"404.667 9 OFFCURVE",
"428.667 8.667 OFFCURVE",
"452 8 CURVE SMOOTH",
"475.333 7.333 OFFCURVE",
"497 7 OFFCURVE",
"517 7 CURVE SMOOTH",
"537 7 OFFCURVE",
"555 6.667 OFFCURVE",
"571 6 CURVE"
);
}
);
width = 627;
}
);
note = L;
unicode = 004C;
},
{
glyphname = Ldot;
layers = (
{
layerId = "59D766EC-4D78-4FC8-A1A0-9290DDB4C41B";
paths = (
{
closed = 1;
nodes = (
"145 39 LINE",
"145 7 LINE",
"766 7 LINE",
"828 194 LINE",
"778 194 LINE",
"764 161.333 OFFCURVE",
"749.667 135 OFFCURVE",
"735 115 CURVE SMOOTH",
"719 93 OFFCURVE",
"703 78.667 OFFCURVE",
"687 72 CURVE",
"670.333 64 OFFCURVE",
"645.333 58 OFFCURVE",
"612 54 CURVE SMOOTH",
"579.333 50 OFFCURVE",
"537 48 OFFCURVE",
"485 48 CURVE SMOOTH",
"481.667 48 OFFCURVE",
"478.167 48 OFFCURVE",
"474.5 48 CURVE SMOOTH",
"470.833 48 OFFCURVE",
"467 48 OFFCURVE",
"463 48 CURVE SMOOTH",
"438 48 LINE SMOOTH",
"434 48 OFFCURVE",
"430.167 48 OFFCURVE",
"426.5 48 CURVE SMOOTH",
"422.833 48 OFFCURVE",
"419.333 48.333 OFFCURVE",
"416 49 CURVE",
"402 49 LINE SMOOTH",
"397.333 49 OFFCURVE",
"393.167 49 OFFCURVE",
"389.5 49 CURVE SMOOTH",
"385.833 49 OFFCURVE",
"382.333 49.333 OFFCURVE",
"379 50 CURVE SMOOTH",
"371.667 51.333 OFFCURVE",
"366 53 OFFCURVE",
"362 55 CURVE",
"357.333 57.667 OFFCURVE",
"354 62 OFFCURVE",
"352 68 CURVE SMOOTH",
"350 74 OFFCURVE",
"349 82.333 OFFCURVE",
"349 93 CURVE SMOOTH",
"349 628 LINE SMOOTH",
"349 648 OFFCURVE",
"351 664.333 OFFCURVE",
"355 677 CURVE",
"357.667 688.333 OFFCURVE",
"363.667 697.667 OFFCURVE",
"373 705 CURVE SMOOTH",
"381 711 OFFCURVE",
"393 715.667 OFFCURVE",
"409 719 CURVE SMOOTH",
"416.333 720.333 OFFCURVE",
"424.833 721.167 OFFCURVE",
"434.5 721.5 CURVE SMOOTH",
"444.167 721.833 OFFCURVE",
"454.667 722.333 OFFCURVE",
"466 723 CURVE",
"466 757 LINE",
"145 757 LINE",
"145 723 LINE",
"156.333 722.333 OFFCURVE",
"166.833 721.667 OFFCURVE",
"176.5 721 CURVE SMOOTH",
"186.167 720.333 OFFCURVE",
"194.667 719.333 OFFCURVE",
"202 718 CURVE SMOOTH",
"217.333 714.667 OFFCURVE",
"229 710 OFFCURVE",
"237 704 CURVE",
"245.667 696.667 OFFCURVE",
"251.333 687.333 OFFCURVE",
"254 676 CURVE SMOOTH",
"256.667 664.667 OFFCURVE",
"258 648 OFFCURVE",
"258 626 CURVE SMOOTH",
"258 134 LINE SMOOTH",
"258 113.333 OFFCURVE",
"256 97 OFFCURVE",
"252 85 CURVE SMOOTH",
"248 73 OFFCURVE",
"241.667 64 OFFCURVE",
"233 58 CURVE SMOOTH",
"224.333 52 OFFCURVE",
"212.667 48 OFFCURVE",
"198 46 CURVE",
"190.667 44.667 OFFCURVE",
"182.667 43.5 OFFCURVE",
"174 42.5 CURVE SMOOTH",
"165.333 41.5 OFFCURVE",
"155.667 40.333 OFFCURVE",
"145 39 CURVE"
);
},
{
closed = 1;
nodes = (
"504.667 465 OFFCURVE",
"488.667 458.667 OFFCURVE",
"476 446 CURVE SMOOTH",
"462.667 432.667 OFFCURVE",
"456 417 OFFCURVE",
"456 399 CURVE SMOOTH",
"456 382.333 OFFCURVE",
"462.667 367.333 OFFCURVE",
"476 354 CURVE SMOOTH",
"488.667 341.333 OFFCURVE",
"504.667 335 OFFCURVE",
"524 335 CURVE SMOOTH",
"544 335 OFFCURVE",
"560.667 341.333 OFFCURVE",
"574 354 CURVE SMOOTH",
"587.333 367.333 OFFCURVE",
"594 382.333 OFFCURVE",
"594 399 CURVE SMOOTH",
"594 417 OFFCURVE",
"587.333 432.667 OFFCURVE",
"574 446 CURVE SMOOTH",
"560.667 458.667 OFFCURVE",
"544 465 OFFCURVE",
"524 465 CURVE SMOOTH",
"524 465 LINE SMOOTH"
);
}
);
width = 973;
}
);
note = Ldot;
unicode = 013F;
},
{
glyphname = Lslash;
layers = (
{
layerId = "59D766EC-4D78-4FC8-A1A0-9290DDB4C41B";
paths = (
{
closed = 1;
nodes = (
"271 626 LINE",
"271 356 LINE",
"132 171 LINE",
"172 133 LINE",
"271 263 LINE",
"271 134 LINE SMOOTH",
"271 113.333 OFFCURVE",
"269 97 OFFCURVE",
"265 85 CURVE SMOOTH",
"261 73 OFFCURVE",
"254.667 64 OFFCURVE",
"246 58 CURVE SMOOTH",
"237.333 52 OFFCURVE",
"225.333 48 OFFCURVE",
"210 46 CURVE",
"202.667 44.667 OFFCURVE",
"194.667 43.5 OFFCURVE",
"186 42.5 CURVE SMOOTH",
"177.333 41.5 OFFCURVE",
"167.667 40.333 OFFCURVE",
"157 39 CURVE",
"157 7 LINE",
"779 7 LINE",
"841 194 LINE",
"795 194 LINE",
"780.333 162.667 OFFCURVE",
"764.333 136.333 OFFCURVE",
"747 115 CURVE SMOOTH",
"738.333 104.333 OFFCURVE",
"729.667 95.333 OFFCURVE",
"721 88 CURVE SMOOTH",
"712.333 80.667 OFFCURVE",
"703.667 75.333 OFFCURVE",
"695 72 CURVE",
"678.333 64 OFFCURVE",
"654.333 58 OFFCURVE",
"623 54 CURVE SMOOTH",
"592.333 50 OFFCURVE",
"551 48 OFFCURVE",
"499 48 CURVE SMOOTH",
"495.667 48 OFFCURVE",
"492.167 48 OFFCURVE",
"488.5 48 CURVE SMOOTH",
"484.833 48 OFFCURVE",
"480.667 48 OFFCURVE",
"476 48 CURVE SMOOTH",
"451 48 LINE SMOOTH",
"447 48 OFFCURVE",
"443.167 48 OFFCURVE",
"439.5 48 CURVE SMOOTH",
"435.833 48 OFFCURVE",
"432.333 48.333 OFFCURVE",
"429 49 CURVE",
"415 49 LINE SMOOTH",
"410.333 49 OFFCURVE",
"406 49 OFFCURVE",
"402 49 CURVE SMOOTH",
"398 49 OFFCURVE",
"394.333 49.333 OFFCURVE",
"391 50 CURVE SMOOTH",
"383 51.333 OFFCURVE",
"377.667 53 OFFCURVE",
"375 55 CURVE",
"370.333 57.667 OFFCURVE",
"367 62 OFFCURVE",
"365 68 CURVE",
"362.333 73.333 OFFCURVE",
"361 81.667 OFFCURVE",
"361 93 CURVE SMOOTH",
"361 380 LINE",
"556 636 LINE",
"509 674 LINE",
"361 476 LINE",
"361 628 LINE SMOOTH",
"361 648 OFFCURVE",
"363 664.333 OFFCURVE",
"367 677 CURVE",
"369.667 687.667 OFFCURVE",
"376 697 OFFCURVE",
"386 705 CURVE SMOOTH",
"394 711 OFFCURVE",
"406 715.667 OFFCURVE",
"422 719 CURVE SMOOTH",
"429.333 720.333 OFFCURVE",
"437.833 721.167 OFFCURVE",
"447.5 721.5 CURVE SMOOTH",
"457.167 721.833 OFFCURVE",
"467.667 722.333 OFFCURVE",
"479 723 CURVE",
"479 757 LINE",
"157 757 LINE",
"157 723 LINE",
"169 722.333 OFFCURVE",
"179.833 721.667 OFFCURVE",
"189.5 721 CURVE SMOOTH",
"199.167 720.333 OFFCURVE",
"207.667 719.333 OFFCURVE",
"215 718 CURVE SMOOTH",
"230.333 714.667 OFFCURVE",
"242 710 OFFCURVE",
"250 704 CURVE",
"258.667 696.667 OFFCURVE",
"264.333 687.333 OFFCURVE",
"267 676 CURVE SMOOTH",
"269.667 664.667 OFFCURVE",
"271 648 OFFCURVE",
"271 626 CURVE"
);
}
);
width = 973;
}
);
note = Lslash;
unicode = 0141;
},
{
glyphname = M;
layers = (
{
layerId = "59D766EC-4D78-4FC8-A1A0-9290DDB4C41B";
paths = (
{
closed = 1;
nodes = (
"527 -1 LINE",
"805 609 LINE",
"811 145 LINE SMOOTH",
"811 134.333 OFFCURVE",
"810.667 124.5 OFFCURVE",
"810 115.5 CURVE SMOOTH",
"809.333 106.5 OFFCURVE",
"808.333 98.667 OFFCURVE",
"807 92 CURVE SMOOTH",
"804.333 79.333 OFFCURVE",
"799 69 OFFCURVE",
"791 61 CURVE",
"783 54.333 OFFCURVE",
"772 49.333 OFFCURVE",
"758 46 CURVE",
"750.667 44.667 OFFCURVE",
"742.333 43.667 OFFCURVE",
"733 43 CURVE SMOOTH",
"723.667 42.333 OFFCURVE",
"713.333 42 OFFCURVE",
"702 42 CURVE",
"702 6 LINE",
"709.333 6 OFFCURVE",
"718.5 6 OFFCURVE",
"729.5 6 CURVE SMOOTH",
"740.5 6 OFFCURVE",
"753.333 6 OFFCURVE",
"768 6 CURVE SMOOTH",
"860 6 LINE SMOOTH",
"876 6 OFFCURVE",
"891.667 6 OFFCURVE",
"907 6 CURVE SMOOTH",
"922.333 6 OFFCURVE",
"937.333 6 OFFCURVE",
"952 6 CURVE SMOOTH",
"1019 6 LINE",
"1019 42 LINE",
"1006.333 42 OFFCURVE",
"995 42.333 OFFCURVE",
"985 43 CURVE SMOOTH",
"975 43.667 OFFCURVE",
"966.333 44.667 OFFCURVE",
"959 46 CURVE SMOOTH",
"943 49.333 OFFCURVE",
"931.333 54.667 OFFCURVE",
"924 62 CURVE",
"916 68 OFFCURVE",
"910.333 78.333 OFFCURVE",
"907 93 CURVE SMOOTH",
"904.333 105.667 OFFCURVE",
"902.333 123 OFFCURVE",
"901 145 CURVE",
"890 635 LINE",
"890 665.667 OFFCURVE",
"896.333 687.333 OFFCURVE",
"909 700 CURVE",
"921 713.333 OFFCURVE",
"945.667 720 OFFCURVE",
"983 720 CURVE",
"983 759 LINE",
"976.333 758.333 OFFCURVE",
"964.667 757.333 OFFCURVE",
"948 756 CURVE SMOOTH",
"940 755.333 OFFCURVE",
"931.833 755 OFFCURVE",
"923.5 755 CURVE SMOOTH",
"915.167 755 OFFCURVE",
"906.333 755 OFFCURVE",
"897 755 CURVE SMOOTH",
"846 755 LINE SMOOTH",
"837.333 755 OFFCURVE",
"830 755.167 OFFCURVE",
"824 755.5 CURVE SMOOTH",
"818 755.833 OFFCURVE",
"813 756.333 OFFCURVE",
"809 757 CURVE",
"525 127 LINE",
"233 758 LINE",
"229.667 757.333 OFFCURVE",
"225.333 756.833 OFFCURVE",
"220 756.5 CURVE SMOOTH",
"214.667 756.167 OFFCURVE",
"208.333 756 OFFCURVE",
"201 756 CURVE",
"194.333 755.333 OFFCURVE",
"187.167 755 OFFCURVE",
"179.5 755 CURVE SMOOTH",
"171.833 755 OFFCURVE",
"164 755 OFFCURVE",
"156 755 CURVE SMOOTH",
"148 755 OFFCURVE",
"140 755 OFFCURVE",
"132 755 CURVE SMOOTH",
"124 755 OFFCURVE",
"116.333 755.333 OFFCURVE",
"109 756 CURVE",
"101 756 OFFCURVE",
"93.667 756.167 OFFCURVE",
"87 756.5 CURVE SMOOTH",
"80.333 756.833 OFFCURVE",
"74.333 757.333 OFFCURVE",
"69 758 CURVE",
"69 720 LINE",
"103.667 720 OFFCURVE",
"127.667 713.667 OFFCURVE",
"141 701 CURVE SMOOTH",
"155 688.333 OFFCURVE",
"162 666 OFFCURVE",
"162 634 CURVE SMOOTH",
"151 145 LINE SMOOTH",
"150.333 123 OFFCURVE",
"147.667 105 OFFCURVE",
"143 91 CURVE",
"137.667 77.667 OFFCURVE",
"130.333 67.667 OFFCURVE",
"121 61 CURVE",
"111.667 53.667 OFFCURVE",
"99.333 49 OFFCURVE",
"84 47 CURVE",
"76.667 45.667 OFFCURVE",
"68 44.667 OFFCURVE",
"58 44 CURVE SMOOTH",
"48 43.333 OFFCURVE",
"37.333 42.667 OFFCURVE",
"26 42 CURVE",
"26 5 LINE",
"34 5.667 OFFCURVE",
"43 6 OFFCURVE",
"53 6 CURVE SMOOTH",
"63 6 OFFCURVE",
"74 6.333 OFFCURVE",
"86 7 CURVE",
"97.333 7 OFFCURVE",
"109.167 7 OFFCURVE",
"121.5 7 CURVE SMOOTH",
"133.833 7 OFFCURVE",
"146.333 7 OFFCURVE",
"159 7 CURVE SMOOTH",
"233 7 LINE",
"244.333 6.333 OFFCURVE",
"255 6 OFFCURVE",
"265 6 CURVE SMOOTH",
"275 6 OFFCURVE",
"284 6 OFFCURVE",
"292 6 CURVE",
"292 41 LINE",
"258 42.333 OFFCURVE",
"236 50.333 OFFCURVE",
"226 65 CURVE SMOOTH",
"216 80.333 OFFCURVE",
"211 106 OFFCURVE",
"211 142 CURVE SMOOTH",
"219 590 LINE",
"492 -1 LINE",
"527 -1 LINE"
);
}
);
width = 1044;
}
);
note = M;
unicode = 004D;
},
{
glyphname = N;
layers = (
{
layerId = "59D766EC-4D78-4FC8-A1A0-9290DDB4C41B";
paths = (
{
closed = 1;
nodes = (
"753 -5 LINE",
"753 625 LINE SMOOTH",
"753 646.333 OFFCURVE",
"754 663.333 OFFCURVE",
"756 676 CURVE",
"756.667 688.667 OFFCURVE",
"760.667 698 OFFCURVE",
"768 704 CURVE",
"774.667 710.667 OFFCURVE",
"784.667 715 OFFCURVE",
"798 717 CURVE SMOOTH",
"811.333 719 OFFCURVE",
"829 720 OFFCURVE",
"851 720 CURVE",
"851 758 LINE",
"845 757.333 OFFCURVE",
"837.5 757 OFFCURVE",
"828.5 757 CURVE SMOOTH",
"819.5 757 OFFCURVE",
"809.333 757 OFFCURVE",
"798 757 CURVE",
"786 756.333 OFFCURVE",
"773.833 756 OFFCURVE",
"761.5 756 CURVE SMOOTH",
"749.167 756 OFFCURVE",
"736.333 756 OFFCURVE",
"723 756 CURVE SMOOTH",
"710.333 756 OFFCURVE",
"697.667 756 OFFCURVE",
"685 756 CURVE SMOOTH",
"672.333 756 OFFCURVE",
"660 756.333 OFFCURVE",
"648 757 CURVE",
"636 757 OFFCURVE",
"625.5 757 OFFCURVE",
"616.5 757 CURVE SMOOTH",
"607.5 757 OFFCURVE",
"599.667 757.333 OFFCURVE",
"593 758 CURVE",
"593 720 LINE",
"603.667 719.333 OFFCURVE",
"613.333 718.833 OFFCURVE",
"622 718.5 CURVE SMOOTH",
"630.667 718.167 OFFCURVE",
"638.333 717.333 OFFCURVE",
"645 716 CURVE SMOOTH",
"658.333 713.333 OFFCURVE",
"668 708.667 OFFCURVE",
"674 702 CURVE",
"681.333 694.667 OFFCURVE",
"686.333 685.333 OFFCURVE",
"689 674 CURVE",
"691 661.333 OFFCURVE",
"692 645 OFFCURVE",
"692 625 CURVE SMOOTH",
"692 144 LINE",
"185 757 LINE",
"181.667 756.333 OFFCURVE",
"177 756 OFFCURVE",
"171 756 CURVE SMOOTH",
"165 756 OFFCURVE",
"158.333 756 OFFCURVE",
"151 756 CURVE",
"143.667 755.333 OFFCURVE",
"135.833 755 OFFCURVE",
"127.5 755 CURVE SMOOTH",
"119.167 755 OFFCURVE",
"110.667 755 OFFCURVE",
"102 755 CURVE SMOOTH",
"52 755 LINE SMOOTH",
"44 755 OFFCURVE",
"37 755.167 OFFCURVE",
"31 755.5 CURVE SMOOTH",
"25 755.833 OFFCURVE",
"20 756.333 OFFCURVE",
"16 757 CURVE",
"16 720 LINE",
"64 720 OFFCURVE",
"97.333 713.667 OFFCURVE",
"116 701 CURVE SMOOTH",
"135.333 687.667 OFFCURVE",
"145 662 OFFCURVE",
"145 624 CURVE SMOOTH",
"145 142 LINE SMOOTH",
"145 130.667 OFFCURVE",
"144.5 120.667 OFFCURVE",
"143.5 112 CURVE SMOOTH",
"142.5 103.333 OFFCURVE",
"141.333 95.667 OFFCURVE",
"140 89 CURVE",
"136.667 75 OFFCURVE",
"130.667 64.667 OFFCURVE",
"122 58 CURVE",
"114.667 51.333 OFFCURVE",
"103.667 47 OFFCURVE",
"89 45 CURVE SMOOTH",
"74.333 43 OFFCURVE",
"56 42 OFFCURVE",
"34 42 CURVE",
"34 5 LINE",
"42 5.667 OFFCURVE",
"51 6 OFFCURVE",
"61 6 CURVE SMOOTH",
"71 6 OFFCURVE",
"82 6.333 OFFCURVE",
"94 7 CURVE",
"105.333 7 OFFCURVE",
"117.167 7 OFFCURVE",
"129.5 7 CURVE SMOOTH",
"141.833 7 OFFCURVE",
"154.333 7 OFFCURVE",
"167 7 CURVE SMOOTH",
"241 7 LINE",
"252.333 6.333 OFFCURVE",
"263 6 OFFCURVE",
"273 6 CURVE SMOOTH",
"283 6 OFFCURVE",
"292.333 6 OFFCURVE",
"301 6 CURVE",
"301 42 LINE",
"281 42 OFFCURVE",
"264.333 43 OFFCURVE",
"251 45 CURVE",
"239.667 45.667 OFFCURVE",
"230 50 OFFCURVE",
"222 58 CURVE SMOOTH",
"214.667 65.333 OFFCURVE",
"210 75.333 OFFCURVE",
"208 88 CURVE",
"206.667 94.667 OFFCURVE",
"205.667 102.667 OFFCURVE",
"205 112 CURVE SMOOTH",
"204.333 121.333 OFFCURVE",
"204 131.667 OFFCURVE",
"204 143 CURVE SMOOTH",
"204 618 LINE",
"707 -5 LINE",
"753 -5 LINE"
);
}
);
width = 865;
}
);
note = N;
unicode = 004E;
},
{
glyphname = Eng;
layers = (
{
layerId = "59D766EC-4D78-4FC8-A1A0-9290DDB4C41B";
paths = (
{
closed = 1;
nodes = (
"457 4 LINE",
"457 43 LINE",
"448.333 43 OFFCURVE",
"440.333 43.167 OFFCURVE",
"433 43.5 CURVE SMOOTH",
"425.667 43.833 OFFCURVE",
"419.333 44.333 OFFCURVE",
"414 45 CURVE SMOOTH",
"403.333 46.333 OFFCURVE",
"395 49.667 OFFCURVE",
"389 55 CURVE",
"383 61 OFFCURVE",
"379.667 68.667 OFFCURVE",
"379 78 CURVE",
"377 87.333 OFFCURVE",
"376 100 OFFCURVE",
"376 116 CURVE SMOOTH",
"376 599 LINE",
"413.333 639.667 OFFCURVE",
"449 669.667 OFFCURVE",
"483 689 CURVE SMOOTH",
"515.667 707.667 OFFCURVE",
"545 717 OFFCURVE",
"571 717 CURVE SMOOTH",
"606.333 717 OFFCURVE",
"632.333 704 OFFCURVE",
"649 678 CURVE SMOOTH",
"666.333 651.333 OFFCURVE",
"675.333 609.333 OFFCURVE",
"676 552 CURVE SMOOTH",
"676 203 LINE SMOOTH",
"676 181 OFFCURVE",
"674 160.333 OFFCURVE",
"670 141 CURVE",
"664.667 121 OFFCURVE",
"658.667 104.667 OFFCURVE",
"652 92 CURVE SMOOTH",
"644.667 77.333 OFFCURVE",
"636.667 66.667 OFFCURVE",
"628 60 CURVE",
"619.333 52 OFFCURVE",
"610.333 48 OFFCURVE",
"601 48 CURVE SMOOTH",
"596.333 48 OFFCURVE",
"591 49 OFFCURVE",
"585 51 CURVE",
"579.667 51.667 OFFCURVE",
"574.333 54.667 OFFCURVE",
"569 60 CURVE SMOOTH",
"566.333 62.667 OFFCURVE",
"563.833 65.5 OFFCURVE",
"561.5 68.5 CURVE SMOOTH",
"559.167 71.5 OFFCURVE",
"557.333 75 OFFCURVE",
"556 79 CURVE",
"552 87 OFFCURVE",
"550 97.333 OFFCURVE",
"550 110 CURVE",
"563.333 114.667 OFFCURVE",
"572.667 122.667 OFFCURVE",
"578 134 CURVE",
"582 144 OFFCURVE",
"584 155.667 OFFCURVE",
"584 169 CURVE",
"582.667 183.667 OFFCURVE",
"576.667 195.333 OFFCURVE",
"566 204 CURVE SMOOTH",
"555.333 212.667 OFFCURVE",
"541.667 217.667 OFFCURVE",
"525 219 CURVE",
"506.333 219.667 OFFCURVE",
"490.667 213.667 OFFCURVE",
"478 201 CURVE SMOOTH",
"464.667 187.667 OFFCURVE",
"458 169.333 OFFCURVE",
"458 146 CURVE SMOOTH",
"458 126 OFFCURVE",
"461.667 107 OFFCURVE",
"469 89 CURVE SMOOTH",
"475.667 71.667 OFFCURVE",
"485.667 56.333 OFFCURVE",
"499 43 CURVE SMOOTH",
"505.667 36.333 OFFCURVE",
"512.833 30.333 OFFCURVE",
"520.5 25 CURVE SMOOTH",
"528.167 19.667 OFFCURVE",
"536.667 15.333 OFFCURVE",
"546 12 CURVE SMOOTH",
"564.667 4.667 OFFCURVE",
"585.333 1 OFFCURVE",
"608 1 CURVE SMOOTH",
"661.333 1 OFFCURVE",
"700.333 20 OFFCURVE",
"725 58 CURVE SMOOTH",
"749 96 OFFCURVE",
"761 149.333 OFFCURVE",
"761 218 CURVE SMOOTH",
"761 571 LINE SMOOTH",
"761 640.333 OFFCURVE",
"748.667 691.667 OFFCURVE",
"724 725 CURVE SMOOTH",
"698.667 758.333 OFFCURVE",
"655.667 775 OFFCURVE",
"595 775 CURVE SMOOTH",
"571.667 775 OFFCURVE",
"549.333 772 OFFCURVE",
"528 766 CURVE SMOOTH",
"517.333 762.667 OFFCURVE",
"507 759 OFFCURVE",
"497 755 CURVE SMOOTH",
"487 751 OFFCURVE",
"477.333 746.333 OFFCURVE",
"468 741 CURVE SMOOTH",
"448 730.333 OFFCURVE",
"431 719 OFFCURVE",
"417 707 CURVE SMOOTH",
"409 700.333 OFFCURVE",
"401.5 694 OFFCURVE",
"394.5 688 CURVE SMOOTH",
"387.5 682 OFFCURVE",
"381.333 675.667 OFFCURVE",
"376 669 CURVE",
"376 772 LINE",
"329 772 LINE",
"325.667 766.667 OFFCURVE",
"322.5 761.667 OFFCURVE",
"319.5 757 CURVE SMOOTH",
"316.5 752.333 OFFCURVE",
"313.333 748.333 OFFCURVE",
"310 745 CURVE",
"304 738.333 OFFCURVE",
"297 733.333 OFFCURVE",
"289 730 CURVE SMOOTH",
"281 726.667 OFFCURVE",
"271 724.333 OFFCURVE",
"259 723 CURVE SMOOTH",
"253 722.333 OFFCURVE",
"246.333 721.833 OFFCURVE",
"239 721.5 CURVE SMOOTH",
"231.667 721.167 OFFCURVE",
"223.333 721 OFFCURVE",
"214 721 CURVE",
"214 683 LINE",
"222 682.333 OFFCURVE",
"229.333 681.667 OFFCURVE",
"236 681 CURVE SMOOTH",
"242.667 680.333 OFFCURVE",
"248.667 679.333 OFFCURVE",
"254 678 CURVE SMOOTH",
"263.333 675.333 OFFCURVE",
"271 671 OFFCURVE",
"277 665 CURVE",
"282.333 658.333 OFFCURVE",
"286 651 OFFCURVE",
"288 643 CURVE SMOOTH",
"290 634.333 OFFCURVE",
"291 624.667 OFFCURVE",
"291 614 CURVE SMOOTH",
"291 117 LINE SMOOTH",
"291 109 OFFCURVE",
"290.833 101.833 OFFCURVE",
"290.5 95.5 CURVE SMOOTH",
"290.167 89.167 OFFCURVE",
"289.667 83.667 OFFCURVE",
"289 79 CURVE",
"287 69.667 OFFCURVE",
"283.333 62.333 OFFCURVE",
"278 57 CURVE SMOOTH",
"272 51 OFFCURVE",
"264.333 47.667 OFFCURVE",
"255 47 CURVE",
"249.667 46.333 OFFCURVE",
"243.5 45.833 OFFCURVE",
"236.5 45.5 CURVE SMOOTH",
"229.5 45.167 OFFCURVE",
"221.333 45 OFFCURVE",
"212 45 CURVE",
"212 4 LINE",
"457 4 LINE"
);
}
);
width = 973;
}
);
note = Eng;
unicode = 014A;
},
{
glyphname = O;
layers = (
{
layerId = "59D766EC-4D78-4FC8-A1A0-9290DDB4C41B";
paths = (
{
closed = 1;
nodes = (
"806 435.667 OFFCURVE",
"796.333 485 OFFCURVE",
"777 533 CURVE SMOOTH",
"758.333 579 OFFCURVE",
"731.667 620.333 OFFCURVE",
"697 657 CURVE SMOOTH",
"680.333 674.333 OFFCURVE",
"662.333 690.167 OFFCURVE",
"643 704.5 CURVE SMOOTH",
"623.667 718.833 OFFCURVE",
"602.667 731.333 OFFCURVE",
"580 742 CURVE SMOOTH",
"534 763.333 OFFCURVE",
"486 774 OFFCURVE",
"436 774 CURVE SMOOTH",
"379.333 774 OFFCURVE",
"328.333 762.667 OFFCURVE",
"283 740 CURVE SMOOTH",
"259.667 728.667 OFFCURVE",
"238.167 715.333 OFFCURVE",
"218.5 700 CURVE SMOOTH",
"198.833 684.667 OFFCURVE",
"180.667 667.667 OFFCURVE",
"164 649 CURVE SMOOTH",
"147.333 630.333 OFFCURVE",
"132.833 610.333 OFFCURVE",
"120.5 589 CURVE SMOOTH",
"108.167 567.667 OFFCURVE",
"97.333 545.333 OFFCURVE",
"88 522 CURVE SMOOTH",
"70 475.333 OFFCURVE",
"61 427 OFFCURVE",
"61 377 CURVE SMOOTH",
"61 326.333 OFFCURVE",
"70.667 277 OFFCURVE",
"90 229 CURVE SMOOTH",
"109.333 181.667 OFFCURVE",
"136 140.333 OFFCURVE",
"170 105 CURVE SMOOTH",
"202.667 70.333 OFFCURVE",
"242 42.333 OFFCURVE",
"288 21 CURVE SMOOTH",
"310.667 10.333 OFFCURVE",
"334.167 2.333 OFFCURVE",
"358.5 -3 CURVE SMOOTH",
"382.833 -8.333 OFFCURVE",
"407.667 -11 OFFCURVE",
"433 -11 CURVE SMOOTH",
"489.667 -11 OFFCURVE",
"540.667 0.333 OFFCURVE",
"586 23 CURVE SMOOTH",
"631.333 46.333 OFFCURVE",
"670.333 76.333 OFFCURVE",
"703 113 CURVE SMOOTH",
"735.667 149.667 OFFCURVE",
"761 192 OFFCURVE",
"779 240 CURVE SMOOTH",
"797 287.333 OFFCURVE",
"806 335.667 OFFCURVE",
"806 385 CURVE",
"806 385 LINE"
);
},
{
closed = 1;
nodes = (
"701 308.333 OFFCURVE",
"695.333 265 OFFCURVE",
"684 225 CURVE SMOOTH",
"672 185.667 OFFCURVE",
"655 151.333 OFFCURVE",
"633 122 CURVE SMOOTH",
"611 93.333 OFFCURVE",
"584.333 71.333 OFFCURVE",
"553 56 CURVE SMOOTH",
"521 40 OFFCURVE",
"485 32 OFFCURVE",
"445 32 CURVE SMOOTH",
"398.333 32 OFFCURVE",
"357.333 44 OFFCURVE",
"322 68 CURVE SMOOTH",
"286 92.667 OFFCURVE",
"256.667 123.333 OFFCURVE",
"234 160 CURVE SMOOTH",
"222.667 178.667 OFFCURVE",
"212.5 198 OFFCURVE",
"203.5 218 CURVE SMOOTH",
"194.5 238 OFFCURVE",
"187.333 259.333 OFFCURVE",
"182 282 CURVE SMOOTH",
"176.667 304 OFFCURVE",
"172.5 325.5 OFFCURVE",
"169.5 346.5 CURVE SMOOTH",
"166.5 367.5 OFFCURVE",
"165 388 OFFCURVE",
"165 408 CURVE SMOOTH",
"165 456 OFFCURVE",
"171.333 499 OFFCURVE",
"184 537 CURVE SMOOTH",
"196 575 OFFCURVE",
"213.667 609 OFFCURVE",
"237 639 CURVE SMOOTH",
"260.333 667 OFFCURVE",
"287.667 689 OFFCURVE",
"319 705 CURVE SMOOTH",
"350.333 721 OFFCURVE",
"385 729 OFFCURVE",
"423 729 CURVE SMOOTH",
"470.333 729 OFFCURVE",
"511.333 717 OFFCURVE",
"546 693 CURVE SMOOTH",
"580.667 668.333 OFFCURVE",
"609.333 637.667 OFFCURVE",
"632 601 CURVE SMOOTH",
"656 562.333 OFFCURVE",
"673.333 522 OFFCURVE",
"684 480 CURVE SMOOTH",
"695.333 434.667 OFFCURVE",
"701 393 OFFCURVE",
"701 355 CURVE",
"701 355 LINE"
);
}
);
width = 865;
}
);
note = O;
unicode = 004F;
},
{
glyphname = Oslash;
layers = (
{
layerId = "59D766EC-4D78-4FC8-A1A0-9290DDB4C41B";
paths = (
{
closed = 1;
nodes = (
"732.333 665.333 OFFCURVE",
"736.333 671.333 OFFCURVE",
"743 680 CURVE",
"746.333 684.667 OFFCURVE",
"749.667 689.333 OFFCURVE",
"753 694 CURVE SMOOTH",
"756.333 698.667 OFFCURVE",
"760 703.667 OFFCURVE",
"764 709 CURVE",
"767.333 714.333 OFFCURVE",
"771 719.5 OFFCURVE",
"775 724.5 CURVE SMOOTH",
"779 729.5 OFFCURVE",
"782.667 734.333 OFFCURVE",
"786 739 CURVE",
"802 759 LINE",
"755 794 LINE",
"688 705 LINE",
"664 724.333 OFFCURVE",
"634.667 740.333 OFFCURVE",
"600 753 CURVE SMOOTH",
"566 765.667 OFFCURVE",
"527.667 772 OFFCURVE",
"485 772 CURVE SMOOTH",
"433 772 OFFCURVE",
"386 761.667 OFFCURVE",
"344 741 CURVE SMOOTH",
"322.667 730.333 OFFCURVE",
"302.833 717.833 OFFCURVE",
"284.5 703.5 CURVE SMOOTH",
"266.167 689.167 OFFCURVE",
"249.333 673.333 OFFCURVE",
"234 656 CURVE SMOOTH",
"218.667 638 OFFCURVE",
"205.167 618.5 OFFCURVE",
"193.5 597.5 CURVE SMOOTH",
"181.833 576.5 OFFCURVE",
"171.667 554.333 OFFCURVE",
"163 531 CURVE SMOOTH",
"145.667 482.333 OFFCURVE",
"137 431.667 OFFCURVE",
"137 379 CURVE SMOOTH",
"137 263.667 OFFCURVE",
"171.333 169.333 OFFCURVE",
"240 96 CURVE",
"173 5 LINE",
"216 -33 LINE",
"284 56 LINE",
"307.333 34.667 OFFCURVE",
"336.667 18 OFFCURVE",
"372 6 CURVE SMOOTH",
"407.333 -6 OFFCURVE",
"445 -12 OFFCURVE",
"485 -12 CURVE SMOOTH",
"537 -12 OFFCURVE",
"584 -1.667 OFFCURVE",
"626 19 CURVE SMOOTH",
"669.333 40.333 OFFCURVE",
"706.333 68.667 OFFCURVE",
"737 104 CURVE SMOOTH",
"769 140 OFFCURVE",
"793.333 181.333 OFFCURVE",
"810 228 CURVE SMOOTH",
"827.333 276 OFFCURVE",
"836 326.333 OFFCURVE",
"836 379 CURVE SMOOTH",
"836 435 OFFCURVE",
"827.333 487.333 OFFCURVE",
"810 536 CURVE SMOOTH",
"792 584.667 OFFCURVE",
"765.667 626.667 OFFCURVE",
"731 662 CURVE",
"731 662 LINE"
);
},
{
closed = 1;
nodes = (
"649 651 LINE",
"286 157 LINE",
"278 169 OFFCURVE",
"271.333 183 OFFCURVE",
"266 199 CURVE",
"262.667 207.667 OFFCURVE",
"259.667 216.5 OFFCURVE",
"257 225.5 CURVE SMOOTH",
"254.333 234.5 OFFCURVE",
"251.667 243.667 OFFCURVE",
"249 253 CURVE SMOOTH",
"246.333 262.333 OFFCURVE",
"244.167 272.333 OFFCURVE",
"242.5 283 CURVE SMOOTH",
"240.833 293.667 OFFCURVE",
"239.333 304.333 OFFCURVE",
"238 315 CURVE SMOOTH",
"236.667 325.667 OFFCURVE",
"235.5 336.333 OFFCURVE",
"234.5 347 CURVE SMOOTH",
"233.5 357.667 OFFCURVE",
"233 368.333 OFFCURVE",
"233 379 CURVE SMOOTH",
"233 427 OFFCURVE",
"239 472 OFFCURVE",
"251 514 CURVE SMOOTH",
"262.333 555.333 OFFCURVE",
"279 591.667 OFFCURVE",
"301 623 CURVE SMOOTH",
"322.333 653 OFFCURVE",
"349 677.333 OFFCURVE",
"381 696 CURVE SMOOTH",
"412.333 714 OFFCURVE",
"447 723 OFFCURVE",
"485 723 CURVE SMOOTH",
"520.333 723 OFFCURVE",
"551 716.667 OFFCURVE",
"577 704 CURVE SMOOTH",
"590.333 697.333 OFFCURVE",
"603 689.667 OFFCURVE",
"615 681 CURVE SMOOTH",
"627 672.333 OFFCURVE",
"638.333 662.333 OFFCURVE",
"649 651 CURVE"
);
},
{
closed = 1;
nodes = (
"323 110 LINE",
"686 603 LINE",
"693.333 592.333 OFFCURVE",
"700.333 578.333 OFFCURVE",
"707 561 CURVE",
"714.333 544.333 OFFCURVE",
"720.333 526.333 OFFCURVE",
"725 507 CURVE SMOOTH",
"729.667 487.667 OFFCURVE",
"733.667 467 OFFCURVE",
"737 445 CURVE SMOOTH",
"738.333 434.333 OFFCURVE",
"739.333 423.5 OFFCURVE",
"740 412.5 CURVE SMOOTH",
"740.667 401.5 OFFCURVE",
"741 390.333 OFFCURVE",
"741 379 CURVE SMOOTH",
"741 331 OFFCURVE",
"735.333 285.333 OFFCURVE",
"724 242 CURVE SMOOTH",
"712 200.667 OFFCURVE",
"695 164.333 OFFCURVE",
"673 133 CURVE SMOOTH",
"650.333 101 OFFCURVE",
"623.667 76.667 OFFCURVE",
"593 60 CURVE SMOOTH",
"561 42 OFFCURVE",
"525 33 OFFCURVE",
"485 33 CURVE SMOOTH",
"453 33 OFFCURVE",
"423.333 40 OFFCURVE",
"396 54 CURVE SMOOTH",
"368 68.667 OFFCURVE",
"343.667 87.333 OFFCURVE",
"323 110 CURVE"
);
}
);
width = 973;
}
);
note = Oslash;
unicode = 00D8;
},
{
glyphname = OE;
layers = (
{
layerId = "59D766EC-4D78-4FC8-A1A0-9290DDB4C41B";
paths = (
{
closed = 1;
nodes = (
"727 534 LINE",
"681 534 LINE",
"679.667 520.667 OFFCURVE",
"678 508.333 OFFCURVE",
"676 497 CURVE SMOOTH",
"674 485.667 OFFCURVE",
"672 475.667 OFFCURVE",
"670 467 CURVE SMOOTH",
"666 449.667 OFFCURVE",
"660.333 436.667 OFFCURVE",
"653 428 CURVE",
"650.333 425.333 OFFCURVE",
"644.667 423 OFFCURVE",
"636 421 CURVE",
"632 420.333 OFFCURVE",
"627.667 419.5 OFFCURVE",
"623 418.5 CURVE SMOOTH",
"618.333 417.5 OFFCURVE",
"613.333 416.667 OFFCURVE",
"608 416 CURVE SMOOTH",
"575 413 LINE SMOOTH",
"569 412.333 OFFCURVE",
"563 412 OFFCURVE",
"557 412 CURVE SMOOTH",
"551 412 OFFCURVE",
"545.333 412 OFFCURVE",
"540 412 CURVE",
"540 662 LINE",
"539.333 684.667 OFFCURVE",
"543.333 699 OFFCURVE",
"552 705 CURVE SMOOTH",
"560 710.333 OFFCURVE",
"573 713.333 OFFCURVE",
"591 714 CURVE",
"684 714 LINE",
"695.333 713.333 OFFCURVE",
"705.5 712.833 OFFCURVE",
"714.5 712.5 CURVE SMOOTH",
"723.5 712.167 OFFCURVE",
"731.333 711.333 OFFCURVE",
"738 710 CURVE",
"751.333 708 OFFCURVE",
"762.333 705 OFFCURVE",
"771 701 CURVE SMOOTH",
"775 699 OFFCURVE",
"779.333 696.5 OFFCURVE",
"784 693.5 CURVE SMOOTH",
"788.667 690.5 OFFCURVE",
"793.333 687.333 OFFCURVE",
"798 684 CURVE",
"805.333 678 OFFCURVE",
"811.333 670.667 OFFCURVE",
"816 662 CURVE SMOOTH",
"818.667 657.333 OFFCURVE",
"821 652.333 OFFCURVE",
"823 647 CURVE SMOOTH",
"825 641.667 OFFCURVE",
"827 635.667 OFFCURVE",
"829 629 CURVE SMOOTH",
"833 617 OFFCURVE",
"837 601.333 OFFCURVE",
"841 582 CURVE",
"842.333 573.333 OFFCURVE",
"844 563.667 OFFCURVE",
"846 553 CURVE SMOOTH",
"848 542.333 OFFCURVE",
"849.667 530.667 OFFCURVE",
"851 518 CURVE",
"896 518 LINE",
"882 756 LINE",
"365 756 LINE",
"320.333 753.333 OFFCURVE",
"279.333 741.333 OFFCURVE",
"242 720 CURVE SMOOTH",
"204.667 698.667 OFFCURVE",
"173 671 OFFCURVE",
"147 637 CURVE SMOOTH",
"120.333 602.333 OFFCURVE",
"100 563 OFFCURVE",
"86 519 CURVE SMOOTH",
"71.333 475 OFFCURVE",
"64 428 OFFCURVE",
"64 378 CURVE SMOOTH",
"64 328 OFFCURVE",
"71.667 280 OFFCURVE",
"87 234 CURVE SMOOTH",
"101.667 189.333 OFFCURVE",
"123.333 149.667 OFFCURVE",
"152 115 CURVE SMOOTH",
"179.333 80.333 OFFCURVE",
"212.333 53.667 OFFCURVE",
"251 35 CURVE SMOOTH",
"289.667 15 OFFCURVE",
"332 5.333 OFFCURVE",
"378 6 CURVE SMOOTH",
"896 6 LINE",
"909 249 LINE",
"860 249 LINE",
"858.667 226.333 OFFCURVE",
"856.5 205.833 OFFCURVE",
"853.5 187.5 CURVE SMOOTH",
"850.5 169.167 OFFCURVE",
"847.333 153.333 OFFCURVE",
"844 140 CURVE SMOOTH",
"836 111.333 OFFCURVE",
"825 91.667 OFFCURVE",
"811 81 CURVE SMOOTH",
"805.667 77 OFFCURVE",
"800.667 73.5 OFFCURVE",
"796 70.5 CURVE SMOOTH",
"791.333 67.5 OFFCURVE",
"786.667 65 OFFCURVE",
"782 63 CURVE",
"774 58.333 OFFCURVE",
"762.667 55 OFFCURVE",
"748 53 CURVE",
"740.667 51.667 OFFCURVE",
"732.167 50.667 OFFCURVE",
"722.5 50 CURVE SMOOTH",
"712.833 49.333 OFFCURVE",
"702.333 49 OFFCURVE",
"691 49 CURVE",
"679 48.333 OFFCURVE",
"665 48 OFFCURVE",
"649 48 CURVE SMOOTH",
"633 48 OFFCURVE",
"614.667 48 OFFCURVE",
"594 48 CURVE SMOOTH",
"571.333 48 OFFCURVE",
"556.667 50.333 OFFCURVE",
"550 55 CURVE",
"542.667 59.667 OFFCURVE",
"539.333 71.333 OFFCURVE",
"540 90 CURVE",
"540 366 LINE",
"572 366 OFFCURVE",
"597.333 363.667 OFFCURVE",
"616 359 CURVE SMOOTH",
"634 354.333 OFFCURVE",
"646.333 350 OFFCURVE",
"653 346 CURVE",
"659.667 343.333 OFFCURVE",
"665 333.333 OFFCURVE",
"669 316 CURVE SMOOTH",
"673 300 OFFCURVE",
"677 275.667 OFFCURVE",
"681 243 CURVE",
"727 243 LINE",
"727 534 LINE"
);
},
{
closed = 1;
nodes = (
"161 424 OFFCURVE",
"166 467 OFFCURVE",
"176 507 CURVE SMOOTH",
"186 546.333 OFFCURVE",
"200.667 581.333 OFFCURVE",
"220 612 CURVE SMOOTH",
"229.333 626.667 OFFCURVE",
"239.667 639.833 OFFCURVE",
"251 651.5 CURVE SMOOTH",
"262.333 663.167 OFFCURVE",
"274.667 673.333 OFFCURVE",
"288 682 CURVE SMOOTH",
"315.333 699.333 OFFCURVE",
"345.333 708 OFFCURVE",
"378 708 CURVE SMOOTH",
"408.667 708 OFFCURVE",
"429.333 704.667 OFFCURVE",
"440 698 CURVE SMOOTH",
"451.333 691.333 OFFCURVE",
"457.333 679.333 OFFCURVE",
"458 662 CURVE",
"458 90 LINE",
"456.667 72 OFFCURVE",
"450.333 60.667 OFFCURVE",
"439 56 CURVE SMOOTH",
"426.333 50.667 OFFCURVE",
"406 48 OFFCURVE",
"378 48 CURVE SMOOTH",
"345.333 48 OFFCURVE",
"315.333 56.667 OFFCURVE",
"288 74 CURVE SMOOTH",
"262 90 OFFCURVE",
"239.333 113 OFFCURVE",
"220 143 CURVE SMOOTH",
"200.667 173 OFFCURVE",
"186 208 OFFCURVE",
"176 248 CURVE SMOOTH",
"166 288 OFFCURVE",
"161 331.333 OFFCURVE",
"161 378 CURVE",
"161 378 LINE"
);
}
);
width = 973;
}
);
note = OE;
unicode = 0152;
},
{
glyphname = P;
layers = (
{
layerId = "59D766EC-4D78-4FC8-A1A0-9290DDB4C41B";
paths = (
{
closed = 1;
nodes = (
"213 144 LINE",
"213 321 LINE",
"270 321 LINE SMOOTH",
"280 321 OFFCURVE",
"289.333 321 OFFCURVE",
"298 321 CURVE SMOOTH",
"306.667 321 OFFCURVE",
"314.667 321.333 OFFCURVE",
"322 322 CURVE",
"351.333 323.333 OFFCURVE",
"379.333 329.333 OFFCURVE",
"406 340 CURVE SMOOTH",
"432 351.333 OFFCURVE",
"455 366.333 OFFCURVE",
"475 385 CURVE SMOOTH",
"495.667 404.333 OFFCURVE",
"511.667 427 OFFCURVE",
"523 453 CURVE SMOOTH",
"535 479 OFFCURVE",
"541 508.333 OFFCURVE",
"541 541 CURVE SMOOTH",
"541 574.333 OFFCURVE",
"534.667 604 OFFCURVE",
"522 630 CURVE SMOOTH",
"515.333 643.333 OFFCURVE",
"507.667 655.667 OFFCURVE",
"499 667 CURVE SMOOTH",
"490.333 678.333 OFFCURVE",
"480.333 688.667 OFFCURVE",
"469 698 CURVE SMOOTH",
"447 716 OFFCURVE",
"419.667 730.667 OFFCURVE",
"387 742 CURVE SMOOTH",
"355 752 OFFCURVE",
"320 757 OFFCURVE",
"282 757 CURVE",
"275.333 756.333 OFFCURVE",
"267.333 756 OFFCURVE",
"258 756 CURVE SMOOTH",
"248.667 756 OFFCURVE",
"238.333 756 OFFCURVE",
"227 756 CURVE",
"215.667 755.333 OFFCURVE",
"204.167 755 OFFCURVE",
"192.5 755 CURVE SMOOTH",
"180.833 755 OFFCURVE",
"168.667 755 OFFCURVE",
"156 755 CURVE SMOOTH",
"131.333 754.333 OFFCURVE",
"107.667 754.333 OFFCURVE",
"85 755 CURVE SMOOTH",
"73.667 755 OFFCURVE",
"63.333 755 OFFCURVE",
"54 755 CURVE SMOOTH",
"44.667 755 OFFCURVE",
"36.333 755.333 OFFCURVE",
"29 756 CURVE",
"29 720 LINE",
"49.667 720 OFFCURVE",
"66 719 OFFCURVE",
"78 717 CURVE SMOOTH",
"89.333 715 OFFCURVE",
"98.667 711 OFFCURVE",
"106 705 CURVE SMOOTH",
"112.667 699.667 OFFCURVE",
"117 690.667 OFFCURVE",
"119 678 CURVE SMOOTH",
"121 666 OFFCURVE",
"122 650 OFFCURVE",
"122 630 CURVE SMOOTH",
"122 144 LINE SMOOTH",
"122 132.667 OFFCURVE",
"121.667 122.5 OFFCURVE",
"121 113.5 CURVE SMOOTH",
"120.333 104.5 OFFCURVE",
"119.333 96.667 OFFCURVE",
"118 90 CURVE SMOOTH",
"116.667 83.333 OFFCURVE",
"114.833 77.333 OFFCURVE",
"112.5 72 CURVE SMOOTH",
"110.167 66.667 OFFCURVE",
"107.333 62.333 OFFCURVE",
"104 59 CURVE SMOOTH",
"97.333 52.333 OFFCURVE",
"87.667 48 OFFCURVE",
"75 46 CURVE",
"63.667 43.333 OFFCURVE",
"47.333 42 OFFCURVE",
"26 42 CURVE",
"26 5 LINE",
"35.333 5.667 OFFCURVE",
"45.333 6 OFFCURVE",
"56 6 CURVE SMOOTH",
"66.667 6 OFFCURVE",
"78.333 6.333 OFFCURVE",
"91 7 CURVE",
"103.667 7 OFFCURVE",
"116.333 7 OFFCURVE",
"129 7 CURVE SMOOTH",
"141.667 7 OFFCURVE",
"154.667 7 OFFCURVE",
"168 7 CURVE SMOOTH",
"245 7 LINE",
"257.667 6.333 OFFCURVE",
"269.333 6 OFFCURVE",
"280 6 CURVE SMOOTH",
"290.667 6 OFFCURVE",
"300.333 6 OFFCURVE",
"309 6 CURVE",
"309 42 LINE",
"287 42 OFFCURVE",
"270.667 43.333 OFFCURVE",
"260 46 CURVE",
"246.667 48 OFFCURVE",
"236.667 52.333 OFFCURVE",
"230 59 CURVE SMOOTH",
"223.333 65.667 OFFCURVE",
"219 76 OFFCURVE",
"217 90 CURVE",
"215.667 96.667 OFFCURVE",
"214.667 104.5 OFFCURVE",
"214 113.5 CURVE SMOOTH",
"213.333 122.5 OFFCURVE",
"213 132.667 OFFCURVE",
"213 144 CURVE"
);
},
{
closed = 1;
nodes = (
"213 372 LINE",
"213 710 LINE",
"218.333 711.333 OFFCURVE",
"226.333 712.333 OFFCURVE",
"237 713 CURVE",
"242.333 713.667 OFFCURVE",
"247.333 714 OFFCURVE",
"252 714 CURVE SMOOTH",
"256.667 714 OFFCURVE",
"260.667 714 OFFCURVE",
"264 714 CURVE SMOOTH",
"285.333 714 OFFCURVE",
"307.667 710.333 OFFCURVE",
"331 703 CURVE SMOOTH",
"341.667 699.667 OFFCURVE",
"351.667 695 OFFCURVE",
"361 689 CURVE SMOOTH",
"370.333 683 OFFCURVE",
"379.333 676.333 OFFCURVE",
"388 669 CURVE",
"404 654.333 OFFCURVE",
"417.333 635.667 OFFCURVE",
"428 613 CURVE SMOOTH",
"438 590.333 OFFCURVE",
"443 564 OFFCURVE",
"443 534 CURVE SMOOTH",
"443 483.333 OFFCURVE",
"430.333 443.333 OFFCURVE",
"405 414 CURVE SMOOTH",
"378.333 384 OFFCURVE",
"345.333 368.667 OFFCURVE",
"306 368 CURVE",
"294 367.333 OFFCURVE",
"279.667 367.333 OFFCURVE",
"263 368 CURVE",
"254.333 368.667 OFFCURVE",
"245.833 369.333 OFFCURVE",
"237.5 370 CURVE SMOOTH",
"229.167 370.667 OFFCURVE",
"221 371.333 OFFCURVE",
"213 372 CURVE"
);
}
);
width = 567;
}
);
note = P;
unicode = 0050;
},
{
glyphname = Thorn;
layers = (
{
layerId = "59D766EC-4D78-4FC8-A1A0-9290DDB4C41B";
paths = (
{
closed = 1;
nodes = (
"461 5 LINE",
"462 42 LINE",
"443.333 42 OFFCURVE",
"428.333 43 OFFCURVE",
"417 45 CURVE SMOOTH",
"405.667 47 OFFCURVE",
"397 51 OFFCURVE",
"391 57 CURVE",
"385 62.333 OFFCURVE",
"381.333 69.667 OFFCURVE",
"380 79 CURVE",
"378 88.333 OFFCURVE",
"377 99.667 OFFCURVE",
"377 113 CURVE SMOOTH",
"377 172 LINE",
"536 172 LINE SMOOTH",
"571.333 172 OFFCURVE",
"603 177.333 OFFCURVE",
"631 188 CURVE SMOOTH",
"645 193.333 OFFCURVE",
"658 199.667 OFFCURVE",
"670 207 CURVE SMOOTH",
"682 214.333 OFFCURVE",
"692.667 222.667 OFFCURVE",
"702 232 CURVE SMOOTH",
"721.333 251.333 OFFCURVE",
"736.333 273.667 OFFCURVE",
"747 299 CURVE SMOOTH",
"757.667 323 OFFCURVE",
"763 351 OFFCURVE",
"763 383 CURVE SMOOTH",
"763 413 OFFCURVE",
"757.667 439.667 OFFCURVE",
"747 463 CURVE SMOOTH",
"735.667 487 OFFCURVE",
"720 507.667 OFFCURVE",
"700 525 CURVE SMOOTH",
"679.333 542.333 OFFCURVE",
"654.333 555.333 OFFCURVE",
"625 564 CURVE SMOOTH",
"596.333 572.667 OFFCURVE",
"562.667 577 OFFCURVE",
"524 577 CURVE SMOOTH",
"377 577 LINE",
"377 656 LINE SMOOTH",
"377 680.667 OFFCURVE",
"382.667 697 OFFCURVE",
"394 705 CURVE",
"405.333 712.333 OFFCURVE",
"427.667 716 OFFCURVE",
"461 716 CURVE",
"461 757 LINE",
"210 757 LINE",
"209 716 LINE",
"218.333 716 OFFCURVE",
"226.833 715.833 OFFCURVE",
"234.5 715.5 CURVE SMOOTH",
"242.167 715.167 OFFCURVE",
"248.667 714.667 OFFCURVE",
"254 714 CURVE",
"264 713.333 OFFCURVE",
"272.333 710.667 OFFCURVE",
"279 706 CURVE SMOOTH",
"285 702 OFFCURVE",
"289 696 OFFCURVE",
"291 688 CURVE SMOOTH",
"293 680 OFFCURVE",
"294 669 OFFCURVE",
"294 655 CURVE SMOOTH",
"294 117 LINE SMOOTH",
"294 102.333 OFFCURVE",
"293 90.333 OFFCURVE",
"291 81 CURVE SMOOTH",
"289 71 OFFCURVE",
"285 63.667 OFFCURVE",
"279 59 CURVE",
"273 53 OFFCURVE",
"264.667 49 OFFCURVE",
"254 47 CURVE SMOOTH",
"243.333 45 OFFCURVE",
"228.667 44 OFFCURVE",
"210 44 CURVE",
"210 5 LINE",
"461 5 LINE"
);
},
{
closed = 1;
nodes = (
"377 536 LINE",
"490 536 LINE SMOOTH",
"503.333 536 OFFCURVE",
"516.333 535.333 OFFCURVE",
"529 534 CURVE SMOOTH",
"541.667 532.667 OFFCURVE",
"553.667 530.667 OFFCURVE",
"565 528 CURVE SMOOTH",
"586.333 523.333 OFFCURVE",
"605.333 514.667 OFFCURVE",
"622 502 CURVE SMOOTH",
"637.333 490.667 OFFCURVE",
"649.667 475 OFFCURVE",
"659 455 CURVE SMOOTH",
"667.667 435.667 OFFCURVE",
"672 411 OFFCURVE",
"672 381 CURVE SMOOTH",
"672 354.333 OFFCURVE",
"667.333 330 OFFCURVE",
"658 308 CURVE SMOOTH",
"648.667 286.667 OFFCURVE",
"636 269 OFFCURVE",
"620 255 CURVE",
"603.333 241.667 OFFCURVE",
"584 231.333 OFFCURVE",
"562 224 CURVE SMOOTH",
"541.333 217.333 OFFCURVE",
"517.667 214 OFFCURVE",
"491 214 CURVE SMOOTH",
"377 214 LINE",
"377 536 LINE"
);
}
);
width = 973;
}
);
note = Thorn;
unicode = 00DE;
},
{
glyphname = Q;
layers = (
{
layerId = "59D766EC-4D78-4FC8-A1A0-9290DDB4C41B";
paths = (
{
closed = 1;
nodes = (
"559 8 OFFCURVE",
"599 26 OFFCURVE",
"635 52 CURVE SMOOTH",
"671.667 77.333 OFFCURVE",
"702.333 107.333 OFFCURVE",
"727 142 CURVE SMOOTH",
"752.333 177.333 OFFCURVE",
"772 216 OFFCURVE",
"786 258 CURVE SMOOTH",
"799.333 300 OFFCURVE",
"806 342.333 OFFCURVE",
"806 385 CURVE SMOOTH",
"806 435.667 OFFCURVE",
"796.333 485 OFFCURVE",
"777 533 CURVE SMOOTH",
"758.333 579 OFFCURVE",
"731.667 620.333 OFFCURVE",
"697 657 CURVE SMOOTH",
"680.333 674.333 OFFCURVE",
"662.333 690.167 OFFCURVE",
"643 704.5 CURVE SMOOTH",
"623.667 718.833 OFFCURVE",
"602.667 731.333 OFFCURVE",
"580 742 CURVE SMOOTH",
"534 763.333 OFFCURVE",
"486 774 OFFCURVE",
"436 774 CURVE SMOOTH",
"379.333 774 OFFCURVE",
"328.333 762.667 OFFCURVE",
"283 740 CURVE SMOOTH",
"259.667 728.667 OFFCURVE",
"238.167 715.333 OFFCURVE",
"218.5 700 CURVE SMOOTH",
"198.833 684.667 OFFCURVE",
"180.667 667.667 OFFCURVE",
"164 649 CURVE SMOOTH",
"147.333 630.333 OFFCURVE",
"132.833 610.333 OFFCURVE",
"120.5 589 CURVE SMOOTH",
"108.167 567.667 OFFCURVE",
"97.333 545.333 OFFCURVE",
"88 522 CURVE SMOOTH",
"70 475.333 OFFCURVE",
"61 427 OFFCURVE",
"61 377 CURVE SMOOTH",
"61 328.333 OFFCURVE",
"70 281.333 OFFCURVE",
"88 236 CURVE SMOOTH",
"105.333 191.333 OFFCURVE",
"129.333 151.333 OFFCURVE",
"160 116 CURVE SMOOTH",
"175.333 98.667 OFFCURVE",
"192.167 83 OFFCURVE",
"210.5 69 CURVE SMOOTH",
"228.833 55 OFFCURVE",
"248.333 42.333 OFFCURVE",
"269 31 CURVE SMOOTH",
"309.667 8.333 OFFCURVE",
"354.333 -4.667 OFFCURVE",
"403 -8 CURVE",
"426.333 -40.667 OFFCURVE",
"453.333 -67.667 OFFCURVE",
"484 -89 CURVE SMOOTH",
"499.333 -99.667 OFFCURVE",
"515.833 -108.833 OFFCURVE",
"533.5 -116.5 CURVE SMOOTH",
"551.167 -124.167 OFFCURVE",
"569.333 -130.667 OFFCURVE",
"588 -136 CURVE",
"624.667 -144.667 OFFCURVE",
"664 -149.667 OFFCURVE",
"706 -151 CURVE SMOOTH",
"726.667 -151 OFFCURVE",
"747.667 -150 OFFCURVE",
"769 -148 CURVE SMOOTH",
"790.333 -146 OFFCURVE",
"811.667 -142.667 OFFCURVE",
"833 -138 CURVE",
"833 -103 LINE",
"754.333 -110.333 OFFCURVE",
"690 -106 OFFCURVE",
"640 -90 CURVE SMOOTH",
"588 -72.667 OFFCURVE",
"546.333 -43.333 OFFCURVE",
"515 -2 CURVE",
"515 -2 LINE"
);
},
{
closed = 1;
nodes = (
"701 308.333 OFFCURVE",
"695.333 265 OFFCURVE",
"684 225 CURVE SMOOTH",
"672 185.667 OFFCURVE",
"655 151.333 OFFCURVE",
"633 122 CURVE SMOOTH",
"611 93.333 OFFCURVE",
"584.333 71.333 OFFCURVE",
"553 56 CURVE SMOOTH",
"521 40 OFFCURVE",
"485 32 OFFCURVE",
"445 32 CURVE SMOOTH",
"398.333 32 OFFCURVE",
"357.333 44 OFFCURVE",
"322 68 CURVE SMOOTH",
"286 92.667 OFFCURVE",
"256.667 123.333 OFFCURVE",
"234 160 CURVE SMOOTH",
"222.667 178.667 OFFCURVE",
"212.5 198 OFFCURVE",
"203.5 218 CURVE SMOOTH",
"194.5 238 OFFCURVE",
"187.333 259.333 OFFCURVE",
"182 282 CURVE SMOOTH",
"176.667 304 OFFCURVE",
"172.5 325.5 OFFCURVE",
"169.5 346.5 CURVE SMOOTH",
"166.5 367.5 OFFCURVE",
"165 388 OFFCURVE",
"165 408 CURVE SMOOTH",
"165 456 OFFCURVE",
"171.333 499 OFFCURVE",
"184 537 CURVE SMOOTH",
"196 575 OFFCURVE",
"213.667 609 OFFCURVE",
"237 639 CURVE SMOOTH",
"260.333 667 OFFCURVE",
"287.667 689 OFFCURVE",
"319 705 CURVE SMOOTH",
"350.333 721 OFFCURVE",
"385 729 OFFCURVE",
"423 729 CURVE SMOOTH",
"470.333 729 OFFCURVE",
"511.333 717 OFFCURVE",
"546 693 CURVE SMOOTH",
"580.667 668.333 OFFCURVE",
"609.333 637.667 OFFCURVE",
"632 601 CURVE SMOOTH",
"656 562.333 OFFCURVE",
"673.333 522 OFFCURVE",
"684 480 CURVE SMOOTH",
"695.333 434.667 OFFCURVE",
"701 393 OFFCURVE",
"701 355 CURVE",
"701 355 LINE"
);
}
);
width = 865;
}
);
note = Q;
unicode = 0051;
},
{
glyphname = R;
layers = (
{
layerId = "59D766EC-4D78-4FC8-A1A0-9290DDB4C41B";
paths = (
{
closed = 1;
nodes = (
"224 356 LINE",
"334 356 LINE",
"388 272 LINE SMOOTH",
"398 256.667 OFFCURVE",
"408 241.167 OFFCURVE",
"418 225.5 CURVE SMOOTH",
"428 209.833 OFFCURVE",
"438.333 194.333 OFFCURVE",
"449 179 CURVE SMOOTH",
"459.667 163.667 OFFCURVE",
"470.167 148.333 OFFCURVE",
"480.5 133 CURVE SMOOTH",
"490.833 117.667 OFFCURVE",
"501.333 102.333 OFFCURVE",
"512 87 CURVE SMOOTH",
"522.667 72.333 OFFCURVE",
"532.833 58.167 OFFCURVE",
"542.5 44.5 CURVE SMOOTH",
"552.167 30.833 OFFCURVE",
"561.667 17.667 OFFCURVE",
"571 5 CURVE",
"581.667 5.667 OFFCURVE",
"593.5 6.167 OFFCURVE",
"606.5 6.5 CURVE SMOOTH",
"619.5 6.833 OFFCURVE",
"633.667 7 OFFCURVE",
"649 7 CURVE SMOOTH",
"664.333 7 OFFCURVE",
"678.833 6.833 OFFCURVE",
"692.5 6.5 CURVE SMOOTH",
"706.167 6.167 OFFCURVE",
"719 5.667 OFFCURVE",
"731 5 CURVE",
"731 42 LINE",
"703 42 OFFCURVE",
"679.333 49 OFFCURVE",
"660 63 CURVE SMOOTH",
"640 77.667 OFFCURVE",
"623.333 93.667 OFFCURVE",
"610 111 CURVE",
"603.333 118.333 OFFCURVE",
"596.5 126.5 OFFCURVE",
"589.5 135.5 CURVE SMOOTH",
"582.5 144.5 OFFCURVE",
"575 154.333 OFFCURVE",
"567 165 CURVE",
"558.333 175.667 OFFCURVE",
"550 186.667 OFFCURVE",
"542 198 CURVE SMOOTH",
"534 209.333 OFFCURVE",
"525.667 221.333 OFFCURVE",
"517 234 CURVE SMOOTH",
"508.333 246 OFFCURVE",
"499.833 258.167 OFFCURVE",
"491.5 270.5 CURVE SMOOTH",
"483.167 282.833 OFFCURVE",
"475 295.333 OFFCURVE",
"467 308 CURVE",
"458.333 320.667 OFFCURVE",
"450.5 332.667 OFFCURVE",
"443.5 344 CURVE SMOOTH",
"436.5 355.333 OFFCURVE",
"430 366.333 OFFCURVE",
"424 377 CURVE",
"433.333 379.667 OFFCURVE",
"442.5 383.167 OFFCURVE",
"451.5 387.5 CURVE SMOOTH",
"460.5 391.833 OFFCURVE",
"469.333 396.667 OFFCURVE",
"478 402 CURVE SMOOTH",
"496 413.333 OFFCURVE",
"511.333 427 OFFCURVE",
"524 443 CURVE SMOOTH",
"537.333 459.667 OFFCURVE",
"548.333 478 OFFCURVE",
"557 498 CURVE",
"565 519.333 OFFCURVE",
"569 541.667 OFFCURVE",
"569 565 CURVE SMOOTH",
"569 584.333 OFFCURVE",
"565.667 605 OFFCURVE",
"559 627 CURVE SMOOTH",
"552.333 648.333 OFFCURVE",
"540 669 OFFCURVE",
"522 689 CURVE SMOOTH",
"504 709 OFFCURVE",
"480 725.333 OFFCURVE",
"450 738 CURVE SMOOTH",
"420 750.667 OFFCURVE",
"381 757 OFFCURVE",
"333 757 CURVE",
"324.333 756.333 OFFCURVE",
"314.333 756 OFFCURVE",
"303 756 CURVE SMOOTH",
"291.667 756 OFFCURVE",
"279.333 756 OFFCURVE",
"266 756 CURVE",
"252.667 755.333 OFFCURVE",
"239 755 OFFCURVE",
"225 755 CURVE SMOOTH",
"211 755 OFFCURVE",
"196.667 755 OFFCURVE",
"182 755 CURVE SMOOTH",
"168 755 OFFCURVE",
"154.333 755 OFFCURVE",
"141 755 CURVE SMOOTH",
"127.667 755 OFFCURVE",
"114.333 755.333 OFFCURVE",
"101 756 CURVE",
"88.333 756 OFFCURVE",
"76.667 756 OFFCURVE",
"66 756 CURVE SMOOTH",
"55.333 756 OFFCURVE",
"46 756.333 OFFCURVE",
"38 757 CURVE",
"38 720 LINE",
"48 719.333 OFFCURVE",
"57 718.833 OFFCURVE",
"65 718.5 CURVE SMOOTH",
"73 718.167 OFFCURVE",
"80.333 717.333 OFFCURVE",
"87 716 CURVE SMOOTH",
"98.333 714 OFFCURVE",
"107.667 710 OFFCURVE",
"115 704 CURVE",
"121 698 OFFCURVE",
"125.667 688.667 OFFCURVE",
"129 676 CURVE",
"130.333 670 OFFCURVE",
"131.333 663 OFFCURVE",
"132 655 CURVE SMOOTH",
"132.667 647 OFFCURVE",
"133 638 OFFCURVE",
"133 628 CURVE SMOOTH",
"133 143 LINE SMOOTH",
"133 119.667 OFFCURVE",
"132 101.333 OFFCURVE",
"130 88 CURVE",
"128.667 81.333 OFFCURVE",
"126.833 75.333 OFFCURVE",
"124.5 70 CURVE SMOOTH",
"122.167 64.667 OFFCURVE",
"119.333 60.333 OFFCURVE",
"116 57 CURVE SMOOTH",
"109.333 50.333 OFFCURVE",
"99.667 46 OFFCURVE",
"87 44 CURVE SMOOTH",
"74.333 42 OFFCURVE",
"58 41 OFFCURVE",
"38 41 CURVE",
"38 5 LINE",
"44.667 5.667 OFFCURVE",
"52.833 6 OFFCURVE",
"62.5 6 CURVE SMOOTH",
"72.167 6 OFFCURVE",
"83.333 6.333 OFFCURVE",
"96 7 CURVE",
"109.333 7 OFFCURVE",
"122.667 7 OFFCURVE",
"136 7 CURVE SMOOTH",
"149.333 7 OFFCURVE",
"163.333 7 OFFCURVE",
"178 7 CURVE SMOOTH",
"262 7 LINE",
"275.333 6.333 OFFCURVE",
"286.833 6 OFFCURVE",
"296.5 6 CURVE SMOOTH",
"306.167 6 OFFCURVE",
"314.333 5.667 OFFCURVE",
"321 5 CURVE",
"321 42 LINE",
"310.333 42 OFFCURVE",
"300.833 42.333 OFFCURVE",
"292.5 43 CURVE SMOOTH",
"284.167 43.667 OFFCURVE",
"276.667 44.667 OFFCURVE",
"270 46 CURVE",
"256.667 49.333 OFFCURVE",
"246.667 54.667 OFFCURVE",
"240 62 CURVE",
"233.333 68.667 OFFCURVE",
"229 79 OFFCURVE",
"227 93 CURVE SMOOTH",
"225 106.333 OFFCURVE",
"224 123 OFFCURVE",
"224 143 CURVE SMOOTH",
"224 356 LINE"
);
},
{
closed = 1;
nodes = (
"224 403 LINE",
"224 711 LINE",
"229.333 711.667 OFFCURVE",
"234.5 712.167 OFFCURVE",
"239.5 712.5 CURVE SMOOTH",
"244.5 712.833 OFFCURVE",
"249.667 713.333 OFFCURVE",
"255 714 CURVE",
"293 714 LINE SMOOTH",
"359 714 OFFCURVE",
"405.333 699 OFFCURVE",
"432 669 CURVE SMOOTH",
"458 639 OFFCURVE",
"471 601.667 OFFCURVE",
"471 557 CURVE SMOOTH",
"471 538.333 OFFCURVE",
"468 520 OFFCURVE",
"462 502 CURVE SMOOTH",
"454.667 482 OFFCURVE",
"444 465 OFFCURVE",
"430 451 CURVE SMOOTH",
"415.333 436.333 OFFCURVE",
"396.333 424.333 OFFCURVE",
"373 415 CURVE SMOOTH",
"348.333 405.667 OFFCURVE",
"319.333 401 OFFCURVE",
"286 401 CURVE SMOOTH",
"268 401 LINE SMOOTH",
"264.667 401 OFFCURVE",
"261.167 401 OFFCURVE",
"257.5 401 CURVE SMOOTH",
"253.833 401 OFFCURVE",
"250.333 401.333 OFFCURVE",
"247 402 CURVE",
"244.333 402 OFFCURVE",
"241.667 402 OFFCURVE",
"239 402 CURVE SMOOTH",
"236.333 402 OFFCURVE",
"233.667 402.333 OFFCURVE",
"231 403 CURVE",
"224 403 LINE"
);
}
);
width = 745;
}
);
note = R;
unicode = 0052;
},
{
glyphname = S;
layers = (
{
layerId = "59D766EC-4D78-4FC8-A1A0-9290DDB4C41B";
paths = (
{
closed = 1;
nodes = (
"44 191 LINE",
"68 23 LINE",
"95.333 10.333 OFFCURVE",
"121 1.667 OFFCURVE",
"145 -3 CURVE SMOOTH",
"157.667 -5.667 OFFCURVE",
"170.833 -7.667 OFFCURVE",
"184.5 -9 CURVE SMOOTH",
"198.167 -10.333 OFFCURVE",
"212.667 -11 OFFCURVE",
"228 -11 CURVE SMOOTH",
"257.333 -11 OFFCURVE",
"287.667 -6.333 OFFCURVE",
"319 3 CURVE SMOOTH",
"349.667 12.333 OFFCURVE",
"376.333 26.333 OFFCURVE",
"399 45 CURVE SMOOTH",
"422.333 63 OFFCURVE",
"441.333 86 OFFCURVE",
"456 114 CURVE SMOOTH",
"470.667 140.667 OFFCURVE",
"478 172.667 OFFCURVE",
"478 210 CURVE SMOOTH",
"478 237.333 OFFCURVE",
"473.333 262 OFFCURVE",
"464 284 CURVE",
"454 305.333 OFFCURVE",
"441 323.333 OFFCURVE",
"425 338 CURVE",
"409.667 353.333 OFFCURVE",
"392 367 OFFCURVE",
"372 379 CURVE",
"312 412 LINE",
"301.333 417.333 OFFCURVE",
"290.833 422.667 OFFCURVE",
"280.5 428 CURVE SMOOTH",
"270.167 433.333 OFFCURVE",
"260 439 OFFCURVE",
"250 445 CURVE SMOOTH",
"239.333 451 OFFCURVE",
"229.5 457.5 OFFCURVE",
"220.5 464.5 CURVE SMOOTH",
"211.5 471.5 OFFCURVE",
"203 478.667 OFFCURVE",
"195 486 CURVE SMOOTH",
"178.333 501.333 OFFCURVE",
"165.333 518 OFFCURVE",
"156 536 CURVE SMOOTH",
"146 554 OFFCURVE",
"141 574.667 OFFCURVE",
"141 598 CURVE SMOOTH",
"141 634.667 OFFCURVE",
"152.667 665.667 OFFCURVE",
"176 691 CURVE SMOOTH",
"199.333 716.333 OFFCURVE",
"233.667 729 OFFCURVE",
"279 729 CURVE SMOOTH",
"314.333 729 OFFCURVE",
"341.667 719.333 OFFCURVE",
"361 700 CURVE SMOOTH",
"379 681.333 OFFCURVE",
"391 652 OFFCURVE",
"397 612 CURVE",
"440 612 LINE",
"421 758 LINE",
"415.667 758.667 OFFCURVE",
"410.333 759.5 OFFCURVE",
"405 760.5 CURVE SMOOTH",
"399.667 761.5 OFFCURVE",
"394.333 762.333 OFFCURVE",
"389 763 CURVE",
"384.333 764.333 OFFCURVE",
"379.5 765.333 OFFCURVE",
"374.5 766 CURVE SMOOTH",
"369.5 766.667 OFFCURVE",
"364.333 767.333 OFFCURVE",
"359 768 CURVE SMOOTH",
"354.333 768.667 OFFCURVE",
"349.333 769.333 OFFCURVE",
"344 770 CURVE SMOOTH",
"338.667 770.667 OFFCURVE",
"333.333 771.333 OFFCURVE",
"328 772 CURVE SMOOTH",
"322.667 772.667 OFFCURVE",
"317.167 773.167 OFFCURVE",
"311.5 773.5 CURVE SMOOTH",
"305.833 773.833 OFFCURVE",
"300 774 OFFCURVE",
"294 774 CURVE SMOOTH",
"260.667 774 OFFCURVE",
"230.667 769.667 OFFCURVE",
"204 761 CURVE SMOOTH",
"190 756.333 OFFCURVE",
"177 750.667 OFFCURVE",
"165 744 CURVE SMOOTH",
"153 737.333 OFFCURVE",
"142 729.667 OFFCURVE",
"132 721 CURVE SMOOTH",
"110.667 703 OFFCURVE",
"94.667 680.667 OFFCURVE",
"84 654 CURVE",
"72 627.333 OFFCURVE",
"66 596 OFFCURVE",
"66 560 CURVE SMOOTH",
"66 528.667 OFFCURVE",
"71.333 502.333 OFFCURVE",
"82 481 CURVE SMOOTH",
"87.333 469.667 OFFCURVE",
"93.333 459 OFFCURVE",
"100 449 CURVE SMOOTH",
"106.667 439 OFFCURVE",
"114.333 429.667 OFFCURVE",
"123 421 CURVE SMOOTH",
"140.333 403.667 OFFCURVE",
"159 389.333 OFFCURVE",
"179 378 CURVE",
"189.667 371.333 OFFCURVE",
"200 365.167 OFFCURVE",
"210 359.5 CURVE SMOOTH",
"220 353.833 OFFCURVE",
"230 348.333 OFFCURVE",
"240 343 CURVE SMOOTH",
"249.333 337.667 OFFCURVE",
"258.833 332.167 OFFCURVE",
"268.5 326.5 CURVE SMOOTH",
"278.167 320.833 OFFCURVE",
"287.333 315.333 OFFCURVE",
"296 310 CURVE SMOOTH",
"305.333 304.667 OFFCURVE",
"314 299.167 OFFCURVE",
"322 293.5 CURVE SMOOTH",
"330 287.833 OFFCURVE",
"337.333 281.667 OFFCURVE",
"344 275 CURVE SMOOTH",
"357.333 262.333 OFFCURVE",
"368.667 247.333 OFFCURVE",
"378 230 CURVE SMOOTH",
"386.667 213.333 OFFCURVE",
"391 193 OFFCURVE",
"391 169 CURVE SMOOTH",
"391 129.667 OFFCURVE",
"376.333 97 OFFCURVE",
"347 71 CURVE SMOOTH",
"318.333 45 OFFCURVE",
"280.667 32 OFFCURVE",
"234 32 CURVE SMOOTH",
"210 32 OFFCURVE",
"189.667 36.333 OFFCURVE",
"173 45 CURVE SMOOTH",
"155 54.333 OFFCURVE",
"141 66 OFFCURVE",
"131 80 CURVE SMOOTH",
"120.333 95.333 OFFCURVE",
"111.333 112.333 OFFCURVE",
"104 131 CURVE SMOOTH",
"100.667 140.333 OFFCURVE",
"97.5 150 OFFCURVE",
"94.5 160 CURVE SMOOTH",
"91.5 170 OFFCURVE",
"89 180.333 OFFCURVE",
"87 191 CURVE",
"44 191 LINE"
);
}
);
width = 520;
}
);
note = S;
unicode = 0053;
},
{
glyphname = T;
layers = (
{
layerId = "59D766EC-4D78-4FC8-A1A0-9290DDB4C41B";
paths = (
{
closed = 1;
nodes = (
"660 609 LINE",
"669 758 LINE",
"647.667 757.333 OFFCURVE",
"624.667 756.667 OFFCURVE",
"600 756 CURVE SMOOTH",
"575.333 755.333 OFFCURVE",
"549 754.667 OFFCURVE",
"521 754 CURVE SMOOTH",
"492.333 753.333 OFFCURVE",
"463.667 753 OFFCURVE",
"435 753 CURVE SMOOTH",
"406.333 753 OFFCURVE",
"377.333 753 OFFCURVE",
"348 753 CURVE SMOOTH",
"318.667 753 OFFCURVE",
"289.667 753 OFFCURVE",
"261 753 CURVE SMOOTH",
"232.333 753 OFFCURVE",
"204 753.333 OFFCURVE",
"176 754 CURVE SMOOTH",
"147.333 754.667 OFFCURVE",
"120.833 755.333 OFFCURVE",
"96.5 756 CURVE SMOOTH",
"72.167 756.667 OFFCURVE",
"49.333 757.333 OFFCURVE",
"28 758 CURVE",
"14 609 LINE",
"58 609 LINE",
"63.333 629.667 OFFCURVE",
"68.333 646.333 OFFCURVE",
"73 659 CURVE SMOOTH",
"77.667 671 OFFCURVE",
"84.667 680.667 OFFCURVE",
"94 688 CURVE SMOOTH",
"103.333 695.333 OFFCURVE",
"114.667 700.333 OFFCURVE",
"128 703 CURVE SMOOTH",
"135.333 704.333 OFFCURVE",
"143.5 705.333 OFFCURVE",
"152.5 706 CURVE SMOOTH",
"161.5 706.667 OFFCURVE",
"171.333 707 OFFCURVE",
"182 707 CURVE SMOOTH",
"297 707 LINE",
"297 144 LINE SMOOTH",
"297 120.667 OFFCURVE",
"295.667 103.333 OFFCURVE",
"293 92 CURVE SMOOTH",
"291.667 85.333 OFFCURVE",
"289.833 79.333 OFFCURVE",
"287.5 74 CURVE SMOOTH",
"285.167 68.667 OFFCURVE",
"282.333 64.333 OFFCURVE",
"279 61 CURVE SMOOTH",
"272.333 54.333 OFFCURVE",
"262.667 49.333 OFFCURVE",
"250 46 CURVE",
"243.333 44.667 OFFCURVE",
"236 43.667 OFFCURVE",
"228 43 CURVE SMOOTH",
"220 42.333 OFFCURVE",
"211.333 42 OFFCURVE",
"202 42 CURVE",
"202 5 LINE",
"210 5.667 OFFCURVE",
"219.167 6 OFFCURVE",
"229.5 6 CURVE SMOOTH",
"239.833 6 OFFCURVE",
"251.333 6.333 OFFCURVE",
"264 7 CURVE",
"276.667 7 OFFCURVE",
"289.5 7 OFFCURVE",
"302.5 7 CURVE SMOOTH",
"315.5 7 OFFCURVE",
"328.667 7 OFFCURVE",
"342 7 CURVE SMOOTH",
"421 7 LINE",
"433.667 6.333 OFFCURVE",
"445.167 6 OFFCURVE",
"455.5 6 CURVE SMOOTH",
"465.833 6 OFFCURVE",
"475.333 6 OFFCURVE",
"484 6 CURVE",
"484 42 LINE",
"462.667 42 OFFCURVE",
"446.333 43.333 OFFCURVE",
"435 46 CURVE SMOOTH",
"423 48.667 OFFCURVE",
"413.333 53.667 OFFCURVE",
"406 61 CURVE SMOOTH",
"398.667 68.333 OFFCURVE",
"394 78.667 OFFCURVE",
"392 92 CURVE",
"389.333 103.333 OFFCURVE",
"388 120.667 OFFCURVE",
"388 144 CURVE SMOOTH",
"388 707 LINE",
"524 707 LINE SMOOTH",
"546 707 OFFCURVE",
"562.333 705.667 OFFCURVE",
"573 703 CURVE SMOOTH",
"585 700.333 OFFCURVE",
"594 694.667 OFFCURVE",
"600 686 CURVE",
"606.667 679.333 OFFCURVE",
"611 669.333 OFFCURVE",
"613 656 CURVE",
"614.333 649.333 OFFCURVE",
"615.167 642.167 OFFCURVE",
"615.5 634.5 CURVE SMOOTH",
"615.833 626.833 OFFCURVE",
"616.333 618.333 OFFCURVE",
"617 609 CURVE",
"660 609 LINE"
);
}
);
width = 685;
}
);
note = T;
unicode = 0054;
},
{
glyphname = Tbar;
layers = (
{
layerId = "59D766EC-4D78-4FC8-A1A0-9290DDB4C41B";
paths = (
{
closed = 1;
nodes = (
"686 394 LINE",
"530 394 LINE",
"530 717 LINE",
"603 717 LINE SMOOTH",
"618.333 717 OFFCURVE",
"632.167 716.5 OFFCURVE",
"644.5 715.5 CURVE SMOOTH",
"656.833 714.5 OFFCURVE",
"667.667 713.333 OFFCURVE",
"677 712 CURVE SMOOTH",
"686.333 710.667 OFFCURVE",
"694.833 708.333 OFFCURVE",
"702.5 705 CURVE SMOOTH",
"710.167 701.667 OFFCURVE",
"717.333 697.667 OFFCURVE",
"724 693 CURVE",
"736.667 682.333 OFFCURVE",
"746.333 668.333 OFFCURVE",
"753 651 CURVE SMOOTH",
"759.667 633.667 OFFCURVE",
"766.667 610 OFFCURVE",
"774 580 CURVE",
"814 580 LINE",
"809 757 LINE",
"165 757 LINE",
"159 580 LINE",
"199 580 LINE",
"201.667 594.667 OFFCURVE",
"204.667 608 OFFCURVE",
"208 620 CURVE SMOOTH",
"211.333 632 OFFCURVE",
"214.667 642.333 OFFCURVE",
"218 651 CURVE SMOOTH",
"225.333 669 OFFCURVE",
"235.333 683 OFFCURVE",
"248 693 CURVE",
"254.667 697.667 OFFCURVE",
"262 701.667 OFFCURVE",
"270 705 CURVE SMOOTH",
"278 708.333 OFFCURVE",
"286.667 710.667 OFFCURVE",
"296 712 CURVE SMOOTH",
"305.333 713.333 OFFCURVE",
"315.833 714.5 OFFCURVE",
"327.5 715.5 CURVE SMOOTH",
"339.167 716.5 OFFCURVE",
"352.333 717 OFFCURVE",
"367 717 CURVE SMOOTH",
"440 717 LINE",
"440 394 LINE",
"290 394 LINE",
"290 349 LINE",
"440 349 LINE",
"440 144 LINE SMOOTH",
"440 120.667 OFFCURVE",
"438.667 103.333 OFFCURVE",
"436 92 CURVE SMOOTH",
"433.333 79.333 OFFCURVE",
"428 69.667 OFFCURVE",
"420 63 CURVE SMOOTH",
"410.667 55.667 OFFCURVE",
"399 50.667 OFFCURVE",
"385 48 CURVE SMOOTH",
"369.667 44.667 OFFCURVE",
"350.333 41.667 OFFCURVE",
"327 39 CURVE",
"327 7 LINE",
"646 7 LINE",
"646 41 LINE",
"622.667 41.667 OFFCURVE",
"603.333 43.667 OFFCURVE",
"588 47 CURVE SMOOTH",
"572 50.333 OFFCURVE",
"560 55 OFFCURVE",
"552 61 CURVE",
"544 67.667 OFFCURVE",
"538.333 77.667 OFFCURVE",
"535 91 CURVE",
"533.667 97.667 OFFCURVE",
"532.5 105.333 OFFCURVE",
"531.5 114 CURVE SMOOTH",
"530.5 122.667 OFFCURVE",
"530 132.333 OFFCURVE",
"530 143 CURVE SMOOTH",
"530 349 LINE",
"686 349 LINE",
"686 394 LINE"
);
}
);
width = 973;
}
);
note = Tbar;
unicode = 0166;
},
{
glyphname = U;
layers = (
{
layerId = "59D766EC-4D78-4FC8-A1A0-9290DDB4C41B";
paths = (
{
closed = 1;
nodes = (
"736 720 LINE",
"736 759 LINE",
"727.333 758.333 OFFCURVE",
"712.333 757.333 OFFCURVE",
"691 756 CURVE SMOOTH",
"680.333 755.333 OFFCURVE",
"669.5 755 OFFCURVE",
"658.5 755 CURVE SMOOTH",
"647.5 755 OFFCURVE",
"636.333 755 OFFCURVE",
"625 755 CURVE SMOOTH",
"613 755 OFFCURVE",
"601.333 755 OFFCURVE",
"590 755 CURVE SMOOTH",
"578.667 755 OFFCURVE",
"567.667 755.333 OFFCURVE",
"557 756 CURVE",
"546.333 756 OFFCURVE",
"536.833 756.167 OFFCURVE",
"528.5 756.5 CURVE SMOOTH",
"520.167 756.833 OFFCURVE",
"513.333 757.333 OFFCURVE",
"508 758 CURVE",
"508 719 LINE",
"556 716 LINE",
"567.333 714 OFFCURVE",
"576 710 OFFCURVE",
"582 704 CURVE",
"588 696.667 OFFCURVE",
"592 687.333 OFFCURVE",
"594 676 CURVE",
"594.667 670 OFFCURVE",
"595.167 662.833 OFFCURVE",
"595.5 654.5 CURVE SMOOTH",
"595.833 646.167 OFFCURVE",
"596 636.667 OFFCURVE",
"596 626 CURVE SMOOTH",
"596 247 LINE SMOOTH",
"596 184.333 OFFCURVE",
"578.667 134.667 OFFCURVE",
"544 98 CURVE SMOOTH",
"508.667 60.667 OFFCURVE",
"464.333 42 OFFCURVE",
"411 42 CURVE SMOOTH",
"337.667 42 OFFCURVE",
"284 61.333 OFFCURVE",
"250 100 CURVE SMOOTH",
"216 139.333 OFFCURVE",
"199 201.667 OFFCURVE",
"199 287 CURVE SMOOTH",
"199 626 LINE SMOOTH",
"199 648 OFFCURVE",
"200.333 664.667 OFFCURVE",
"203 676 CURVE",
"205 688.667 OFFCURVE",
"209.333 697.667 OFFCURVE",
"216 703 CURVE",
"222.667 709.667 OFFCURVE",
"232.667 714 OFFCURVE",
"246 716 CURVE",
"252 717.333 OFFCURVE",
"259 718.167 OFFCURVE",
"267 718.5 CURVE SMOOTH",
"275 718.833 OFFCURVE",
"284.333 719.333 OFFCURVE",
"295 720 CURVE",
"295 758 LINE",
"288.333 757.333 OFFCURVE",
"280 756.833 OFFCURVE",
"270 756.5 CURVE SMOOTH",
"260 756.167 OFFCURVE",
"248.333 756 OFFCURVE",
"235 756 CURVE",
"221.667 755.333 OFFCURVE",
"208.167 755 OFFCURVE",
"194.5 755 CURVE SMOOTH",
"180.833 755 OFFCURVE",
"166.667 755 OFFCURVE",
"152 755 CURVE SMOOTH",
"137.333 755 OFFCURVE",
"123.167 755 OFFCURVE",
"109.5 755 CURVE SMOOTH",
"95.833 755 OFFCURVE",
"82.333 755.333 OFFCURVE",
"69 756 CURVE",
"56.333 756 OFFCURVE",
"45.167 756.167 OFFCURVE",
"35.5 756.5 CURVE SMOOTH",
"25.833 756.833 OFFCURVE",
"18 757.333 OFFCURVE",
"12 758 CURVE",
"12 720 LINE",
"22 719.333 OFFCURVE",
"31 718.833 OFFCURVE",
"39 718.5 CURVE SMOOTH",
"47 718.167 OFFCURVE",
"54.333 717.333 OFFCURVE",
"61 716 CURVE",
"73.667 714 OFFCURVE",
"83.333 709.667 OFFCURVE",
"90 703 CURVE",
"96 697.667 OFFCURVE",
"100.667 688.667 OFFCURVE",
"104 676 CURVE SMOOTH",
"106.667 664.667 OFFCURVE",
"108 648 OFFCURVE",
"108 626 CURVE SMOOTH",
"108 259 LINE SMOOTH",
"108.667 166.333 OFFCURVE",
"134 98.333 OFFCURVE",
"184 55 CURVE SMOOTH",
"233.333 11 OFFCURVE",
"299.667 -11 OFFCURVE",
"383 -11 CURVE SMOOTH",
"405 -11 OFFCURVE",
"425.833 -9.333 OFFCURVE",
"445.5 -6 CURVE SMOOTH",
"465.167 -2.667 OFFCURVE",
"483.333 2.333 OFFCURVE",
"500 9 CURVE SMOOTH",
"516.667 15.667 OFFCURVE",
"532 23.333 OFFCURVE",
"546 32 CURVE SMOOTH",
"560 40.667 OFFCURVE",
"572.667 50.667 OFFCURVE",
"584 62 CURVE SMOOTH",
"607.333 85.333 OFFCURVE",
"625 112.667 OFFCURVE",
"637 144 CURVE SMOOTH",
"648.333 176 OFFCURVE",
"654 210.333 OFFCURVE",
"654 247 CURVE SMOOTH",
"654 629 LINE SMOOTH",
"654 639.667 OFFCURVE",
"654.167 649 OFFCURVE",
"654.5 657 CURVE SMOOTH",
"654.833 665 OFFCURVE",
"655.333 672 OFFCURVE",
"656 678 CURVE",
"656.667 689.333 OFFCURVE",
"660.333 698.667 OFFCURVE",
"667 706 CURVE",
"671.667 712 OFFCURVE",
"680 716 OFFCURVE",
"692 718 CURVE",
"697.333 718.667 OFFCURVE",
"703.667 719.167 OFFCURVE",
"711 719.5 CURVE SMOOTH",
"718.333 719.833 OFFCURVE",
"726.667 720 OFFCURVE",
"736 720 CURVE"
);
}
);
width = 745;
}
);
note = U;
unicode = 0055;
},
{
glyphname = V;
layers = (
{
layerId = "59D766EC-4D78-4FC8-A1A0-9290DDB4C41B";
paths = (
{
closed = 1;
nodes = (
"128 614 LINE",
"370 -11 LINE",
"407 -11 LINE",
"645 623 LINE",
"648.333 633.667 OFFCURVE",
"651.833 643.167 OFFCURVE",
"655.5 651.5 CURVE SMOOTH",
"659.167 659.833 OFFCURVE",
"662.333 667.333 OFFCURVE",
"665 674 CURVE SMOOTH",
"667.667 680.667 OFFCURVE",
"670.667 686.333 OFFCURVE",
"674 691 CURVE SMOOTH",
"677.333 695.667 OFFCURVE",
"680.667 699.667 OFFCURVE",
"684 703 CURVE SMOOTH",
"690 709 OFFCURVE",
"698 713.667 OFFCURVE",
"708 717 CURVE",
"717.333 719 OFFCURVE",
"729 720 OFFCURVE",
"743 720 CURVE",
"743 757 LINE",
"738.333 756.333 OFFCURVE",
"732.667 755.833 OFFCURVE",
"726 755.5 CURVE SMOOTH",
"719.333 755.167 OFFCURVE",
"711.333 755 OFFCURVE",
"702 755 CURVE SMOOTH",
"643 755 LINE SMOOTH",
"632.333 755 OFFCURVE",
"621.833 755 OFFCURVE",
"611.5 755 CURVE SMOOTH",
"601.167 755 OFFCURVE",
"591 755.333 OFFCURVE",
"581 756 CURVE SMOOTH",
"571 756.667 OFFCURVE",
"562 757 OFFCURVE",
"554 757 CURVE SMOOTH",
"546 757 OFFCURVE",
"538.667 757.333 OFFCURVE",
"532 758 CURVE",
"532 719 LINE",
"576 716 LINE",
"586 714 OFFCURVE",
"593.667 710.333 OFFCURVE",
"599 705 CURVE",
"603 699 OFFCURVE",
"604 690.333 OFFCURVE",
"602 679 CURVE",
"601.333 673.667 OFFCURVE",
"599.833 667 OFFCURVE",
"597.5 659 CURVE SMOOTH",
"595.167 651 OFFCURVE",
"592.333 642 OFFCURVE",
"589 632 CURVE SMOOTH",
"404 131 LINE",
"223 622 LINE SMOOTH",
"215.667 642 OFFCURVE",
"210.333 658.667 OFFCURVE",
"207 672 CURVE",
"204.333 684.667 OFFCURVE",
"204.667 694.333 OFFCURVE",
"208 701 CURVE",
"210.667 707 OFFCURVE",
"217.667 711.667 OFFCURVE",
"229 715 CURVE",
"234.333 716.333 OFFCURVE",
"240.833 717.167 OFFCURVE",
"248.5 717.5 CURVE SMOOTH",
"256.167 717.833 OFFCURVE",
"265 718.333 OFFCURVE",
"275 719 CURVE",
"275 758 LINE",
"268.333 757.333 OFFCURVE",
"260.5 757 OFFCURVE",
"251.5 757 CURVE SMOOTH",
"242.5 757 OFFCURVE",
"231.667 757 OFFCURVE",
"219 757 CURVE",
"206.333 756.333 OFFCURVE",
"193.333 756 OFFCURVE",
"180 756 CURVE SMOOTH",
"166.667 756 OFFCURVE",
"153.333 756 OFFCURVE",
"140 756 CURVE SMOOTH",
"61 756 LINE SMOOTH",
"48.333 756 OFFCURVE",
"37.333 756.167 OFFCURVE",
"28 756.5 CURVE SMOOTH",
"18.667 756.833 OFFCURVE",
"11 757.333 OFFCURVE",
"5 758 CURVE",
"5 720 LINE",
"14.333 720 OFFCURVE",
"22.667 719.667 OFFCURVE",
"30 719 CURVE SMOOTH",
"37.333 718.333 OFFCURVE",
"44 717.333 OFFCURVE",
"50 716 CURVE SMOOTH",
"56 714.667 OFFCURVE",
"61.5 712.5 OFFCURVE",
"66.5 709.5 CURVE SMOOTH",
"71.5 706.5 OFFCURVE",
"76.333 703.333 OFFCURVE",
"81 700 CURVE",
"89.667 692 OFFCURVE",
"97.667 681.333 OFFCURVE",
"105 668 CURVE",
"108.333 661.333 OFFCURVE",
"111.833 653.5 OFFCURVE",
"115.5 644.5 CURVE SMOOTH",
"119.167 635.5 OFFCURVE",
"123.333 625.333 OFFCURVE",
"128 614 CURVE"
);
}
);
width = 746;
}
);
note = V;
unicode = 0056;
},
{
glyphname = W;
layers = (
{
layerId = "59D766EC-4D78-4FC8-A1A0-9290DDB4C41B";
paths = (
{
closed = 1;
nodes = (
"415 -11 LINE",
"557 300 LINE",
"689 -11 LINE",
"726 -11 LINE",
"961 625 LINE",
"964.333 635.667 OFFCURVE",
"967.333 645 OFFCURVE",
"970 653 CURVE SMOOTH",
"972.667 661 OFFCURVE",
"975.333 668.333 OFFCURVE",
"978 675 CURVE",
"980.667 681 OFFCURVE",
"983 686.333 OFFCURVE",
"985 691 CURVE SMOOTH",
"987 695.667 OFFCURVE",
"989.333 699.667 OFFCURVE",
"992 703 CURVE SMOOTH",
"994.667 706.333 OFFCURVE",
"997.667 709.167 OFFCURVE",
"1001 711.5 CURVE SMOOTH",
"1004.333 713.833 OFFCURVE",
"1007.667 715.667 OFFCURVE",
"1011 717 CURVE",
"1018.333 719 OFFCURVE",
"1028.333 720 OFFCURVE",
"1041 720 CURVE",
"1041 758 LINE",
"1037.667 757.333 OFFCURVE",
"1033 757 OFFCURVE",
"1027 757 CURVE SMOOTH",
"1021 757 OFFCURVE",
"1013.667 757 OFFCURVE",
"1005 757 CURVE",
"996.333 756.333 OFFCURVE",
"987.333 756 OFFCURVE",
"978 756 CURVE SMOOTH",
"968.667 756 OFFCURVE",
"959.333 756 OFFCURVE",
"950 756 CURVE SMOOTH",
"893 756 LINE SMOOTH",
"883.667 756 OFFCURVE",
"875.5 756.167 OFFCURVE",
"868.5 756.5 CURVE SMOOTH",
"861.5 756.833 OFFCURVE",
"855.667 757.333 OFFCURVE",
"851 758 CURVE",
"851 720 LINE",
"860.333 719.333 OFFCURVE",
"868.5 718.833 OFFCURVE",
"875.5 718.5 CURVE SMOOTH",
"882.5 718.167 OFFCURVE",
"888.667 717.333 OFFCURVE",
"894 716 CURVE",
"904.667 714 OFFCURVE",
"911.333 710 OFFCURVE",
"914 704 CURVE",
"918 697.333 OFFCURVE",
"919 688 OFFCURVE",
"917 676 CURVE",
"914.333 664 OFFCURVE",
"909.333 648 OFFCURVE",
"902 628 CURVE SMOOTH",
"720 134 LINE",
"607 410 LINE",
"709 632 LINE SMOOTH",
"713.667 642.667 OFFCURVE",
"718.833 653 OFFCURVE",
"724.5 663 CURVE SMOOTH",
"730.167 673 OFFCURVE",
"736.333 682.667 OFFCURVE",
"743 692 CURVE SMOOTH",
"755.667 710.667 OFFCURVE",
"775 720 OFFCURVE",
"801 720 CURVE",
"801 758 LINE",
"797 757.333 OFFCURVE",
"791.833 757 OFFCURVE",
"785.5 757 CURVE SMOOTH",
"779.167 757 OFFCURVE",
"771.333 757 OFFCURVE",
"762 757 CURVE",
"752.667 756.333 OFFCURVE",
"743.167 756 OFFCURVE",
"733.5 756 CURVE SMOOTH",
"723.833 756 OFFCURVE",
"713.667 756 OFFCURVE",
"703 756 CURVE SMOOTH",
"642 756 LINE SMOOTH",
"632.667 756 OFFCURVE",
"624.333 756.167 OFFCURVE",
"617 756.5 CURVE SMOOTH",
"609.667 756.833 OFFCURVE",
"603.333 757.333 OFFCURVE",
"598 758 CURVE",
"598 720 LINE",
"636 720 OFFCURVE",
"658 714.333 OFFCURVE",
"664 703 CURVE",
"669.333 691 OFFCURVE",
"664.667 668.333 OFFCURVE",
"650 635 CURVE SMOOTH",
"579 480 LINE",
"513 640 LINE SMOOTH",
"498.333 674 OFFCURVE",
"493.667 696 OFFCURVE",
"499 706 CURVE SMOOTH",
"504.333 715.333 OFFCURVE",
"521.667 720 OFFCURVE",
"551 720 CURVE",
"551 758 LINE",
"546.333 757.333 OFFCURVE",
"540.167 756.833 OFFCURVE",
"532.5 756.5 CURVE SMOOTH",
"524.833 756.167 OFFCURVE",
"515.333 756 OFFCURVE",
"504 756 CURVE",
"493.333 755.333 OFFCURVE",
"482 755 OFFCURVE",
"470 755 CURVE SMOOTH",
"458 755 OFFCURVE",
"445.667 755 OFFCURVE",
"433 755 CURVE SMOOTH",
"420.333 755 OFFCURVE",
"407.833 755 OFFCURVE",
"395.5 755 CURVE SMOOTH",
"383.167 755 OFFCURVE",
"371.333 755.333 OFFCURVE",
"360 756 CURVE",
"348 756 OFFCURVE",
"337.5 756.167 OFFCURVE",
"328.5 756.5 CURVE SMOOTH",
"319.5 756.833 OFFCURVE",
"311.667 757.333 OFFCURVE",
"305 758 CURVE",
"305 720 LINE",
"339.667 720 OFFCURVE",
"363.667 713.667 OFFCURVE",
"377 701 CURVE SMOOTH",
"390.333 688.333 OFFCURVE",
"403.333 666.333 OFFCURVE",
"416 635 CURVE SMOOTH",
"528 369 LINE",
"416 123 LINE",
"211 643 LINE SMOOTH",
"197 675.667 OFFCURVE",
"193.667 696.667 OFFCURVE",
"201 706 CURVE SMOOTH",
"208.333 715.333 OFFCURVE",
"228 720 OFFCURVE",
"260 720 CURVE",
"260 758 LINE",
"255.333 757.333 OFFCURVE",
"248.667 757 OFFCURVE",
"240 757 CURVE SMOOTH",
"231.333 757 OFFCURVE",
"221.333 757 OFFCURVE",
"210 757 CURVE",
"198 756.333 OFFCURVE",
"185.667 756 OFFCURVE",
"173 756 CURVE SMOOTH",
"160.333 756 OFFCURVE",
"147.333 756 OFFCURVE",
"134 756 CURVE SMOOTH",
"57 756 LINE SMOOTH",
"44.333 756 OFFCURVE",
"33.5 756.167 OFFCURVE",
"24.5 756.5 CURVE SMOOTH",
"15.5 756.833 OFFCURVE",
"8.333 757.333 OFFCURVE",
"3 758 CURVE",
"3 720 LINE",
"21 720 OFFCURVE",
"36 718.333 OFFCURVE",
"48 715 CURVE SMOOTH",
"58.667 712.333 OFFCURVE",
"68.333 707.667 OFFCURVE",
"77 701 CURVE",
"80.333 697.667 OFFCURVE",
"83.667 693.833 OFFCURVE",
"87 689.5 CURVE SMOOTH",
"90.333 685.167 OFFCURVE",
"93.333 680.333 OFFCURVE",
"96 675 CURVE SMOOTH",
"114 637 LINE",
"377 -11 LINE",
"415 -11 LINE"
);
}
);
width = 1044;
}
);
note = W;
unicode = 0057;
},
{
glyphname = X;
layers = (
{
layerId = "59D766EC-4D78-4FC8-A1A0-9290DDB4C41B";
paths = (
{
closed = 1;
nodes = (
"238 130 LINE",
"389 332 LINE",
"567 96 LINE SMOOTH",
"584.333 72 OFFCURVE",
"590.667 56.667 OFFCURVE",
"586 50 CURVE SMOOTH",
"581.333 43.333 OFFCURVE",
"562.333 41 OFFCURVE",
"529 43 CURVE",
"529 6 LINE",
"536.333 6 OFFCURVE",
"544.667 6 OFFCURVE",
"554 6 CURVE SMOOTH",
"563.333 6 OFFCURVE",
"573.333 6.333 OFFCURVE",
"584 7 CURVE",
"595.333 7 OFFCURVE",
"606.667 7 OFFCURVE",
"618 7 CURVE SMOOTH",
"629.333 7 OFFCURVE",
"640.667 7 OFFCURVE",
"652 7 CURVE SMOOTH",
"723 7 LINE",
"734.333 6.333 OFFCURVE",
"745 6 OFFCURVE",
"755 6 CURVE SMOOTH",
"765 6 OFFCURVE",
"774.333 5.667 OFFCURVE",
"783 5 CURVE",
"783 41 LINE",
"757 43.667 OFFCURVE",
"734.667 51.333 OFFCURVE",
"716 64 CURVE SMOOTH",
"698 76 OFFCURVE",
"677.667 97.333 OFFCURVE",
"655 128 CURVE SMOOTH",
"444 405 LINE",
"611 627 LINE SMOOTH",
"621.667 641.667 OFFCURVE",
"632.333 655.333 OFFCURVE",
"643 668 CURVE",
"648.333 673.333 OFFCURVE",
"653.5 678.5 OFFCURVE",
"658.5 683.5 CURVE SMOOTH",
"663.5 688.5 OFFCURVE",
"668.667 693 OFFCURVE",
"674 697 CURVE",
"686 704.333 OFFCURVE",
"698.667 710 OFFCURVE",
"712 714 CURVE SMOOTH",
"725.333 718 OFFCURVE",
"742 720 OFFCURVE",
"762 720 CURVE",
"762 758 LINE",
"755.333 757.333 OFFCURVE",
"747.5 757 OFFCURVE",
"738.5 757 CURVE SMOOTH",
"729.5 757 OFFCURVE",
"719.667 757 OFFCURVE",
"709 757 CURVE",
"698.333 756.333 OFFCURVE",
"687.167 756 OFFCURVE",
"675.5 756 CURVE SMOOTH",
"663.833 756 OFFCURVE",
"652.333 756 OFFCURVE",
"641 756 CURVE SMOOTH",
"573 756 LINE SMOOTH",
"562.333 756 OFFCURVE",
"552.5 756.167 OFFCURVE",
"543.5 756.5 CURVE SMOOTH",
"534.5 756.833 OFFCURVE",
"526.667 757.333 OFFCURVE",
"520 758 CURVE",
"520 720 LINE",
"555.333 720 OFFCURVE",
"577.333 715 OFFCURVE",
"586 705 CURVE SMOOTH",
"594.667 695.667 OFFCURVE",
"586.333 673.667 OFFCURVE",
"561 639 CURVE SMOOTH",
"413 445 LINE",
"253 655 LINE",
"235 681.667 OFFCURVE",
"229.667 699 OFFCURVE",
"237 707 CURVE",
"243.667 715 OFFCURVE",
"266 719.333 OFFCURVE",
"304 720 CURVE",
"304 757 LINE",
"296.667 756.333 OFFCURVE",
"288.167 756 OFFCURVE",
"278.5 756 CURVE SMOOTH",
"268.833 756 OFFCURVE",
"258 756 OFFCURVE",
"246 756 CURVE",
"233.333 755.333 OFFCURVE",
"220.667 755 OFFCURVE",
"208 755 CURVE SMOOTH",
"195.333 755 OFFCURVE",
"182.333 755 OFFCURVE",
"169 755 CURVE SMOOTH",
"155.667 755 OFFCURVE",
"142.667 755 OFFCURVE",
"130 755 CURVE SMOOTH",
"117.333 755 OFFCURVE",
"104.667 755.333 OFFCURVE",
"92 756 CURVE",
"79.333 756 OFFCURVE",
"67.833 756.167 OFFCURVE",
"57.5 756.5 CURVE SMOOTH",
"47.167 756.833 OFFCURVE",
"38 757.333 OFFCURVE",
"30 758 CURVE",
"30 720 LINE",
"60.667 720 OFFCURVE",
"84.333 713.667 OFFCURVE",
"101 701 CURVE SMOOTH",
"118.333 687.667 OFFCURVE",
"138 666 OFFCURVE",
"160 636 CURVE SMOOTH",
"358 373 LINE",
"182 143 LINE SMOOTH",
"174 132.333 OFFCURVE",
"166.5 122.833 OFFCURVE",
"159.5 114.5 CURVE SMOOTH",
"152.5 106.167 OFFCURVE",
"145.667 98.667 OFFCURVE",
"139 92 CURVE SMOOTH",
"125 78 OFFCURVE",
"112.333 67.667 OFFCURVE",
"101 61 CURVE SMOOTH",
"89 54.333 OFFCURVE",
"77 49.333 OFFCURVE",
"65 46 CURVE SMOOTH",
"54.333 43.333 OFFCURVE",
"41 42 OFFCURVE",
"25 42 CURVE",
"25 5 LINE",
"32.333 5.667 OFFCURVE",
"40.833 6 OFFCURVE",
"50.5 6 CURVE SMOOTH",
"60.167 6 OFFCURVE",
"70.333 6.333 OFFCURVE",
"81 7 CURVE",
"91.667 7 OFFCURVE",
"102.5 7 OFFCURVE",
"113.5 7 CURVE SMOOTH",
"124.5 7 OFFCURVE",
"135.667 7 OFFCURVE",
"147 7 CURVE SMOOTH",
"213 7 LINE",
"223.667 6.333 OFFCURVE",
"233.667 6 OFFCURVE",
"243 6 CURVE SMOOTH",
"252.333 6 OFFCURVE",
"260.667 6 OFFCURVE",
"268 6 CURVE",
"268 42 LINE",
"246 42 OFFCURVE",
"229.333 43 OFFCURVE",
"218 45 CURVE SMOOTH",
"206 47 OFFCURVE",
"199 51 OFFCURVE",
"197 57 CURVE SMOOTH",
"195 63 OFFCURVE",
"197.667 71.667 OFFCURVE",
"205 83 CURVE SMOOTH",
"208.333 88.333 OFFCURVE",
"212.833 95 OFFCURVE",
"218.5 103 CURVE SMOOTH",
"224.167 111 OFFCURVE",
"230.667 120 OFFCURVE",
"238 130 CURVE"
);
}
);
width = 806;
}
);
note = X;
unicode = 0058;
},
{
glyphname = Y;
layers = (
{
layerId = "59D766EC-4D78-4FC8-A1A0-9290DDB4C41B";
paths = (
{
closed = 1;
nodes = (
"433 133 LINE",
"433 383 LINE",
"630 654 LINE",
"656 689 LINE SMOOTH",
"662 697 OFFCURVE",
"668.333 703.667 OFFCURVE",
"675 709 CURVE",
"681 714.333 OFFCURVE",
"687.333 717.333 OFFCURVE",
"694 718 CURVE",
"697.333 718.667 OFFCURVE",
"701.333 719 OFFCURVE",
"706 719 CURVE SMOOTH",
"710.667 719 OFFCURVE",
"716 719.333 OFFCURVE",
"722 720 CURVE",
"722 758 LINE",
"715.333 757.333 OFFCURVE",
"708.333 756.833 OFFCURVE",
"701 756.5 CURVE SMOOTH",
"693.667 756.167 OFFCURVE",
"685.667 756 OFFCURVE",
"677 756 CURVE",
"668.333 755.333 OFFCURVE",
"659.667 755 OFFCURVE",
"651 755 CURVE SMOOTH",
"642.333 755 OFFCURVE",
"633.667 755 OFFCURVE",
"625 755 CURVE SMOOTH",
"616.333 755 OFFCURVE",
"607.5 755 OFFCURVE",
"598.5 755 CURVE SMOOTH",
"589.5 755 OFFCURVE",
"580.667 755.333 OFFCURVE",
"572 756 CURVE",
"563.333 756 OFFCURVE",
"555.167 756.167 OFFCURVE",
"547.5 756.5 CURVE SMOOTH",
"539.833 756.833 OFFCURVE",
"532.667 757.333 OFFCURVE",
"526 758 CURVE",
"526 720 LINE",
"563.333 720 OFFCURVE",
"585.667 716.333 OFFCURVE",
"593 709 CURVE",
"599 701 OFFCURVE",
"595 687 OFFCURVE",
"581 667 CURVE SMOOTH",
"408 430 LINE",
"242 664 LINE SMOOTH",
"227.333 686 OFFCURVE",
"223.333 701 OFFCURVE",
"230 709 CURVE",
"237.333 716.333 OFFCURVE",
"256 720 OFFCURVE",
"286 720 CURVE",
"286 757 LINE",
"277.333 756.333 OFFCURVE",
"267.833 756 OFFCURVE",
"257.5 756 CURVE SMOOTH",
"247.167 756 OFFCURVE",
"236.333 756 OFFCURVE",
"225 756 CURVE",
"213 755.333 OFFCURVE",
"201 755 OFFCURVE",
"189 755 CURVE SMOOTH",
"177 755 OFFCURVE",
"164.667 755 OFFCURVE",
"152 755 CURVE SMOOTH",
"80 755 LINE SMOOTH",
"68.667 755 OFFCURVE",
"58.333 755.167 OFFCURVE",
"49 755.5 CURVE SMOOTH",
"39.667 755.833 OFFCURVE",
"31.333 756.333 OFFCURVE",
"24 757 CURVE",
"24 719 LINE",
"30.667 719 OFFCURVE",
"37 718.833 OFFCURVE",
"43 718.5 CURVE SMOOTH",
"49 718.167 OFFCURVE",
"54.333 717.667 OFFCURVE",
"59 717 CURVE",
"67.667 716.333 OFFCURVE",
"76.333 713.667 OFFCURVE",
"85 709 CURVE SMOOTH",
"93 705 OFFCURVE",
"101 699 OFFCURVE",
"109 691 CURVE",
"113 686.333 OFFCURVE",
"117.5 681.333 OFFCURVE",
"122.5 676 CURVE SMOOTH",
"127.5 670.667 OFFCURVE",
"132.667 664.667 OFFCURVE",
"138 658 CURVE",
"342 367 LINE",
"342 133 LINE SMOOTH",
"342 123.667 OFFCURVE",
"341.667 115 OFFCURVE",
"341 107 CURVE SMOOTH",
"340.333 99 OFFCURVE",
"339.333 92 OFFCURVE",
"338 86 CURVE",
"334.667 73.333 OFFCURVE",
"330 64.333 OFFCURVE",
"324 59 CURVE",
"317.333 52.333 OFFCURVE",
"308 48 OFFCURVE",
"296 46 CURVE",
"284.667 43.333 OFFCURVE",
"268.333 42 OFFCURVE",
"247 42 CURVE",
"247 5 LINE",
"255.667 5.667 OFFCURVE",
"265 6 OFFCURVE",
"275 6 CURVE SMOOTH",
"285 6 OFFCURVE",
"296.333 6.333 OFFCURVE",
"309 7 CURVE",
"321.667 7 OFFCURVE",
"334.333 7 OFFCURVE",
"347 7 CURVE SMOOTH",
"359.667 7 OFFCURVE",
"372.667 7 OFFCURVE",
"386 7 CURVE SMOOTH",
"464 7 LINE",
"476.667 6.333 OFFCURVE",
"488.5 6 OFFCURVE",
"499.5 6 CURVE SMOOTH",
"510.5 6 OFFCURVE",
"520.333 5.667 OFFCURVE",
"529 5 CURVE",
"529 42 LINE",
"507.667 42 OFFCURVE",
"491.333 43.333 OFFCURVE",
"480 46 CURVE",
"467.333 48 OFFCURVE",
"457.667 52.333 OFFCURVE",
"451 59 CURVE SMOOTH",
"443.667 66.333 OFFCURVE",
"439 75.667 OFFCURVE",
"437 87 CURVE",
"435.667 92.333 OFFCURVE",
"434.667 99 OFFCURVE",
"434 107 CURVE SMOOTH",
"433.333 115 OFFCURVE",
"433 123.667 OFFCURVE",
"433 133 CURVE"
);
}
);
width = 745;
}
);
note = Y;
unicode = 0059;
},
{
glyphname = Z;
layers = (
{
layerId = "59D766EC-4D78-4FC8-A1A0-9290DDB4C41B";
paths = (
{
closed = 1;
nodes = (
"674 6 LINE",
"727 199 LINE",
"683 199 LINE",
"677.667 185.667 OFFCURVE",
"672.167 173.333 OFFCURVE",
"666.5 162 CURVE SMOOTH",
"660.833 150.667 OFFCURVE",
"655.333 140.667 OFFCURVE",
"650 132 CURVE SMOOTH",
"638.667 113.333 OFFCURVE",
"624.667 98.667 OFFCURVE",
"608 88 CURVE SMOOTH",
"592 77.333 OFFCURVE",
"571 70 OFFCURVE",
"545 66 CURVE",
"532.333 63.333 OFFCURVE",
"518 61.5 OFFCURVE",
"502 60.5 CURVE SMOOTH",
"486 59.5 OFFCURVE",
"468.333 59 OFFCURVE",
"449 59 CURVE SMOOTH",
"168 59 LINE",
"702 757 LINE",
"682.667 756.333 OFFCURVE",
"661.333 755.667 OFFCURVE",
"638 755 CURVE SMOOTH",
"614.667 754.333 OFFCURVE",
"589.667 753.667 OFFCURVE",
"563 753 CURVE SMOOTH",
"536.333 752.333 OFFCURVE",
"509.333 752 OFFCURVE",
"482 752 CURVE SMOOTH",
"454.667 752 OFFCURVE",
"426.667 752 OFFCURVE",
"398 752 CURVE SMOOTH",
"369.333 752 OFFCURVE",
"341.167 752.167 OFFCURVE",
"313.5 752.5 CURVE SMOOTH",
"285.833 752.833 OFFCURVE",
"258.333 753.333 OFFCURVE",
"231 754 CURVE SMOOTH",
"203.667 754.667 OFFCURVE",
"177.833 755.333 OFFCURVE",
"153.5 756 CURVE SMOOTH",
"129.167 756.667 OFFCURVE",
"106.333 757.333 OFFCURVE",
"85 758 CURVE",
"55 592 LINE",
"102 592 LINE",
"107.333 610.667 OFFCURVE",
"113.333 628 OFFCURVE",
"120 644 CURVE SMOOTH",
"126 657.333 OFFCURVE",
"134 668.667 OFFCURVE",
"144 678 CURVE SMOOTH",
"154.667 687.333 OFFCURVE",
"167.333 694 OFFCURVE",
"182 698 CURVE SMOOTH",
"197.333 702 OFFCURVE",
"216.667 704 OFFCURVE",
"240 704 CURVE SMOOTH",
"551 704 LINE",
"15 6 LINE",
"32.333 6.667 OFFCURVE",
"52.833 7 OFFCURVE",
"76.5 7 CURVE SMOOTH",
"100.167 7 OFFCURVE",
"126.667 7.333 OFFCURVE",
"156 8 CURVE SMOOTH",
"185.333 8.667 OFFCURVE",
"215.333 9 OFFCURVE",
"246 9 CURVE SMOOTH",
"276.667 9 OFFCURVE",
"308 9 OFFCURVE",
"340 9 CURVE SMOOTH",
"372 9 OFFCURVE",
"403.5 9 OFFCURVE",
"434.5 9 CURVE SMOOTH",
"465.5 9 OFFCURVE",
"496.333 8.667 OFFCURVE",
"527 8 CURVE SMOOTH",
"557 7.333 OFFCURVE",
"584.333 7 OFFCURVE",
"609 7 CURVE SMOOTH",
"633.667 7 OFFCURVE",
"655.333 6.667 OFFCURVE",
"674 6 CURVE"
);
}
);
width = 745;
}
);
note = Z;
unicode = 005A;
},
{
glyphname = A.full;
layers = (
{
layerId = "59D766EC-4D78-4FC8-A1A0-9290DDB4C41B";
paths = (
{
closed = 1;
nodes = (
"302 138 LINE",
"352 284 LINE",
"590 284 LINE",
"638 140 LINE SMOOTH",
"641.333 129.333 OFFCURVE",
"644.167 119.833 OFFCURVE",
"646.5 111.5 CURVE SMOOTH",
"648.833 103.167 OFFCURVE",
"650.667 95.667 OFFCURVE",
"652 89 CURVE SMOOTH",
"654.667 77 OFFCURVE",
"654 67.333 OFFCURVE",
"650 60 CURVE SMOOTH",
"646 52.667 OFFCURVE",
"638.333 48 OFFCURVE",
"627 46 CURVE",
"621 44.667 OFFCURVE",
"613.833 43.667 OFFCURVE",
"605.5 43 CURVE SMOOTH",
"597.167 42.333 OFFCURVE",
"587.667 42 OFFCURVE",
"577 42 CURVE",
"577 5 LINE",
"585 5.667 OFFCURVE",
"594 6 OFFCURVE",
"604 6 CURVE SMOOTH",
"614 6 OFFCURVE",
"624.667 6 OFFCURVE",
"636 6 CURVE SMOOTH",
"647.333 6 OFFCURVE",
"659.167 6 OFFCURVE",
"671.5 6 CURVE SMOOTH",
"683.833 6 OFFCURVE",
"696.333 6 OFFCURVE",
"709 6 CURVE SMOOTH",
"782 6 LINE SMOOTH",
"793.333 6 OFFCURVE",
"804 6 OFFCURVE",
"814 6 CURVE SMOOTH",
"824 6 OFFCURVE",
"833 5.667 OFFCURVE",
"841 5 CURVE",
"841 41 LINE",
"832.333 41.667 OFFCURVE",
"824.5 42.667 OFFCURVE",
"817.5 44 CURVE SMOOTH",
"810.5 45.333 OFFCURVE",
"804.333 46.667 OFFCURVE",
"799 48 CURVE SMOOTH",
"793 49.333 OFFCURVE",
"787.5 51.5 OFFCURVE",
"782.5 54.5 CURVE SMOOTH",
"777.5 57.5 OFFCURVE",
"772.667 60.667 OFFCURVE",
"768 64 CURVE SMOOTH",
"760 70 OFFCURVE",
"752.333 80 OFFCURVE",
"745 94 CURVE SMOOTH",
"737.667 107.333 OFFCURVE",
"730.667 123.667 OFFCURVE",
"724 143 CURVE SMOOTH",
"507 786 LINE",
"468 786 LINE",
"245 145 LINE SMOOTH",
"241.667 135.667 OFFCURVE",
"238.333 127 OFFCURVE",
"235 119 CURVE SMOOTH",
"231.667 111 OFFCURVE",
"228.667 103.667 OFFCURVE",
"226 97 CURVE",
"220 84.333 OFFCURVE",
"213 74.333 OFFCURVE",
"205 67 CURVE",
"197 59 OFFCURVE",
"187.333 53.333 OFFCURVE",
"176 50 CURVE",
"164 46 OFFCURVE",
"149 44 OFFCURVE",
"131 44 CURVE",
"131 5 LINE",
"139 5.667 OFFCURVE",
"147.667 6 OFFCURVE",
"157 6 CURVE SMOOTH",
"166.333 6 OFFCURVE",
"176.333 6 OFFCURVE",
"187 6 CURVE SMOOTH",
"197.667 6 OFFCURVE",
"208.333 6 OFFCURVE",
"219 6 CURVE SMOOTH",
"229.667 6 OFFCURVE",
"240.333 6 OFFCURVE",
"251 6 CURVE SMOOTH",
"316 6 LINE SMOOTH",
"326.667 6 OFFCURVE",
"336.5 6 OFFCURVE",
"345.5 6 CURVE SMOOTH",
"354.5 6 OFFCURVE",
"363 5.667 OFFCURVE",
"371 5 CURVE",
"371 42 LINE",
"349 42 OFFCURVE",
"332 44 OFFCURVE",
"320 48 CURVE SMOOTH",
"308.667 52 OFFCURVE",
"300.333 58 OFFCURVE",
"295 66 CURVE SMOOTH",
"290.333 73.333 OFFCURVE",
"289 83.333 OFFCURVE",
"291 96 CURVE",
"291.667 106.667 OFFCURVE",
"295.333 120.667 OFFCURVE",
"302 138 CURVE"
);
},
{
closed = 1;
nodes = (
"575 329 LINE",
"368 329 LINE",
"473 634 LINE",
"575 329 LINE"
);
}
);
width = 973;
}
);
note = uniFF21;
unicode = FF21;
},
{
glyphname = B.full;
layers = (
{
layerId = "59D766EC-4D78-4FC8-A1A0-9290DDB4C41B";
paths = (
{
closed = 1;
nodes = (
"615 420 OFFCURVE",
"647.667 440.667 OFFCURVE",
"673 470 CURVE SMOOTH",
"697.667 498.667 OFFCURVE",
"710 534.667 OFFCURVE",
"710 578 CURVE SMOOTH",
"710 612 OFFCURVE",
"703 640.333 OFFCURVE",
"689 663 CURVE SMOOTH",
"673.667 686.333 OFFCURVE",
"655 704.667 OFFCURVE",
"633 718 CURVE SMOOTH",
"609.667 732 OFFCURVE",
"584 742 OFFCURVE",
"556 748 CURVE SMOOTH",
"541.333 750.667 OFFCURVE",
"526.833 752.667 OFFCURVE",
"512.5 754 CURVE SMOOTH",
"498.167 755.333 OFFCURVE",
"483.667 756 OFFCURVE",
"469 756 CURVE",
"461.667 755.333 OFFCURVE",
"453.333 755 OFFCURVE",
"444 755 CURVE SMOOTH",
"434.667 755 OFFCURVE",
"424.333 755 OFFCURVE",
"413 755 CURVE",
"402.333 754.333 OFFCURVE",
"391.167 754 OFFCURVE",
"379.5 754 CURVE SMOOTH",
"367.833 754 OFFCURVE",
"356.333 754 OFFCURVE",
"345 754 CURVE SMOOTH",
"333 754 OFFCURVE",
"321.333 754 OFFCURVE",
"310 754 CURVE SMOOTH",
"298.667 754 OFFCURVE",
"287.333 754.333 OFFCURVE",
"276 755 CURVE",
"265.333 755 OFFCURVE",
"255.167 755 OFFCURVE",
"245.5 755 CURVE SMOOTH",
"235.833 755 OFFCURVE",
"227 755.333 OFFCURVE",
"219 756 CURVE",
"219 720 LINE",
"239.667 720 OFFCURVE",
"256.333 719 OFFCURVE",
"269 717 CURVE",
"281.667 714.333 OFFCURVE",
"291.333 710 OFFCURVE",
"298 704 CURVE SMOOTH",
"304.667 698 OFFCURVE",
"309 689.667 OFFCURVE",
"311 679 CURVE SMOOTH",
"313 668.333 OFFCURVE",
"314 654.667 OFFCURVE",
"314 638 CURVE SMOOTH",
"314 129 LINE SMOOTH",
"314 109.667 OFFCURVE",
"313 94.333 OFFCURVE",
"311 83 CURVE SMOOTH",
"309 71 OFFCURVE",
"304.667 62 OFFCURVE",
"298 56 CURVE",
"290.667 50 OFFCURVE",
"281 46 OFFCURVE",
"269 44 CURVE SMOOTH",
"256.333 42 OFFCURVE",
"239.667 41 OFFCURVE",
"219 41 CURVE",
"219 5 LINE",
"228.333 5.667 OFFCURVE",
"238.333 6 OFFCURVE",
"249 6 CURVE SMOOTH",
"259.667 6 OFFCURVE",
"271.333 6 OFFCURVE",
"284 6 CURVE SMOOTH",
"296 6 OFFCURVE",
"308.333 6 OFFCURVE",
"321 6 CURVE SMOOTH",
"333.667 6 OFFCURVE",
"346.333 6 OFFCURVE",
"359 6 CURVE SMOOTH",
"435 6 LINE SMOOTH",
"447 6 OFFCURVE",
"458.333 6 OFFCURVE",
"469 6 CURVE SMOOTH",
"479.667 6 OFFCURVE",
"489.667 5.667 OFFCURVE",
"499 5 CURVE",
"544.333 5 OFFCURVE",
"584 10.333 OFFCURVE",
"618 21 CURVE SMOOTH",
"652 31 OFFCURVE",
"681 45 OFFCURVE",
"705 63 CURVE SMOOTH",
"728.333 81 OFFCURVE",
"746 102.667 OFFCURVE",
"758 128 CURVE SMOOTH",
"770 153.333 OFFCURVE",
"776 180.667 OFFCURVE",
"776 210 CURVE SMOOTH",
"776 236.667 OFFCURVE",
"771 261.333 OFFCURVE",
"761 284 CURVE SMOOTH",
"751 306.667 OFFCURVE",
"737 326.333 OFFCURVE",
"719 343 CURVE SMOOTH",
"701 360.333 OFFCURVE",
"679.667 374.333 OFFCURVE",
"655 385 CURVE SMOOTH",
"642.333 390.333 OFFCURVE",
"629.5 394.833 OFFCURVE",
"616.5 398.5 CURVE SMOOTH",
"603.5 402.167 OFFCURVE",
"589.667 405.333 OFFCURVE",
"575 408 CURVE",
"575 408 LINE"
);
},
{
closed = 1;
nodes = (
"406 421 LINE",
"406 713 LINE",
"410 713.667 OFFCURVE",
"414 714 OFFCURVE",
"418 714 CURVE SMOOTH",
"422 714 OFFCURVE",
"426.333 714 OFFCURVE",
"431 714 CURVE SMOOTH",
"455 714 LINE SMOOTH",
"479.667 714 OFFCURVE",
"502 712 OFFCURVE",
"522 708 CURVE SMOOTH",
"541.333 704 OFFCURVE",
"558.667 697 OFFCURVE",
"574 687 CURVE",
"588 676.333 OFFCURVE",
"599 662.333 OFFCURVE",
"607 645 CURVE",
"614.333 626.333 OFFCURVE",
"618 604 OFFCURVE",
"618 578 CURVE SMOOTH",
"618 548.667 OFFCURVE",
"614 524 OFFCURVE",
"606 504 CURVE",
"596.667 483.333 OFFCURVE",
"585 467.333 OFFCURVE",
"571 456 CURVE SMOOTH",
"556.333 443.333 OFFCURVE",
"538.667 434.333 OFFCURVE",
"518 429 CURVE SMOOTH",
"507.333 426.333 OFFCURVE",
"496.5 424.333 OFFCURVE",
"485.5 423 CURVE SMOOTH",
"474.5 421.667 OFFCURVE",
"463 421 OFFCURVE",
"451 421 CURVE SMOOTH",
"406 421 LINE"
);
},
{
closed = 1;
nodes = (
"406 128 LINE",
"406 377 LINE",
"474 377 LINE SMOOTH",
"506 377 OFFCURVE",
"534 373.667 OFFCURVE",
"558 367 CURVE SMOOTH",
"570.667 363.667 OFFCURVE",
"582.5 359.333 OFFCURVE",
"593.5 354 CURVE SMOOTH",
"604.5 348.667 OFFCURVE",
"614.333 342.333 OFFCURVE",
"623 335 CURVE SMOOTH",
"641 319.667 OFFCURVE",
"655 301.333 OFFCURVE",
"665 280 CURVE SMOOTH",
"675 257.333 OFFCURVE",
"680 230.333 OFFCURVE",
"680 199 CURVE SMOOTH",
"680 147 OFFCURVE",
"664.667 109 OFFCURVE",
"634 85 CURVE SMOOTH",
"603.333 60.333 OFFCURVE",
"561 48 OFFCURVE",
"507 48 CURVE SMOOTH",
"495.667 48 OFFCURVE",
"485.5 48.167 OFFCURVE",
"476.5 48.5 CURVE SMOOTH",
"467.5 48.833 OFFCURVE",
"459.667 49.333 OFFCURVE",
"453 50 CURVE",
"441 50.667 OFFCURVE",
"431 54 OFFCURVE",
"423 60 CURVE SMOOTH",
"415.667 65.333 OFFCURVE",
"411 73 OFFCURVE",
"409 83 CURVE SMOOTH",
"407 94.333 OFFCURVE",
"406 109.333 OFFCURVE",
"406 128 CURVE"
);
}
);
width = 973;
}
);
note = uniFF22;
unicode = FF22;
},
{
glyphname = C.full;
layers = (
{
layerId = "59D766EC-4D78-4FC8-A1A0-9290DDB4C41B";
paths = (
{
closed = 1;
nodes = (
"798 554 LINE",
"787 718 LINE",
"751 732.667 OFFCURVE",
"712.667 745.333 OFFCURVE",
"672 756 CURVE SMOOTH",
"630 767.333 OFFCURVE",
"588 773 OFFCURVE",
"546 773 CURVE SMOOTH",
"494.667 773 OFFCURVE",
"446 763.667 OFFCURVE",
"400 745 CURVE SMOOTH",
"376 735.667 OFFCURVE",
"353.5 724.333 OFFCURVE",
"332.5 711 CURVE SMOOTH",
"311.5 697.667 OFFCURVE",
"291.667 682.667 OFFCURVE",
"273 666 CURVE SMOOTH",
"236.333 632 OFFCURVE",
"207 591.667 OFFCURVE",
"185 545 CURVE SMOOTH",
"162.333 499 OFFCURVE",
"151 447.667 OFFCURVE",
"151 391 CURVE SMOOTH",
"151 331 OFFCURVE",
"160.667 276 OFFCURVE",
"180 226 CURVE SMOOTH",
"189.333 201.333 OFFCURVE",
"201 178.333 OFFCURVE",
"215 157 CURVE SMOOTH",
"229 135.667 OFFCURVE",
"244.667 116.333 OFFCURVE",
"262 99 CURVE SMOOTH",
"297.333 64.333 OFFCURVE",
"339.333 37.333 OFFCURVE",
"388 18 CURVE SMOOTH",
"412.667 8 OFFCURVE",
"438.333 0.667 OFFCURVE",
"465 -4 CURVE SMOOTH",
"491.667 -8.667 OFFCURVE",
"519.667 -11 OFFCURVE",
"549 -11 CURVE SMOOTH",
"558.333 -11 OFFCURVE",
"567.833 -10.667 OFFCURVE",
"577.5 -10 CURVE SMOOTH",
"587.167 -9.333 OFFCURVE",
"597.333 -8.333 OFFCURVE",
"608 -7 CURVE SMOOTH",
"618.667 -5.667 OFFCURVE",
"629.333 -4 OFFCURVE",
"640 -2 CURVE SMOOTH",
"650.667 0 OFFCURVE",
"661.333 2.333 OFFCURVE",
"672 5 CURVE SMOOTH",
"682.667 7.667 OFFCURVE",
"692.833 10.333 OFFCURVE",
"702.5 13 CURVE SMOOTH",
"712.167 15.667 OFFCURVE",
"721.333 18.667 OFFCURVE",
"730 22 CURVE SMOOTH",
"747.333 28.667 OFFCURVE",
"761.667 35.667 OFFCURVE",
"773 43 CURVE",
"801 214 LINE",
"760 214 LINE",
"757.333 201.333 OFFCURVE",
"754.167 189 OFFCURVE",
"750.5 177 CURVE SMOOTH",
"746.833 165 OFFCURVE",
"742.333 153.333 OFFCURVE",
"737 142 CURVE SMOOTH",
"726.333 119.333 OFFCURVE",
"713 100 OFFCURVE",
"697 84 CURVE",
"689 75.333 OFFCURVE",
"680.333 68 OFFCURVE",
"671 62 CURVE SMOOTH",
"661.667 56 OFFCURVE",
"651.667 50.667 OFFCURVE",
"641 46 CURVE SMOOTH",
"619 36.667 OFFCURVE",
"594.667 32 OFFCURVE",
"568 32 CURVE SMOOTH",
"525.333 32 OFFCURVE",
"484 40.667 OFFCURVE",
"444 58 CURVE SMOOTH",
"424.667 66.667 OFFCURVE",
"406.667 77.167 OFFCURVE",
"390 89.5 CURVE SMOOTH",
"373.333 101.833 OFFCURVE",
"357.667 116 OFFCURVE",
"343 132 CURVE SMOOTH",
"314.333 163.333 OFFCURVE",
"291.333 201.333 OFFCURVE",
"274 246 CURVE SMOOTH",
"257.333 289.333 OFFCURVE",
"249 338.667 OFFCURVE",
"249 394 CURVE SMOOTH",
"249 443.333 OFFCURVE",
"256.667 489 OFFCURVE",
"272 531 CURVE SMOOTH",
"279.333 551.667 OFFCURVE",
"288.5 570.833 OFFCURVE",
"299.5 588.5 CURVE SMOOTH",
"310.5 606.167 OFFCURVE",
"322.667 622.333 OFFCURVE",
"336 637 CURVE SMOOTH",
"349.333 651.667 OFFCURVE",
"363.833 664.667 OFFCURVE",
"379.5 676 CURVE SMOOTH",
"395.167 687.333 OFFCURVE",
"412.333 697 OFFCURVE",
"431 705 CURVE SMOOTH",
"468.333 721 OFFCURVE",
"508.333 729 OFFCURVE",
"551 729 CURVE SMOOTH",
"611.667 729 OFFCURVE",
"659.667 715.333 OFFCURVE",
"695 688 CURVE SMOOTH",
"729.667 661.333 OFFCURVE",
"751.667 616.667 OFFCURVE",
"761 554 CURVE",
"798 554 LINE"
);
}
);
width = 973;
}
);
note = uniFF23;
unicode = FF23;
},
{
glyphname = D.full;
layers = (
{
layerId = "59D766EC-4D78-4FC8-A1A0-9290DDB4C41B";
paths = (
{
closed = 1;
nodes = (
"230 633 LINE",
"230 135 LINE SMOOTH",
"230 115 OFFCURVE",
"229 99.333 OFFCURVE",
"227 88 CURVE SMOOTH",
"225 76 OFFCURVE",
"220.667 66.667 OFFCURVE",
"214 60 CURVE SMOOTH",
"207.333 53.333 OFFCURVE",
"197.667 49 OFFCURVE",
"185 47 CURVE SMOOTH",
"172.333 45 OFFCURVE",
"155 44 OFFCURVE",
"133 44 CURVE",
"133 5 LINE",
"142.333 5.667 OFFCURVE",
"152.667 6 OFFCURVE",
"164 6 CURVE SMOOTH",
"175.333 6 OFFCURVE",
"187.333 6 OFFCURVE",
"200 6 CURVE SMOOTH",
"212.667 6 OFFCURVE",
"225.333 6 OFFCURVE",
"238 6 CURVE SMOOTH",
"250.667 6 OFFCURVE",
"263.667 6 OFFCURVE",
"277 6 CURVE SMOOTH",
"355 6 LINE SMOOTH",
"367.667 6 OFFCURVE",
"379.5 6 OFFCURVE",
"390.5 6 CURVE SMOOTH",
"401.5 6 OFFCURVE",
"411.667 5.667 OFFCURVE",
"421 5 CURVE",
"494.333 5 OFFCURVE",
"557.333 16 OFFCURVE",
"610 38 CURVE SMOOTH",
"663.333 59.333 OFFCURVE",
"707.667 87.667 OFFCURVE",
"743 123 CURVE SMOOTH",
"779 159 OFFCURVE",
"805.333 199.333 OFFCURVE",
"822 244 CURVE SMOOTH",
"839.333 290 OFFCURVE",
"848 336 OFFCURVE",
"848 382 CURVE SMOOTH",
"848 431.333 OFFCURVE",
"838.667 478 OFFCURVE",
"820 522 CURVE SMOOTH",
"801.333 566 OFFCURVE",
"774.333 605.667 OFFCURVE",
"739 641 CURVE SMOOTH",
"704.333 675.667 OFFCURVE",
"661 703.667 OFFCURVE",
"609 725 CURVE SMOOTH",
"557.667 745.667 OFFCURVE",
"498.667 756 OFFCURVE",
"432 756 CURVE SMOOTH",
"358 756 LINE",
"344.667 755.333 OFFCURVE",
"331.5 755 OFFCURVE",
"318.5 755 CURVE SMOOTH",
"305.5 755 OFFCURVE",
"292.333 755 OFFCURVE",
"279 755 CURVE SMOOTH",
"265.667 755 OFFCURVE",
"252.667 755 OFFCURVE",
"240 755 CURVE SMOOTH",
"227.333 755 OFFCURVE",
"214.667 755.333 OFFCURVE",
"202 756 CURVE",
"133 756 LINE",
"133 720 LINE",
"155 720 OFFCURVE",
"172.333 719 OFFCURVE",
"185 717 CURVE",
"197.667 714.333 OFFCURVE",
"207.333 710 OFFCURVE",
"214 704 CURVE",
"220.667 697.333 OFFCURVE",
"225 688.333 OFFCURVE",
"227 677 CURVE SMOOTH",
"229 666.333 OFFCURVE",
"230 651.667 OFFCURVE",
"230 633 CURVE"
);
},
{
closed = 1;
nodes = (
"322 134 LINE",
"322 710 LINE",
"326.667 710.667 OFFCURVE",
"331.667 711 OFFCURVE",
"337 711 CURVE SMOOTH",
"342.333 711 OFFCURVE",
"348.333 711.333 OFFCURVE",
"355 712 CURVE SMOOTH",
"361.667 712.667 OFFCURVE",
"369.5 713 OFFCURVE",
"378.5 713 CURVE SMOOTH",
"387.5 713 OFFCURVE",
"398 713 OFFCURVE",
"410 713 CURVE SMOOTH",
"463.333 713 OFFCURVE",
"510.667 705.667 OFFCURVE",
"552 691 CURVE SMOOTH",
"594 676.333 OFFCURVE",
"629.667 654.667 OFFCURVE",
"659 626 CURVE SMOOTH",
"689 597.333 OFFCURVE",
"711.667 563 OFFCURVE",
"727 523 CURVE SMOOTH",
"742.333 481 OFFCURVE",
"750 434.667 OFFCURVE",
"750 384 CURVE SMOOTH",
"750 340 OFFCURVE",
"744 297.333 OFFCURVE",
"732 256 CURVE SMOOTH",
"726 235.333 OFFCURVE",
"718.333 216.167 OFFCURVE",
"709 198.5 CURVE SMOOTH",
"699.667 180.833 OFFCURVE",
"688.667 164.333 OFFCURVE",
"676 149 CURVE SMOOTH",
"650.667 119 OFFCURVE",
"618 94.667 OFFCURVE",
"578 76 CURVE SMOOTH",
"540 57.333 OFFCURVE",
"493 48 OFFCURVE",
"437 48 CURVE SMOOTH",
"412.333 48 OFFCURVE",
"392.333 49 OFFCURVE",
"377 51 CURVE",
"362.333 51.667 OFFCURVE",
"350.667 55.333 OFFCURVE",
"342 62 CURVE SMOOTH",
"334.667 67.333 OFFCURVE",
"329.333 76 OFFCURVE",
"326 88 CURVE SMOOTH",
"324.667 93.333 OFFCURVE",
"323.667 100 OFFCURVE",
"323 108 CURVE SMOOTH",
"322.333 116 OFFCURVE",
"322 124.667 OFFCURVE",
"322 134 CURVE"
);
}
);
width = 973;
}
);
note = uniFF24;
unicode = FF24;
},
{
glyphname = E.full;
layers = (
{
layerId = "59D766EC-4D78-4FC8-A1A0-9290DDB4C41B";
paths = (
{
closed = 1;
nodes = (
"407 421 LINE",
"407 714 LINE",
"544 714 LINE SMOOTH",
"557.333 714 OFFCURVE",
"569.333 713.667 OFFCURVE",
"580 713 CURVE SMOOTH",
"590.667 712.333 OFFCURVE",
"600.333 711.333 OFFCURVE",
"609 710 CURVE SMOOTH",
"625.667 707.333 OFFCURVE",
"639 701.333 OFFCURVE",
"649 692 CURVE SMOOTH",
"658.333 683.333 OFFCURVE",
"665.333 670.333 OFFCURVE",
"670 653 CURVE",
"672 644.333 OFFCURVE",
"673.833 634.5 OFFCURVE",
"675.5 623.5 CURVE SMOOTH",
"677.167 612.5 OFFCURVE",
"678.667 600 OFFCURVE",
"680 586 CURVE",
"720 586 LINE",
"720 756 LINE",
"701.333 755.333 OFFCURVE",
"682.167 755 OFFCURVE",
"662.5 755 CURVE SMOOTH",
"642.833 755 OFFCURVE",
"622.333 755 OFFCURVE",
"601 755 CURVE SMOOTH",
"579.667 754.333 OFFCURVE",
"558.167 754 OFFCURVE",
"536.5 754 CURVE SMOOTH",
"514.833 754 OFFCURVE",
"493 754 OFFCURVE",
"471 754 CURVE SMOOTH",
"449 754 OFFCURVE",
"427 754 OFFCURVE",
"405 754 CURVE SMOOTH",
"383 754 OFFCURVE",
"361.333 754.333 OFFCURVE",
"340 755 CURVE SMOOTH",
"318.667 755 OFFCURVE",
"297.5 755 OFFCURVE",
"276.5 755 CURVE SMOOTH",
"255.5 755 OFFCURVE",
"235.333 755.333 OFFCURVE",
"216 756 CURVE",
"216 719 LINE",
"226.667 719 OFFCURVE",
"236.333 718.833 OFFCURVE",
"245 718.5 CURVE SMOOTH",
"253.667 718.167 OFFCURVE",
"261.333 717.667 OFFCURVE",
"268 717 CURVE",
"281.333 715 OFFCURVE",
"291.333 711 OFFCURVE",
"298 705 CURVE SMOOTH",
"304 699.667 OFFCURVE",
"308.667 690.667 OFFCURVE",
"312 678 CURVE",
"314 666 OFFCURVE",
"315 650 OFFCURVE",
"315 630 CURVE SMOOTH",
"315 139 LINE SMOOTH",
"315 119.667 OFFCURVE",
"314 103.333 OFFCURVE",
"312 90 CURVE",
"309.333 77.333 OFFCURVE",
"304.667 67.667 OFFCURVE",
"298 61 CURVE SMOOTH",
"291.333 54.333 OFFCURVE",
"281.333 49.333 OFFCURVE",
"268 46 CURVE",
"261.333 44.667 OFFCURVE",
"253.667 43.667 OFFCURVE",
"245 43 CURVE SMOOTH",
"236.333 42.333 OFFCURVE",
"226.667 42 OFFCURVE",
"216 42 CURVE",
"216 5 LINE",
"236 5.667 OFFCURVE",
"256.667 6 OFFCURVE",
"278 6 CURVE SMOOTH",
"299.333 6 OFFCURVE",
"321.333 6.333 OFFCURVE",
"344 7 CURVE SMOOTH",
"366.667 7 OFFCURVE",
"389.333 7 OFFCURVE",
"412 7 CURVE SMOOTH",
"434.667 7 OFFCURVE",
"457.667 7 OFFCURVE",
"481 7 CURVE SMOOTH",
"619 7 LINE SMOOTH",
"642.333 6.333 OFFCURVE",
"665 6 OFFCURVE",
"687 6 CURVE SMOOTH",
"709 6 OFFCURVE",
"730.667 5.667 OFFCURVE",
"752 5 CURVE",
"754.667 18.333 OFFCURVE",
"757.833 32.5 OFFCURVE",
"761.5 47.5 CURVE SMOOTH",
"765.167 62.5 OFFCURVE",
"769.333 77.667 OFFCURVE",
"774 93 CURVE SMOOTH",
"778.667 108.333 OFFCURVE",
"783.167 123.167 OFFCURVE",
"787.5 137.5 CURVE SMOOTH",
"791.833 151.833 OFFCURVE",
"796.333 165.667 OFFCURVE",
"801 179 CURVE",
"757 179 LINE",
"749 153.667 OFFCURVE",
"741 132.333 OFFCURVE",
"733 115 CURVE",
"728.333 106.333 OFFCURVE",
"723.5 98.667 OFFCURVE",
"718.5 92 CURVE SMOOTH",
"713.5 85.333 OFFCURVE",
"708 79.667 OFFCURVE",
"702 75 CURVE SMOOTH",
"690 65 OFFCURVE",
"675.667 58 OFFCURVE",
"659 54 CURVE SMOOTH",
"642.333 50 OFFCURVE",
"621 48 OFFCURVE",
"595 48 CURVE SMOOTH",
"521 48 LINE SMOOTH",
"497 48 OFFCURVE",
"477.333 49 OFFCURVE",
"462 51 CURVE SMOOTH",
"446 53 OFFCURVE",
"434.333 57.333 OFFCURVE",
"427 64 CURVE",
"419.667 70 OFFCURVE",
"414.333 79 OFFCURVE",
"411 91 CURVE",
"409.667 97 OFFCURVE",
"408.667 104 OFFCURVE",
"408 112 CURVE SMOOTH",
"407.333 120 OFFCURVE",
"407 129 OFFCURVE",
"407 139 CURVE SMOOTH",
"407 368 LINE",
"548 368 LINE SMOOTH",
"562 368 OFFCURVE",
"573.333 367 OFFCURVE",
"582 365 CURVE",
"589.333 362.333 OFFCURVE",
"595.667 357.333 OFFCURVE",
"601 350 CURVE SMOOTH",
"605.667 344 OFFCURVE",
"609 333.667 OFFCURVE",
"611 319 CURVE",
"611.667 312.333 OFFCURVE",
"612.167 304.5 OFFCURVE",
"612.5 295.5 CURVE SMOOTH",
"612.833 286.5 OFFCURVE",
"613 276.333 OFFCURVE",
"613 265 CURVE",
"654 265 LINE",
"654 513 LINE",
"613 513 LINE",
"613 493.667 OFFCURVE",
"612 478.333 OFFCURVE",
"610 467 CURVE",
"606.667 454.333 OFFCURVE",
"603 445 OFFCURVE",
"599 439 CURVE",
"593.667 431.667 OFFCURVE",
"587 427 OFFCURVE",
"579 425 CURVE",
"571.667 422.333 OFFCURVE",
"561.667 421 OFFCURVE",
"549 421 CURVE SMOOTH",
"407 421 LINE"
);
}
);
width = 973;
}
);
note = uniFF25;
unicode = FF25;
},
{
glyphname = F.full;
layers = (
{
layerId = "59D766EC-4D78-4FC8-A1A0-9290DDB4C41B";
paths = (
{
closed = 1;
nodes = (
"419 141 LINE",
"419 368 LINE",
"560 368 LINE SMOOTH",
"575.333 368 OFFCURVE",
"587 366.667 OFFCURVE",
"595 364 CURVE",
"599.667 362.667 OFFCURVE",
"603.833 360.5 OFFCURVE",
"607.5 357.5 CURVE SMOOTH",
"611.167 354.5 OFFCURVE",
"614.333 351.333 OFFCURVE",
"617 348 CURVE SMOOTH",
"622.333 341.333 OFFCURVE",
"626.333 331.333 OFFCURVE",
"629 318 CURVE SMOOTH",
"630.333 311.333 OFFCURVE",
"631.333 304 OFFCURVE",
"632 296 CURVE SMOOTH",
"632.667 288 OFFCURVE",
"633.333 279.333 OFFCURVE",
"634 270 CURVE",
"676 270 LINE",
"675.333 277.333 OFFCURVE",
"674.833 285.667 OFFCURVE",
"674.5 295 CURVE SMOOTH",
"674.167 304.333 OFFCURVE",
"674 314.333 OFFCURVE",
"674 325 CURVE",
"673.333 336.333 OFFCURVE",
"673 347.667 OFFCURVE",
"673 359 CURVE SMOOTH",
"673 370.333 OFFCURVE",
"673 381.667 OFFCURVE",
"673 393 CURVE SMOOTH",
"673 404.333 OFFCURVE",
"673 415.667 OFFCURVE",
"673 427 CURVE SMOOTH",
"673 438.333 OFFCURVE",
"673.333 449.333 OFFCURVE",
"674 460 CURVE",
"674 470.667 OFFCURVE",
"674.167 480 OFFCURVE",
"674.5 488 CURVE SMOOTH",
"674.833 496 OFFCURVE",
"675.333 503.333 OFFCURVE",
"676 510 CURVE",
"631 510 LINE",
"630.333 500 OFFCURVE",
"629.667 491 OFFCURVE",
"629 483 CURVE SMOOTH",
"628.333 475 OFFCURVE",
"627.333 468.333 OFFCURVE",
"626 463 CURVE SMOOTH",
"623.333 451 OFFCURVE",
"619.333 442 OFFCURVE",
"614 436 CURVE",
"608 430 OFFCURVE",
"600.667 426 OFFCURVE",
"592 424 CURVE SMOOTH",
"583.333 422 OFFCURVE",
"572 421 OFFCURVE",
"558 421 CURVE SMOOTH",
"419 421 LINE",
"419 714 LINE",
"558 714 LINE SMOOTH",
"586 714 OFFCURVE",
"608.333 712 OFFCURVE",
"625 708 CURVE SMOOTH",
"641 704 OFFCURVE",
"653.667 697.333 OFFCURVE",
"663 688 CURVE SMOOTH",
"672.333 678.667 OFFCURVE",
"679 666.333 OFFCURVE",
"683 651 CURVE SMOOTH",
"685 643.667 OFFCURVE",
"687 635.333 OFFCURVE",
"689 626 CURVE SMOOTH",
"691 616.667 OFFCURVE",
"692.667 606.333 OFFCURVE",
"694 595 CURVE",
"737 594 LINE",
"731 757 LINE",
"711.667 756.333 OFFCURVE",
"691.667 756 OFFCURVE",
"671 756 CURVE SMOOTH",
"650.333 756 OFFCURVE",
"629.333 756 OFFCURVE",
"608 756 CURVE SMOOTH",
"586.667 755.333 OFFCURVE",
"565.167 755 OFFCURVE",
"543.5 755 CURVE SMOOTH",
"521.833 755 OFFCURVE",
"500.333 755 OFFCURVE",
"479 755 CURVE SMOOTH",
"457.667 755 OFFCURVE",
"436.167 755 OFFCURVE",
"414.5 755 CURVE SMOOTH",
"392.833 755 OFFCURVE",
"371.333 755.333 OFFCURVE",
"350 756 CURVE SMOOTH",
"328.667 756 OFFCURVE",
"307.833 756 OFFCURVE",
"287.5 756 CURVE SMOOTH",
"267.167 756 OFFCURVE",
"247.333 756.333 OFFCURVE",
"228 757 CURVE",
"228 719 LINE",
"281 716 LINE",
"294.333 714 OFFCURVE",
"304.333 710 OFFCURVE",
"311 704 CURVE SMOOTH",
"317 698.667 OFFCURVE",
"321.667 690 OFFCURVE",
"325 678 CURVE",
"327 666 OFFCURVE",
"328 650 OFFCURVE",
"328 630 CURVE SMOOTH",
"328 141 LINE SMOOTH",
"328 119.667 OFFCURVE",
"327 102.333 OFFCURVE",
"325 89 CURVE SMOOTH",
"323 75.667 OFFCURVE",
"318.667 65.667 OFFCURVE",
"312 59 CURVE SMOOTH",
"304.667 51.667 OFFCURVE",
"294.667 47 OFFCURVE",
"282 45 CURVE SMOOTH",
"269.333 43 OFFCURVE",
"251.333 42 OFFCURVE",
"228 42 CURVE",
"228 4 LINE",
"234.667 4.667 OFFCURVE",
"243 5 OFFCURVE",
"253 5 CURVE SMOOTH",
"263 5 OFFCURVE",
"274.667 5 OFFCURVE",
"288 5 CURVE SMOOTH",
"301.333 5 OFFCURVE",
"314.833 5 OFFCURVE",
"328.5 5 CURVE SMOOTH",
"342.167 5 OFFCURVE",
"356.333 5 OFFCURVE",
"371 5 CURVE SMOOTH",
"455 5 LINE SMOOTH",
"468.333 5 OFFCURVE",
"480 5 OFFCURVE",
"490 5 CURVE SMOOTH",
"500 5 OFFCURVE",
"508.333 4.667 OFFCURVE",
"515 4 CURVE",
"515 42 LINE",
"493.667 42 OFFCURVE",
"476.333 43 OFFCURVE",
"463 45 CURVE SMOOTH",
"450.333 47 OFFCURVE",
"441 51.333 OFFCURVE",
"435 58 CURVE",
"428.333 64.667 OFFCURVE",
"424 74.667 OFFCURVE",
"422 88 CURVE SMOOTH",
"420 101.333 OFFCURVE",
"419 119 OFFCURVE",
"419 141 CURVE"
);
}
);
width = 973;
}
);
note = uniFF26;
unicode = FF26;
},
{
glyphname = G.full;
layers = (
{
layerId = "59D766EC-4D78-4FC8-A1A0-9290DDB4C41B";
paths = (
{
closed = 1;
nodes = (
"794 556 LINE",
"773 717 LINE",
"751 725.667 OFFCURVE",
"729.333 733.333 OFFCURVE",
"708 740 CURVE SMOOTH",
"686.667 746.667 OFFCURVE",
"665.667 752.667 OFFCURVE",
"645 758 CURVE SMOOTH",
"604.333 768 OFFCURVE",
"559.667 773 OFFCURVE",
"511 773 CURVE SMOOTH",
"457.667 773 OFFCURVE",
"407.333 763 OFFCURVE",
"360 743 CURVE SMOOTH",
"313.333 723 OFFCURVE",
"272.333 695.333 OFFCURVE",
"237 660 CURVE SMOOTH",
"201.667 623.333 OFFCURVE",
"174 581.333 OFFCURVE",
"154 534 CURVE SMOOTH",
"134 486 OFFCURVE",
"124 434 OFFCURVE",
"124 378 CURVE SMOOTH",
"124 326 OFFCURVE",
"133.667 276 OFFCURVE",
"153 228 CURVE SMOOTH",
"172.333 181.333 OFFCURVE",
"199.667 140 OFFCURVE",
"235 104 CURVE SMOOTH",
"270.333 69.333 OFFCURVE",
"312.333 41.333 OFFCURVE",
"361 20 CURVE SMOOTH",
"409 -0.667 OFFCURVE",
"463 -11 OFFCURVE",
"523 -11 CURVE SMOOTH",
"569 -11 OFFCURVE",
"613.333 -6 OFFCURVE",
"656 4 CURVE SMOOTH",
"677.333 9.333 OFFCURVE",
"699.167 15.667 OFFCURVE",
"721.5 23 CURVE SMOOTH",
"743.833 30.333 OFFCURVE",
"767 39.333 OFFCURVE",
"791 50 CURVE",
"791 78 LINE",
"774 94 LINE",
"774 227 LINE SMOOTH",
"774 241.667 OFFCURVE",
"775.667 254.667 OFFCURVE",
"779 266 CURVE",
"782.333 276 OFFCURVE",
"787.333 283.333 OFFCURVE",
"794 288 CURVE",
"799.333 292.667 OFFCURVE",
"807 296 OFFCURVE",
"817 298 CURVE",
"821.667 298.667 OFFCURVE",
"826.667 299.167 OFFCURVE",
"832 299.5 CURVE SMOOTH",
"837.333 299.833 OFFCURVE",
"843 300 OFFCURVE",
"849 300 CURVE",
"849 337 LINE",
"841.667 336.333 OFFCURVE",
"833.167 336 OFFCURVE",
"823.5 336 CURVE SMOOTH",
"813.833 336 OFFCURVE",
"803.333 336 OFFCURVE",
"792 336 CURVE",
"780.667 335.333 OFFCURVE",
"769 335 OFFCURVE",
"757 335 CURVE SMOOTH",
"745 335 OFFCURVE",
"733 335 OFFCURVE",
"721 335 CURVE SMOOTH",
"708.333 335 OFFCURVE",
"696 335 OFFCURVE",
"684 335 CURVE SMOOTH",
"672 335 OFFCURVE",
"660.333 335.333 OFFCURVE",
"649 336 CURVE",
"637 336 OFFCURVE",
"626 336 OFFCURVE",
"616 336 CURVE SMOOTH",
"606 336 OFFCURVE",
"596.667 336.333 OFFCURVE",
"588 337 CURVE",
"588 299 LINE",
"596.667 299 OFFCURVE",
"604.667 298.833 OFFCURVE",
"612 298.5 CURVE SMOOTH",
"619.333 298.167 OFFCURVE",
"626 297.667 OFFCURVE",
"632 297 CURVE",
"644 296.333 OFFCURVE",
"654 293.333 OFFCURVE",
"662 288 CURVE",
"669.333 282.667 OFFCURVE",
"674.667 275.333 OFFCURVE",
"678 266 CURVE",
"681.333 254.667 OFFCURVE",
"683 241.667 OFFCURVE",
"683 227 CURVE SMOOTH",
"683 74 LINE",
"666 62 LINE",
"662.667 59.333 OFFCURVE",
"658.5 57 OFFCURVE",
"653.5 55 CURVE SMOOTH",
"648.5 53 OFFCURVE",
"643.333 51 OFFCURVE",
"638 49 CURVE",
"626 43.667 OFFCURVE",
"611.667 39.667 OFFCURVE",
"595 37 CURVE SMOOTH",
"586.333 35.667 OFFCURVE",
"577 34.5 OFFCURVE",
"567 33.5 CURVE SMOOTH",
"557 32.5 OFFCURVE",
"546.333 32 OFFCURVE",
"535 32 CURVE SMOOTH",
"486.333 32 OFFCURVE",
"442.333 42 OFFCURVE",
"403 62 CURVE SMOOTH",
"365 80.667 OFFCURVE",
"332.333 106.667 OFFCURVE",
"305 140 CURVE SMOOTH",
"278.333 172.667 OFFCURVE",
"258 210.333 OFFCURVE",
"244 253 CURVE SMOOTH",
"230 296.333 OFFCURVE",
"223 340.333 OFFCURVE",
"223 385 CURVE SMOOTH",
"223 427 OFFCURVE",
"229.667 469 OFFCURVE",
"243 511 CURVE SMOOTH",
"255.667 551 OFFCURVE",
"275.333 588 OFFCURVE",
"302 622 CURVE SMOOTH",
"328 654 OFFCURVE",
"360 680 OFFCURVE",
"398 700 CURVE SMOOTH",
"435.333 719.333 OFFCURVE",
"478 729 OFFCURVE",
"526 729 CURVE SMOOTH",
"586.667 729 OFFCURVE",
"636.333 715.667 OFFCURVE",
"675 689 CURVE SMOOTH",
"713 662.333 OFFCURVE",
"738.333 618 OFFCURVE",
"751 556 CURVE",
"794 556 LINE"
);
}
);
width = 973;
}
);
note = uniFF27;
unicode = FF27;
},
{
glyphname = H.full;
layers = (
{
layerId = "59D766EC-4D78-4FC8-A1A0-9290DDB4C41B";
paths = (
{
closed = 1;
nodes = (
"709 425 LINE",
"270 425 LINE",
"270 628 LINE SMOOTH",
"270 638 OFFCURVE",
"270.333 647 OFFCURVE",
"271 655 CURVE SMOOTH",
"271.667 663 OFFCURVE",
"272.667 670 OFFCURVE",
"274 676 CURVE",
"276 687.333 OFFCURVE",
"280.667 696.667 OFFCURVE",
"288 704 CURVE SMOOTH",
"294.667 710.667 OFFCURVE",
"304.333 715 OFFCURVE",
"317 717 CURVE SMOOTH",
"330.333 719 OFFCURVE",
"346.667 720 OFFCURVE",
"366 720 CURVE",
"366 758 LINE",
"361.333 757.333 OFFCURVE",
"356 757 OFFCURVE",
"350 757 CURVE SMOOTH",
"344 757 OFFCURVE",
"337.333 757 OFFCURVE",
"330 757 CURVE",
"322.667 756.333 OFFCURVE",
"314.833 756 OFFCURVE",
"306.5 756 CURVE SMOOTH",
"298.167 756 OFFCURVE",
"289.333 756 OFFCURVE",
"280 756 CURVE SMOOTH",
"271.333 756 OFFCURVE",
"262.167 756 OFFCURVE",
"252.5 756 CURVE SMOOTH",
"242.833 756 OFFCURVE",
"233 756 OFFCURVE",
"223 756 CURVE SMOOTH",
"166 756 LINE SMOOTH",
"157.333 756 OFFCURVE",
"148.833 756 OFFCURVE",
"140.5 756 CURVE SMOOTH",
"132.167 756 OFFCURVE",
"124.333 756.333 OFFCURVE",
"117 757 CURVE",
"109.667 757 OFFCURVE",
"103.167 757 OFFCURVE",
"97.5 757 CURVE SMOOTH",
"91.833 757 OFFCURVE",
"87 757.333 OFFCURVE",
"83 758 CURVE",
"83 720 LINE",
"103.667 720 OFFCURVE",
"120.333 719 OFFCURVE",
"133 717 CURVE SMOOTH",
"145.667 715 OFFCURVE",
"155.333 711 OFFCURVE",
"162 705 CURVE",
"168 699 OFFCURVE",
"172.667 689.667 OFFCURVE",
"176 677 CURVE",
"178 665 OFFCURVE",
"179 648.667 OFFCURVE",
"179 628 CURVE SMOOTH",
"179 142 LINE SMOOTH",
"179 122 OFFCURVE",
"178 105.333 OFFCURVE",
"176 92 CURVE",
"174.667 85.333 OFFCURVE",
"172.833 79.333 OFFCURVE",
"170.5 74 CURVE SMOOTH",
"168.167 68.667 OFFCURVE",
"165.333 64.333 OFFCURVE",
"162 61 CURVE SMOOTH",
"155.333 54.333 OFFCURVE",
"145.667 49.333 OFFCURVE",
"133 46 CURVE SMOOTH",
"121.667 43.333 OFFCURVE",
"105 42 OFFCURVE",
"83 42 CURVE",
"83 4 LINE",
"87.667 4.667 OFFCURVE",
"93 5 OFFCURVE",
"99 5 CURVE SMOOTH",
"105 5 OFFCURVE",
"111.667 5.333 OFFCURVE",
"119 6 CURVE",
"168 6 LINE SMOOTH",
"177.333 6 OFFCURVE",
"186.667 6 OFFCURVE",
"196 6 CURVE SMOOTH",
"205.333 6 OFFCURVE",
"215 6 OFFCURVE",
"225 6 CURVE SMOOTH",
"281 6 LINE",
"290.333 5.333 OFFCURVE",
"299.167 5 OFFCURVE",
"307.5 5 CURVE SMOOTH",
"315.833 5 OFFCURVE",
"323.667 5 OFFCURVE",
"331 5 CURVE",
"338.333 4.333 OFFCURVE",
"344.833 4 OFFCURVE",
"350.5 4 CURVE SMOOTH",
"356.167 4 OFFCURVE",
"361.333 4 OFFCURVE",
"366 4 CURVE",
"366 42 LINE",
"355.333 42 OFFCURVE",
"345.833 42.333 OFFCURVE",
"337.5 43 CURVE SMOOTH",
"329.167 43.667 OFFCURVE",
"322 44.667 OFFCURVE",
"316 46 CURVE SMOOTH",
"304 48.667 OFFCURVE",
"294.333 53.667 OFFCURVE",
"287 61 CURVE SMOOTH",
"279.667 68.333 OFFCURVE",
"275 78.333 OFFCURVE",
"273 91 CURVE SMOOTH",
"271 104.333 OFFCURVE",
"270 121.333 OFFCURVE",
"270 142 CURVE SMOOTH",
"270 372 LINE",
"709 372 LINE",
"709 142 LINE SMOOTH",
"709 122 OFFCURVE",
"708 105.333 OFFCURVE",
"706 92 CURVE",
"702.667 78 OFFCURVE",
"698 68 OFFCURVE",
"692 62 CURVE SMOOTH",
"684.667 54.667 OFFCURVE",
"675 49.667 OFFCURVE",
"663 47 CURVE SMOOTH",
"656.333 45.667 OFFCURVE",
"648.833 44.5 OFFCURVE",
"640.5 43.5 CURVE SMOOTH",
"632.167 42.5 OFFCURVE",
"622.667 42 OFFCURVE",
"612 42 CURVE",
"612 4 LINE",
"619.333 4.667 OFFCURVE",
"628 5 OFFCURVE",
"638 5 CURVE SMOOTH",
"648 5 OFFCURVE",
"659.667 5.333 OFFCURVE",
"673 6 CURVE",
"686.333 6 OFFCURVE",
"700 6 OFFCURVE",
"714 6 CURVE SMOOTH",
"728 6 OFFCURVE",
"742.333 6 OFFCURVE",
"757 6 CURVE SMOOTH",
"839 6 LINE",
"851.667 5.333 OFFCURVE",
"862.667 5 OFFCURVE",
"872 5 CURVE SMOOTH",
"881.333 5 OFFCURVE",
"889 4.667 OFFCURVE",
"895 4 CURVE",
"895 42 LINE",
"873.667 42 OFFCURVE",
"857.333 43.333 OFFCURVE",
"846 46 CURVE",
"834 48 OFFCURVE",
"824.333 52.667 OFFCURVE",
"817 60 CURVE SMOOTH",
"810.333 66.667 OFFCURVE",
"806 76.667 OFFCURVE",
"804 90 CURVE",
"801.333 101.333 OFFCURVE",
"800 118.667 OFFCURVE",
"800 142 CURVE SMOOTH",
"800 631 LINE SMOOTH",
"800 641 OFFCURVE",
"800.333 650 OFFCURVE",
"801 658 CURVE SMOOTH",
"801.667 666 OFFCURVE",
"802.667 673 OFFCURVE",
"804 679 CURVE",
"806 691 OFFCURVE",
"810.333 699.667 OFFCURVE",
"817 705 CURVE SMOOTH",
"824.333 711 OFFCURVE",
"834 715 OFFCURVE",
"846 717 CURVE SMOOTH",
"858 719 OFFCURVE",
"874.333 720 OFFCURVE",
"895 720 CURVE",
"895 758 LINE",
"889 757.333 OFFCURVE",
"881.333 757 OFFCURVE",
"872 757 CURVE SMOOTH",
"862.667 757 OFFCURVE",
"851.667 757 OFFCURVE",
"839 757 CURVE",
"826.333 756.333 OFFCURVE",
"813.167 756 OFFCURVE",
"799.5 756 CURVE SMOOTH",
"785.833 756 OFFCURVE",
"771.667 756 OFFCURVE",
"757 756 CURVE SMOOTH",
"742.333 756 OFFCURVE",
"728 756 OFFCURVE",
"714 756 CURVE SMOOTH",
"700 756 OFFCURVE",
"686.333 756.333 OFFCURVE",
"673 757 CURVE",
"659.667 757 OFFCURVE",
"648 757 OFFCURVE",
"638 757 CURVE SMOOTH",
"628 757 OFFCURVE",
"619.333 757.333 OFFCURVE",
"612 758 CURVE",
"612 720 LINE",
"622.667 720 OFFCURVE",
"632 719.833 OFFCURVE",
"640 719.5 CURVE SMOOTH",
"648 719.167 OFFCURVE",
"655.333 718.667 OFFCURVE",
"662 718 CURVE",
"675.333 716 OFFCURVE",
"685.333 712 OFFCURVE",
"692 706 CURVE SMOOTH",
"698 700.667 OFFCURVE",
"702.667 692 OFFCURVE",
"706 680 CURVE",
"708 668 OFFCURVE",
"709 651.667 OFFCURVE",
"709 631 CURVE SMOOTH",
"709 425 LINE"
);
}
);
width = 973;
}
);
note = uniFF28;
unicode = FF28;
},
{
glyphname = I.full;
layers = (
{
layerId = "59D766EC-4D78-4FC8-A1A0-9290DDB4C41B";
paths = (
{
closed = 1;
nodes = (
"435 629 LINE",
"435 142 LINE SMOOTH",
"435 120 OFFCURVE",
"433.667 103.333 OFFCURVE",
"431 92 CURVE SMOOTH",
"429.667 85.333 OFFCURVE",
"427.833 79.333 OFFCURVE",
"425.5 74 CURVE SMOOTH",
"423.167 68.667 OFFCURVE",
"420.333 64.333 OFFCURVE",
"417 61 CURVE SMOOTH",
"410.333 54.333 OFFCURVE",
"400.667 49.333 OFFCURVE",
"388 46 CURVE SMOOTH",
"376.667 43.333 OFFCURVE",
"360.333 42 OFFCURVE",
"339 42 CURVE",
"339 4 LINE",
"343.667 4.667 OFFCURVE",
"349 5 OFFCURVE",
"355 5 CURVE SMOOTH",
"361 5 OFFCURVE",
"367.667 5.333 OFFCURVE",
"375 6 CURVE",
"424 6 LINE SMOOTH",
"433.333 6 OFFCURVE",
"442.667 6 OFFCURVE",
"452 6 CURVE SMOOTH",
"461.333 6 OFFCURVE",
"471 6 OFFCURVE",
"481 6 CURVE SMOOTH",
"537 6 LINE",
"546.333 5.333 OFFCURVE",
"555.167 5 OFFCURVE",
"563.5 5 CURVE SMOOTH",
"571.833 5 OFFCURVE",
"579.667 5 OFFCURVE",
"587 5 CURVE",
"594.333 4.333 OFFCURVE",
"600.833 4 OFFCURVE",
"606.5 4 CURVE SMOOTH",
"612.167 4 OFFCURVE",
"617.333 4 OFFCURVE",
"622 4 CURVE",
"622 42 LINE",
"612 42 OFFCURVE",
"603 42.333 OFFCURVE",
"595 43 CURVE SMOOTH",
"587 43.667 OFFCURVE",
"580 44.667 OFFCURVE",
"574 46 CURVE SMOOTH",
"562 48.667 OFFCURVE",
"552.333 53.667 OFFCURVE",
"545 61 CURVE",
"538.333 68.333 OFFCURVE",
"533.333 78.333 OFFCURVE",
"530 91 CURVE",
"528.667 97.667 OFFCURVE",
"527.667 105.167 OFFCURVE",
"527 113.5 CURVE SMOOTH",
"526.333 121.833 OFFCURVE",
"526 131.333 OFFCURVE",
"526 142 CURVE SMOOTH",
"526 629 LINE SMOOTH",
"526 651 OFFCURVE",
"527.333 667.333 OFFCURVE",
"530 678 CURVE",
"532 690 OFFCURVE",
"536.667 699 OFFCURVE",
"544 705 CURVE SMOOTH",
"551.333 711 OFFCURVE",
"561 715 OFFCURVE",
"573 717 CURVE SMOOTH",
"585 719 OFFCURVE",
"601.333 720 OFFCURVE",
"622 720 CURVE",
"622 758 LINE",
"617.333 757.333 OFFCURVE",
"612 757 OFFCURVE",
"606 757 CURVE SMOOTH",
"600 757 OFFCURVE",
"593.333 757 OFFCURVE",
"586 757 CURVE SMOOTH",
"536 757 LINE",
"527.333 756.333 OFFCURVE",
"518.167 756 OFFCURVE",
"508.5 756 CURVE SMOOTH",
"498.833 756 OFFCURVE",
"489 756 OFFCURVE",
"479 756 CURVE SMOOTH",
"422 756 LINE SMOOTH",
"413.333 756 OFFCURVE",
"404.833 756 OFFCURVE",
"396.5 756 CURVE SMOOTH",
"388.167 756 OFFCURVE",
"380.333 756.333 OFFCURVE",
"373 757 CURVE",
"365.667 757 OFFCURVE",
"359.167 757 OFFCURVE",
"353.5 757 CURVE SMOOTH",
"347.833 757 OFFCURVE",
"343 757.333 OFFCURVE",
"339 758 CURVE",
"339 720 LINE",
"359.667 720 OFFCURVE",
"376.333 719 OFFCURVE",
"389 717 CURVE SMOOTH",
"401 715 OFFCURVE",
"410.667 711 OFFCURVE",
"418 705 CURVE",
"424 699.667 OFFCURVE",
"428.667 690.667 OFFCURVE",
"432 678 CURVE",
"434 666 OFFCURVE",
"435 649.667 OFFCURVE",
"435 629 CURVE"
);
}
);
width = 973;
}
);
note = uniFF29;
unicode = FF29;
},
{
glyphname = J.full;
layers = (
{
layerId = "59D766EC-4D78-4FC8-A1A0-9290DDB4C41B";
paths = (
{
closed = 1;
nodes = (
"577 203 LINE",
"577 729 LINE SMOOTH",
"577 751 OFFCURVE",
"578.333 767.667 OFFCURVE",
"581 779 CURVE",
"583 791.667 OFFCURVE",
"587.333 800.667 OFFCURVE",
"594 806 CURVE SMOOTH",
"601.333 812 OFFCURVE",
"611 816 OFFCURVE",
"623 818 CURVE SMOOTH",
"635 820 OFFCURVE",
"651.333 821 OFFCURVE",
"672 821 CURVE",
"672 859 LINE",
"665.333 858.333 OFFCURVE",
"657.333 858 OFFCURVE",
"648 858 CURVE SMOOTH",
"638.667 858 OFFCURVE",
"627.333 858 OFFCURVE",
"614 858 CURVE",
"600.667 857.333 OFFCURVE",
"587.167 857 OFFCURVE",
"573.5 857 CURVE SMOOTH",
"559.833 857 OFFCURVE",
"545.667 857 OFFCURVE",
"531 857 CURVE SMOOTH",
"516.333 857 OFFCURVE",
"502.167 857 OFFCURVE",
"488.5 857 CURVE SMOOTH",
"474.833 857 OFFCURVE",
"461.333 857.333 OFFCURVE",
"448 858 CURVE",
"434.667 858 OFFCURVE",
"423.167 858 OFFCURVE",
"413.5 858 CURVE SMOOTH",
"403.833 858 OFFCURVE",
"395.667 858.333 OFFCURVE",
"389 859 CURVE",
"389 821 LINE",
"409.667 821 OFFCURVE",
"426.333 820 OFFCURVE",
"439 818 CURVE SMOOTH",
"451.667 816 OFFCURVE",
"461.333 812 OFFCURVE",
"468 806 CURVE",
"474 800 OFFCURVE",
"478.667 790.667 OFFCURVE",
"482 778 CURVE",
"484 766 OFFCURVE",
"485 749.667 OFFCURVE",
"485 729 CURVE SMOOTH",
"485 136 LINE SMOOTH",
"485 62 OFFCURVE",
"478.667 8 OFFCURVE",
"466 -26 CURVE SMOOTH",
"453.333 -60.667 OFFCURVE",
"430 -78 OFFCURVE",
"396 -78 CURVE SMOOTH",
"380 -78 OFFCURVE",
"369.333 -74.333 OFFCURVE",
"364 -67 CURVE",
"358.667 -58.333 OFFCURVE",
"356 -48.667 OFFCURVE",
"356 -38 CURVE SMOOTH",
"356 -26 OFFCURVE",
"350.333 -15 OFFCURVE",
"339 -5 CURVE SMOOTH",
"328.333 5 OFFCURVE",
"315 9.333 OFFCURVE",
"299 8 CURVE",
"285 7.333 OFFCURVE",
"274.333 1.333 OFFCURVE",
"267 -10 CURVE SMOOTH",
"259.667 -20.667 OFFCURVE",
"256.333 -32.333 OFFCURVE",
"257 -45 CURVE",
"257 -58.333 OFFCURVE",
"260.333 -69.667 OFFCURVE",
"267 -79 CURVE",
"274.333 -87.667 OFFCURVE",
"283.333 -95.667 OFFCURVE",
"294 -103 CURVE",
"299.333 -105.667 OFFCURVE",
"305.167 -108.333 OFFCURVE",
"311.5 -111 CURVE SMOOTH",
"317.833 -113.667 OFFCURVE",
"324.333 -115.667 OFFCURVE",
"331 -117 CURVE SMOOTH",
"337.667 -118.333 OFFCURVE",
"344.5 -119.333 OFFCURVE",
"351.5 -120 CURVE SMOOTH",
"358.5 -120.667 OFFCURVE",
"365.667 -121 OFFCURVE",
"373 -121 CURVE SMOOTH",
"443 -121 OFFCURVE",
"494.333 -94 OFFCURVE",
"527 -40 CURVE SMOOTH",
"560.333 14.667 OFFCURVE",
"577 95.667 OFFCURVE",
"577 203 CURVE"
);
}
);
width = 973;
}
);
note = uniFF2A;
unicode = FF2A;
},
{
glyphname = K.full;
layers = (
{
layerId = "59D766EC-4D78-4FC8-A1A0-9290DDB4C41B";
paths = (
{
closed = 1;
nodes = (
"742 77 LINE",
"470 446 LINE",
"635 608 LINE SMOOTH",
"646.333 619.333 OFFCURVE",
"657.167 629.667 OFFCURVE",
"667.5 639 CURVE SMOOTH",
"677.833 648.333 OFFCURVE",
"687.333 656.667 OFFCURVE",
"696 664 CURVE SMOOTH",
"704.667 671.333 OFFCURVE",
"712.667 677.833 OFFCURVE",
"720 683.5 CURVE SMOOTH",
"727.333 689.167 OFFCURVE",
"734.333 694.333 OFFCURVE",
"741 699 CURVE",
"755 707.667 OFFCURVE",
"767.667 713.333 OFFCURVE",
"779 716 CURVE SMOOTH",
"789 718.667 OFFCURVE",
"801 720 OFFCURVE",
"815 720 CURVE",
"815 757 LINE",
"809.667 756.333 OFFCURVE",
"803.167 756 OFFCURVE",
"795.5 756 CURVE SMOOTH",
"787.833 756 OFFCURVE",
"779 756 OFFCURVE",
"769 756 CURVE SMOOTH",
"748.333 755.333 OFFCURVE",
"727 755.333 OFFCURVE",
"705 756 CURVE SMOOTH",
"694.333 756 OFFCURVE",
"683.667 756 OFFCURVE",
"673 756 CURVE SMOOTH",
"662.333 756 OFFCURVE",
"651.667 756.333 OFFCURVE",
"641 757 CURVE",
"630.333 757 OFFCURVE",
"621 757 OFFCURVE",
"613 757 CURVE SMOOTH",
"605 757 OFFCURVE",
"598 757.333 OFFCURVE",
"592 758 CURVE",
"592 720 LINE",
"613.333 720 OFFCURVE",
"628.333 719 OFFCURVE",
"637 717 CURVE SMOOTH",
"645.667 715 OFFCURVE",
"650 709.333 OFFCURVE",
"650 700 CURVE SMOOTH",
"650 697.333 OFFCURVE",
"648.333 692.667 OFFCURVE",
"645 686 CURVE",
"643 683.333 OFFCURVE",
"640.833 680.5 OFFCURVE",
"638.5 677.5 CURVE SMOOTH",
"636.167 674.5 OFFCURVE",
"633.667 671.333 OFFCURVE",
"631 668 CURVE",
"628.333 665.333 OFFCURVE",
"625.667 662.5 OFFCURVE",
"623 659.5 CURVE SMOOTH",
"620.333 656.5 OFFCURVE",
"617.667 653.667 OFFCURVE",
"615 651 CURVE SMOOTH",
"603 639 LINE",
"347 390 LINE",
"347 627 LINE SMOOTH",
"347 647.667 OFFCURVE",
"348 664.333 OFFCURVE",
"350 677 CURVE SMOOTH",
"352 688.333 OFFCURVE",
"356 697.667 OFFCURVE",
"362 705 CURVE",
"368 711 OFFCURVE",
"376.333 715 OFFCURVE",
"387 717 CURVE SMOOTH",
"397 719 OFFCURVE",
"410.333 720 OFFCURVE",
"427 720 CURVE",
"427 758 LINE",
"421.667 757.333 OFFCURVE",
"414.667 757 OFFCURVE",
"406 757 CURVE SMOOTH",
"397.333 757 OFFCURVE",
"386.667 757 OFFCURVE",
"374 757 CURVE",
"361.333 756.333 OFFCURVE",
"348.5 756 OFFCURVE",
"335.5 756 CURVE SMOOTH",
"322.5 756 OFFCURVE",
"309.333 756 OFFCURVE",
"296 756 CURVE SMOOTH",
"282 756 OFFCURVE",
"268.333 756 OFFCURVE",
"255 756 CURVE SMOOTH",
"241.667 756 OFFCURVE",
"228.667 756.333 OFFCURVE",
"216 757 CURVE",
"203.333 757 OFFCURVE",
"192.333 757 OFFCURVE",
"183 757 CURVE SMOOTH",
"173.667 757 OFFCURVE",
"166 757.333 OFFCURVE",
"160 758 CURVE",
"160 720 LINE",
"180.667 720 OFFCURVE",
"197.333 719 OFFCURVE",
"210 717 CURVE SMOOTH",
"222.667 715 OFFCURVE",
"232.333 711 OFFCURVE",
"239 705 CURVE",
"245 699 OFFCURVE",
"249.667 689.667 OFFCURVE",
"253 677 CURVE",
"255 664.333 OFFCURVE",
"256 647.667 OFFCURVE",
"256 627 CURVE SMOOTH",
"256 141 LINE SMOOTH",
"256 119.667 OFFCURVE",
"255 102.333 OFFCURVE",
"253 89 CURVE",
"250.333 76.333 OFFCURVE",
"245.667 66.667 OFFCURVE",
"239 60 CURVE SMOOTH",
"231.667 52.667 OFFCURVE",
"221.667 48 OFFCURVE",
"209 46 CURVE",
"197.667 43.333 OFFCURVE",
"181.333 42 OFFCURVE",
"160 42 CURVE",
"160 4 LINE",
"166.667 4.667 OFFCURVE",
"174.833 5 OFFCURVE",
"184.5 5 CURVE SMOOTH",
"194.167 5 OFFCURVE",
"205.333 5.333 OFFCURVE",
"218 6 CURVE",
"230.667 6 OFFCURVE",
"243.667 6 OFFCURVE",
"257 6 CURVE SMOOTH",
"270.333 6 OFFCURVE",
"284 6 OFFCURVE",
"298 6 CURVE SMOOTH",
"377 6 LINE",
"389.667 5.333 OFFCURVE",
"400.5 5 OFFCURVE",
"409.5 5 CURVE SMOOTH",
"418.5 5 OFFCURVE",
"426 4.667 OFFCURVE",
"432 4 CURVE",
"432 42 LINE",
"414 42 OFFCURVE",
"400 43.333 OFFCURVE",
"390 46 CURVE",
"378.667 48 OFFCURVE",
"370 52.667 OFFCURVE",
"364 60 CURVE",
"357.333 66.667 OFFCURVE",
"353 76.333 OFFCURVE",
"351 89 CURVE",
"348.333 100.333 OFFCURVE",
"347 117.667 OFFCURVE",
"347 141 CURVE SMOOTH",
"347 326 LINE",
"413 391 LINE",
"690 5 LINE",
"694 5.667 OFFCURVE",
"699 6 OFFCURVE",
"705 6 CURVE SMOOTH",
"711 6 OFFCURVE",
"717.667 6 OFFCURVE",
"725 6 CURVE SMOOTH",
"732.333 6 OFFCURVE",
"740 6 OFFCURVE",
"748 6 CURVE SMOOTH",
"756 6 OFFCURVE",
"764.333 6 OFFCURVE",
"773 6 CURVE SMOOTH",
"821 6 LINE SMOOTH",
"828.333 6 OFFCURVE",
"835 6 OFFCURVE",
"841 6 CURVE SMOOTH",
"847 6 OFFCURVE",
"852.333 5.667 OFFCURVE",
"857 5 CURVE",
"857 42 LINE",
"854.333 42 OFFCURVE",
"851.167 42 OFFCURVE",
"847.5 42 CURVE SMOOTH",
"843.833 42 OFFCURVE",
"839.333 42.333 OFFCURVE",
"834 43 CURVE",
"824 43 OFFCURVE",
"813.333 44 OFFCURVE",
"802 46 CURVE SMOOTH",
"790 48 OFFCURVE",
"779 51.333 OFFCURVE",
"769 56 CURVE SMOOTH",
"758.333 61.333 OFFCURVE",
"749.333 68.333 OFFCURVE",
"742 77 CURVE"
);
}
);
width = 973;
}
);
note = uniFF2B;
unicode = FF2B;
},
{
glyphname = L.full;
layers = (
{
layerId = "59D766EC-4D78-4FC8-A1A0-9290DDB4C41B";
paths = (
{
closed = 1;
nodes = (
"743 5 LINE",
"786 179 LINE",
"745 179 LINE",
"738.333 152.333 OFFCURVE",
"730.667 130 OFFCURVE",
"722 112 CURVE",
"717.333 103.333 OFFCURVE",
"712.5 95.667 OFFCURVE",
"707.5 89 CURVE SMOOTH",
"702.5 82.333 OFFCURVE",
"696.667 76.667 OFFCURVE",
"690 72 CURVE SMOOTH",
"683.333 67.333 OFFCURVE",
"676.333 63.333 OFFCURVE",
"669 60 CURVE SMOOTH",
"661.667 56.667 OFFCURVE",
"653.333 54.333 OFFCURVE",
"644 53 CURVE SMOOTH",
"635.333 51.667 OFFCURVE",
"625.333 50.5 OFFCURVE",
"614 49.5 CURVE SMOOTH",
"602.667 48.5 OFFCURVE",
"590.333 48 OFFCURVE",
"577 48 CURVE SMOOTH",
"539.667 48 OFFCURVE",
"509.333 49 OFFCURVE",
"486 51 CURVE SMOOTH",
"460.667 53 OFFCURVE",
"442 57.333 OFFCURVE",
"430 64 CURVE SMOOTH",
"416.667 71.333 OFFCURVE",
"407.667 81 OFFCURVE",
"403 93 CURVE SMOOTH",
"398.333 105 OFFCURVE",
"396 122 OFFCURVE",
"396 144 CURVE SMOOTH",
"396 628 LINE SMOOTH",
"396 650 OFFCURVE",
"397.333 666.333 OFFCURVE",
"400 677 CURVE",
"402 688.333 OFFCURVE",
"406.667 697.667 OFFCURVE",
"414 705 CURVE",
"421.333 711 OFFCURVE",
"431 715 OFFCURVE",
"443 717 CURVE SMOOTH",
"456.333 719 OFFCURVE",
"473 720 OFFCURVE",
"493 720 CURVE",
"493 758 LINE",
"486.333 757.333 OFFCURVE",
"477.833 757 OFFCURVE",
"467.5 757 CURVE SMOOTH",
"457.167 757 OFFCURVE",
"445.333 757 OFFCURVE",
"432 757 CURVE",
"418.667 756.333 OFFCURVE",
"405.167 756 OFFCURVE",
"391.5 756 CURVE SMOOTH",
"377.833 756 OFFCURVE",
"363.667 756 OFFCURVE",
"349 756 CURVE SMOOTH",
"334.333 756 OFFCURVE",
"320.167 756 OFFCURVE",
"306.5 756 CURVE SMOOTH",
"292.833 756 OFFCURVE",
"279.667 756.333 OFFCURVE",
"267 757 CURVE",
"254.333 757 OFFCURVE",
"243.167 757 OFFCURVE",
"233.5 757 CURVE SMOOTH",
"223.833 757 OFFCURVE",
"216 757.333 OFFCURVE",
"210 758 CURVE",
"210 720 LINE",
"230.667 720 OFFCURVE",
"247.333 719 OFFCURVE",
"260 717 CURVE SMOOTH",
"271.333 715 OFFCURVE",
"280.667 711 OFFCURVE",
"288 705 CURVE",
"294 699.667 OFFCURVE",
"298.667 690.667 OFFCURVE",
"302 678 CURVE",
"304 665.333 OFFCURVE",
"305 648.667 OFFCURVE",
"305 628 CURVE SMOOTH",
"305 144 LINE SMOOTH",
"305 122 OFFCURVE",
"304 104.333 OFFCURVE",
"302 91 CURVE",
"300.667 84.333 OFFCURVE",
"298.833 78.333 OFFCURVE",
"296.5 73 CURVE SMOOTH",
"294.167 67.667 OFFCURVE",
"291.333 63.333 OFFCURVE",
"288 60 CURVE SMOOTH",
"280.667 52.667 OFFCURVE",
"271.333 48 OFFCURVE",
"260 46 CURVE SMOOTH",
"253.333 44.667 OFFCURVE",
"246 43.667 OFFCURVE",
"238 43 CURVE SMOOTH",
"230 42.333 OFFCURVE",
"220.667 41.667 OFFCURVE",
"210 41 CURVE",
"210 5 LINE",
"226.667 5.667 OFFCURVE",
"245 6 OFFCURVE",
"265 6 CURVE SMOOTH",
"285 6 OFFCURVE",
"307 6.333 OFFCURVE",
"331 7 CURVE SMOOTH",
"354.333 7.667 OFFCURVE",
"378.333 8 OFFCURVE",
"403 8 CURVE SMOOTH",
"427.667 8 OFFCURVE",
"452.667 8 OFFCURVE",
"478 8 CURVE SMOOTH",
"503.333 8 OFFCURVE",
"528.167 8 OFFCURVE",
"552.5 8 CURVE SMOOTH",
"576.833 8 OFFCURVE",
"600.667 7.667 OFFCURVE",
"624 7 CURVE SMOOTH",
"647.333 6.333 OFFCURVE",
"669 6 OFFCURVE",
"689 6 CURVE SMOOTH",
"709 6 OFFCURVE",
"727 5.667 OFFCURVE",
"743 5 CURVE"
);
}
);
width = 973;
}
);
note = uniFF2C;
unicode = FF2C;
},
{
glyphname = M.full;
layers = (
{
layerId = "59D766EC-4D78-4FC8-A1A0-9290DDB4C41B";
paths = (
{
closed = 1;
nodes = (
"494 -1 LINE",
"757 608 LINE",
"762 144 LINE SMOOTH",
"762 133.333 OFFCURVE",
"761.667 123.667 OFFCURVE",
"761 115 CURVE SMOOTH",
"760.333 106.333 OFFCURVE",
"759.333 98.667 OFFCURVE",
"758 92 CURVE",
"754.667 78 OFFCURVE",
"749.667 67.667 OFFCURVE",
"743 61 CURVE SMOOTH",
"736.333 54.333 OFFCURVE",
"726 49.333 OFFCURVE",
"712 46 CURVE",
"705.333 44.667 OFFCURVE",
"697.667 43.667 OFFCURVE",
"689 43 CURVE SMOOTH",
"680.333 42.333 OFFCURVE",
"670.667 42 OFFCURVE",
"660 42 CURVE",
"660 5 LINE",
"667.333 5 OFFCURVE",
"676.167 5 OFFCURVE",
"686.5 5 CURVE SMOOTH",
"696.833 5 OFFCURVE",
"709 5.333 OFFCURVE",
"723 6 CURVE",
"736.333 6 OFFCURVE",
"750.333 6 OFFCURVE",
"765 6 CURVE SMOOTH",
"779.667 6 OFFCURVE",
"794.667 6 OFFCURVE",
"810 6 CURVE SMOOTH",
"897 6 LINE",
"910.333 5.333 OFFCURVE",
"922.333 5 OFFCURVE",
"933 5 CURVE SMOOTH",
"943.667 5 OFFCURVE",
"952.333 5 OFFCURVE",
"959 5 CURVE",
"959 42 LINE",
"947.667 42 OFFCURVE",
"937.333 42.333 OFFCURVE",
"928 43 CURVE SMOOTH",
"918.667 43.667 OFFCURVE",
"910.333 44.667 OFFCURVE",
"903 46 CURVE",
"888.333 49.333 OFFCURVE",
"877 54.667 OFFCURVE",
"869 62 CURVE SMOOTH",
"861.667 68.667 OFFCURVE",
"856.333 79 OFFCURVE",
"853 93 CURVE",
"850.333 106.333 OFFCURVE",
"848.333 123.333 OFFCURVE",
"847 144 CURVE",
"837 635 LINE",
"837 665.667 OFFCURVE",
"843 687.333 OFFCURVE",
"855 700 CURVE SMOOTH",
"867 713.333 OFFCURVE",
"890.333 720 OFFCURVE",
"925 720 CURVE",
"925 759 LINE",
"921.667 758.333 OFFCURVE",
"917.333 757.833 OFFCURVE",
"912 757.5 CURVE SMOOTH",
"906.667 757.167 OFFCURVE",
"900.333 757 OFFCURVE",
"893 757 CURVE",
"885.667 756.333 OFFCURVE",
"878 756 OFFCURVE",
"870 756 CURVE SMOOTH",
"862 756 OFFCURVE",
"853.667 756 OFFCURVE",
"845 756 CURVE",
"827.667 754.667 OFFCURVE",
"811.333 754.667 OFFCURVE",
"796 756 CURVE",
"788 756 OFFCURVE",
"781 756 OFFCURVE",
"775 756 CURVE SMOOTH",
"769 756 OFFCURVE",
"764 756.333 OFFCURVE",
"760 757 CURVE",
"492 127 LINE",
"216 758 LINE",
"212.667 757.333 OFFCURVE",
"208.5 757 OFFCURVE",
"203.5 757 CURVE SMOOTH",
"198.5 757 OFFCURVE",
"192.667 756.667 OFFCURVE",
"186 756 CURVE SMOOTH",
"179.333 755.333 OFFCURVE",
"172.333 755 OFFCURVE",
"165 755 CURVE SMOOTH",
"157.667 755 OFFCURVE",
"150.333 755 OFFCURVE",
"143 755 CURVE SMOOTH",
"135.667 755 OFFCURVE",
"128.167 755 OFFCURVE",
"120.5 755 CURVE SMOOTH",
"112.833 755 OFFCURVE",
"105.333 755.333 OFFCURVE",
"98 756 CURVE",
"90.667 756 OFFCURVE",
"83.833 756.167 OFFCURVE",
"77.5 756.5 CURVE SMOOTH",
"71.167 756.833 OFFCURVE",
"65.333 757.333 OFFCURVE",
"60 758 CURVE",
"60 720 LINE",
"92.667 720 OFFCURVE",
"115.333 713.667 OFFCURVE",
"128 701 CURVE SMOOTH",
"140.667 688.333 OFFCURVE",
"147 666 OFFCURVE",
"147 634 CURVE SMOOTH",
"138 144 LINE SMOOTH",
"137.333 122.667 OFFCURVE",
"134.667 105 OFFCURVE",
"130 91 CURVE SMOOTH",
"126 77.667 OFFCURVE",
"119.667 67.667 OFFCURVE",
"111 61 CURVE SMOOTH",
"101.667 53.667 OFFCURVE",
"89.667 49 OFFCURVE",
"75 47 CURVE",
"67.667 45.667 OFFCURVE",
"59.333 44.667 OFFCURVE",
"50 44 CURVE SMOOTH",
"40.667 43.333 OFFCURVE",
"30.333 42.667 OFFCURVE",
"19 42 CURVE",
"19 4 LINE",
"26.333 4.667 OFFCURVE",
"34.833 5 OFFCURVE",
"44.5 5 CURVE SMOOTH",
"54.167 5 OFFCURVE",
"64.667 5.333 OFFCURVE",
"76 6 CURVE",
"87.333 6 OFFCURVE",
"98.833 6 OFFCURVE",
"110.5 6 CURVE SMOOTH",
"122.167 6 OFFCURVE",
"134 6 OFFCURVE",
"146 6 CURVE SMOOTH",
"216 6 LINE SMOOTH",
"227.333 6 OFFCURVE",
"237.5 6 OFFCURVE",
"246.5 6 CURVE SMOOTH",
"255.5 6 OFFCURVE",
"263.667 5.667 OFFCURVE",
"271 5 CURVE",
"271 41 LINE",
"254.333 42.333 OFFCURVE",
"241.333 44.667 OFFCURVE",
"232 48 CURVE SMOOTH",
"222 51.333 OFFCURVE",
"214.333 57 OFFCURVE",
"209 65 CURVE",
"203 73 OFFCURVE",
"199 83.333 OFFCURVE",
"197 96 CURVE SMOOTH",
"195 108 OFFCURVE",
"194 123 OFFCURVE",
"194 141 CURVE SMOOTH",
"202 590 LINE",
"460 -1 LINE",
"494 -1 LINE"
);
}
);
width = 973;
}
);
note = uniFF2D;
unicode = FF2D;
},
{
glyphname = N.full;
layers = (
{
layerId = "59D766EC-4D78-4FC8-A1A0-9290DDB4C41B";
paths = (
{
closed = 1;
nodes = (
"793 -5 LINE",
"793 625 LINE SMOOTH",
"793 646.333 OFFCURVE",
"794 663.333 OFFCURVE",
"796 676 CURVE SMOOTH",
"798 688.667 OFFCURVE",
"802.333 698.333 OFFCURVE",
"809 705 CURVE",
"816.333 711 OFFCURVE",
"826.333 715 OFFCURVE",
"839 717 CURVE SMOOTH",
"852.333 719 OFFCURVE",
"869.667 720 OFFCURVE",
"891 720 CURVE",
"891 758 LINE",
"885 757.333 OFFCURVE",
"877.5 757 OFFCURVE",
"868.5 757 CURVE SMOOTH",
"859.5 757 OFFCURVE",
"849.333 757 OFFCURVE",
"838 757 CURVE",
"826 756.333 OFFCURVE",
"813.833 756 OFFCURVE",
"801.5 756 CURVE SMOOTH",
"789.167 756 OFFCURVE",
"776.333 756 OFFCURVE",
"763 756 CURVE SMOOTH",
"750.333 756 OFFCURVE",
"737.667 756 OFFCURVE",
"725 756 CURVE SMOOTH",
"712.333 756 OFFCURVE",
"700 756.333 OFFCURVE",
"688 757 CURVE",
"676 757 OFFCURVE",
"665.5 757 OFFCURVE",
"656.5 757 CURVE SMOOTH",
"647.5 757 OFFCURVE",
"639.667 757.333 OFFCURVE",
"633 758 CURVE",
"633 720 LINE",
"655 720 OFFCURVE",
"672.333 719 OFFCURVE",
"685 717 CURVE",
"699 713.667 OFFCURVE",
"709 709 OFFCURVE",
"715 703 CURVE SMOOTH",
"721 697 OFFCURVE",
"725.667 687.667 OFFCURVE",
"729 675 CURVE",
"731 662.333 OFFCURVE",
"732 645.667 OFFCURVE",
"732 625 CURVE SMOOTH",
"732 143 LINE",
"225 757 LINE",
"221.667 756.333 OFFCURVE",
"217.167 756 OFFCURVE",
"211.5 756 CURVE SMOOTH",
"205.833 756 OFFCURVE",
"199.333 756 OFFCURVE",
"192 756 CURVE",
"184.667 755.333 OFFCURVE",
"176.833 755 OFFCURVE",
"168.5 755 CURVE SMOOTH",
"160.167 755 OFFCURVE",
"151.667 755 OFFCURVE",
"143 755 CURVE SMOOTH",
"134.333 755 OFFCURVE",
"125.833 755 OFFCURVE",
"117.5 755 CURVE SMOOTH",
"109.167 755 OFFCURVE",
"101 755.333 OFFCURVE",
"93 756 CURVE",
"84.333 756 OFFCURVE",
"77 756 OFFCURVE",
"71 756 CURVE SMOOTH",
"65 756 OFFCURVE",
"60 756.333 OFFCURVE",
"56 757 CURVE",
"56 720 LINE",
"103.333 720 OFFCURVE",
"136.667 713.333 OFFCURVE",
"156 700 CURVE SMOOTH",
"175.333 686.667 OFFCURVE",
"185 661.333 OFFCURVE",
"185 624 CURVE SMOOTH",
"185 141 LINE SMOOTH",
"185 120.333 OFFCURVE",
"183.333 102.667 OFFCURVE",
"180 88 CURVE SMOOTH",
"177.333 75.333 OFFCURVE",
"171.667 65.333 OFFCURVE",
"163 58 CURVE",
"154.333 51.333 OFFCURVE",
"143 47 OFFCURVE",
"129 45 CURVE SMOOTH",
"114.333 43 OFFCURVE",
"96 42 OFFCURVE",
"74 42 CURVE",
"74 4 LINE",
"82 4.667 OFFCURVE",
"91 5 OFFCURVE",
"101 5 CURVE SMOOTH",
"111 5 OFFCURVE",
"122 5.333 OFFCURVE",
"134 6 CURVE",
"145.333 6 OFFCURVE",
"157.167 6 OFFCURVE",
"169.5 6 CURVE SMOOTH",
"181.833 6 OFFCURVE",
"194.333 6 OFFCURVE",
"207 6 CURVE SMOOTH",
"281 6 LINE SMOOTH",
"292.333 6 OFFCURVE",
"303 6 OFFCURVE",
"313 6 CURVE SMOOTH",
"323 6 OFFCURVE",
"332.333 5.667 OFFCURVE",
"341 5 CURVE",
"341 42 LINE",
"321.667 42 OFFCURVE",
"305.333 43 OFFCURVE",
"292 45 CURVE",
"280.667 45.667 OFFCURVE",
"271 50 OFFCURVE",
"263 58 CURVE",
"256.333 65.333 OFFCURVE",
"251.333 75.333 OFFCURVE",
"248 88 CURVE",
"246.667 94.667 OFFCURVE",
"245.667 102.5 OFFCURVE",
"245 111.5 CURVE SMOOTH",
"244.333 120.5 OFFCURVE",
"244 130.667 OFFCURVE",
"244 142 CURVE SMOOTH",
"244 617 LINE",
"746 -5 LINE",
"793 -5 LINE"
);
}
);
width = 973;
}
);
note = uniFF2E;
unicode = FF2E;
},
{
glyphname = O.full;
layers = (
{
layerId = "59D766EC-4D78-4FC8-A1A0-9290DDB4C41B";
paths = (
{
closed = 1;
nodes = (
"858 435.667 OFFCURVE",
"848.333 485 OFFCURVE",
"829 533 CURVE SMOOTH",
"819.667 556.333 OFFCURVE",
"808.333 578.333 OFFCURVE",
"795 599 CURVE SMOOTH",
"781.667 619.667 OFFCURVE",
"766.667 639 OFFCURVE",
"750 657 CURVE SMOOTH",
"733.333 674.333 OFFCURVE",
"715.333 690.167 OFFCURVE",
"696 704.5 CURVE SMOOTH",
"676.667 718.833 OFFCURVE",
"655.667 731.333 OFFCURVE",
"633 742 CURVE SMOOTH",
"589 762.667 OFFCURVE",
"540.667 773 OFFCURVE",
"488 773 CURVE SMOOTH",
"431.333 773 OFFCURVE",
"380.333 761.667 OFFCURVE",
"335 739 CURVE SMOOTH",
"289.667 716.333 OFFCURVE",
"250.333 686.333 OFFCURVE",
"217 649 CURVE SMOOTH",
"200.333 630.333 OFFCURVE",
"185.833 610.333 OFFCURVE",
"173.5 589 CURVE SMOOTH",
"161.167 567.667 OFFCURVE",
"150.333 545.333 OFFCURVE",
"141 522 CURVE SMOOTH",
"123 475.333 OFFCURVE",
"114 427 OFFCURVE",
"114 377 CURVE SMOOTH",
"114 325.667 OFFCURVE",
"124 276.333 OFFCURVE",
"144 229 CURVE SMOOTH",
"153.333 205.667 OFFCURVE",
"164.667 183.667 OFFCURVE",
"178 163 CURVE SMOOTH",
"191.333 142.333 OFFCURVE",
"206.333 123.333 OFFCURVE",
"223 106 CURVE SMOOTH",
"239.667 88 OFFCURVE",
"257.833 72 OFFCURVE",
"277.5 58 CURVE SMOOTH",
"297.167 44 OFFCURVE",
"318.333 31.667 OFFCURVE",
"341 21 CURVE SMOOTH",
"363.667 10.333 OFFCURVE",
"387 2.333 OFFCURVE",
"411 -3 CURVE SMOOTH",
"435 -8.333 OFFCURVE",
"459.667 -11 OFFCURVE",
"485 -11 CURVE SMOOTH",
"541.667 -11 OFFCURVE",
"592.667 0.333 OFFCURVE",
"638 23 CURVE SMOOTH",
"683.333 45.667 OFFCURVE",
"722.667 75.667 OFFCURVE",
"756 113 CURVE SMOOTH",
"788.667 149.667 OFFCURVE",
"814 192 OFFCURVE",
"832 240 CURVE SMOOTH",
"849.333 288 OFFCURVE",
"858 336.333 OFFCURVE",
"858 385 CURVE",
"858 385 LINE"
);
},
{
closed = 1;
nodes = (
"754 307.333 OFFCURVE",
"748.333 264 OFFCURVE",
"737 224 CURVE SMOOTH",
"725 184.667 OFFCURVE",
"708 151 OFFCURVE",
"686 123 CURVE SMOOTH",
"664.667 95 OFFCURVE",
"638 72.667 OFFCURVE",
"606 56 CURVE SMOOTH",
"574 40 OFFCURVE",
"538 32 OFFCURVE",
"498 32 CURVE SMOOTH",
"450.667 32 OFFCURVE",
"409.667 44.333 OFFCURVE",
"375 69 CURVE SMOOTH",
"339 93.667 OFFCURVE",
"309.667 124.333 OFFCURVE",
"287 161 CURVE SMOOTH",
"275.667 179.667 OFFCURVE",
"265.5 199 OFFCURVE",
"256.5 219 CURVE SMOOTH",
"247.5 239 OFFCURVE",
"240.333 260 OFFCURVE",
"235 282 CURVE SMOOTH",
"223 326 OFFCURVE",
"217 368 OFFCURVE",
"217 408 CURVE SMOOTH",
"217 431.333 OFFCURVE",
"218.5 454 OFFCURVE",
"221.5 476 CURVE SMOOTH",
"224.5 498 OFFCURVE",
"229.333 518.667 OFFCURVE",
"236 538 CURVE SMOOTH",
"249.333 577.333 OFFCURVE",
"267.333 611.333 OFFCURVE",
"290 640 CURVE SMOOTH",
"313.333 668 OFFCURVE",
"340.333 690 OFFCURVE",
"371 706 CURVE SMOOTH",
"403 721.333 OFFCURVE",
"437.667 729 OFFCURVE",
"475 729 CURVE SMOOTH",
"523 729 OFFCURVE",
"564.333 717 OFFCURVE",
"599 693 CURVE SMOOTH",
"634.333 669 OFFCURVE",
"663.333 638.667 OFFCURVE",
"686 602 CURVE SMOOTH",
"708.667 565.333 OFFCURVE",
"725.667 524.667 OFFCURVE",
"737 480 CURVE SMOOTH",
"742.333 458 OFFCURVE",
"746.5 436.5 OFFCURVE",
"749.5 415.5 CURVE SMOOTH",
"752.5 394.5 OFFCURVE",
"754 374 OFFCURVE",
"754 354 CURVE",
"754 354 LINE"
);
}
);
width = 973;
}
);
note = uniFF2F;
unicode = FF2F;
},
{
glyphname = P.full;
layers = (
{
layerId = "59D766EC-4D78-4FC8-A1A0-9290DDB4C41B";
paths = (
{
closed = 1;
nodes = (
"396 143 LINE",
"396 321 LINE",
"454 321 LINE SMOOTH",
"463.333 321 OFFCURVE",
"472.333 321 OFFCURVE",
"481 321 CURVE SMOOTH",
"489.667 321 OFFCURVE",
"497.667 321.333 OFFCURVE",
"505 322 CURVE",
"534.333 322.667 OFFCURVE",
"562.667 328.667 OFFCURVE",
"590 340 CURVE SMOOTH",
"616 351.333 OFFCURVE",
"639 366.333 OFFCURVE",
"659 385 CURVE SMOOTH",
"679.667 404.333 OFFCURVE",
"695.667 427 OFFCURVE",
"707 453 CURVE SMOOTH",
"718.333 481 OFFCURVE",
"724 510.333 OFFCURVE",
"724 541 CURVE SMOOTH",
"724 573.667 OFFCURVE",
"718 603.333 OFFCURVE",
"706 630 CURVE SMOOTH",
"693.333 656.667 OFFCURVE",
"675.667 679.333 OFFCURVE",
"653 698 CURVE SMOOTH",
"631 716 OFFCURVE",
"603.667 730.667 OFFCURVE",
"571 742 CURVE SMOOTH",
"539 752 OFFCURVE",
"503.667 757 OFFCURVE",
"465 757 CURVE",
"458.333 756.333 OFFCURVE",
"450.333 756 OFFCURVE",
"441 756 CURVE SMOOTH",
"431.667 756 OFFCURVE",
"421.333 756 OFFCURVE",
"410 756 CURVE",
"398.667 755.333 OFFCURVE",
"387.167 755 OFFCURVE",
"375.5 755 CURVE SMOOTH",
"363.833 755 OFFCURVE",
"352 755 OFFCURVE",
"340 755 CURVE SMOOTH",
"269 755 LINE SMOOTH",
"257.667 755 OFFCURVE",
"247.167 755 OFFCURVE",
"237.5 755 CURVE SMOOTH",
"227.833 755 OFFCURVE",
"219.333 755.333 OFFCURVE",
"212 756 CURVE",
"212 720 LINE",
"222.667 720 OFFCURVE",
"232 719.833 OFFCURVE",
"240 719.5 CURVE SMOOTH",
"248 719.167 OFFCURVE",
"255.333 718.667 OFFCURVE",
"262 718 CURVE",
"273.333 716 OFFCURVE",
"282.667 712 OFFCURVE",
"290 706 CURVE",
"296 698.667 OFFCURVE",
"300 689.333 OFFCURVE",
"302 678 CURVE SMOOTH",
"304 666 OFFCURVE",
"305 650 OFFCURVE",
"305 630 CURVE SMOOTH",
"305 143 LINE SMOOTH",
"305 121 OFFCURVE",
"304 103.333 OFFCURVE",
"302 90 CURVE",
"298.667 76 OFFCURVE",
"294 66 OFFCURVE",
"288 60 CURVE SMOOTH",
"280.667 52.667 OFFCURVE",
"270.667 48 OFFCURVE",
"258 46 CURVE",
"246.667 43.333 OFFCURVE",
"230.333 42 OFFCURVE",
"209 42 CURVE",
"209 4 LINE",
"218.333 4.667 OFFCURVE",
"228.333 5 OFFCURVE",
"239 5 CURVE SMOOTH",
"249.667 5 OFFCURVE",
"261.333 5.333 OFFCURVE",
"274 6 CURVE",
"286.667 6 OFFCURVE",
"299.5 6 OFFCURVE",
"312.5 6 CURVE SMOOTH",
"325.5 6 OFFCURVE",
"338.667 6 OFFCURVE",
"352 6 CURVE SMOOTH",
"429 6 LINE SMOOTH",
"441.667 6 OFFCURVE",
"453.333 6 OFFCURVE",
"464 6 CURVE SMOOTH",
"474.667 6 OFFCURVE",
"484.333 5.667 OFFCURVE",
"493 5 CURVE",
"493 42 LINE",
"471.667 42 OFFCURVE",
"455.333 43.333 OFFCURVE",
"444 46 CURVE",
"432 48 OFFCURVE",
"422.333 52.667 OFFCURVE",
"415 60 CURVE",
"408.333 67.333 OFFCURVE",
"403.333 77.333 OFFCURVE",
"400 90 CURVE SMOOTH",
"397.333 101.333 OFFCURVE",
"396 119 OFFCURVE",
"396 143 CURVE"
);
},
{
closed = 1;
nodes = (
"396 372 LINE",
"396 710 LINE",
"402.667 711.333 OFFCURVE",
"411 712.333 OFFCURVE",
"421 713 CURVE",
"426.333 713.667 OFFCURVE",
"431.167 714 OFFCURVE",
"435.5 714 CURVE SMOOTH",
"439.833 714 OFFCURVE",
"443.667 714 OFFCURVE",
"447 714 CURVE SMOOTH",
"469 714 OFFCURVE",
"491.667 710.333 OFFCURVE",
"515 703 CURVE SMOOTH",
"536.333 696.333 OFFCURVE",
"555.333 685.333 OFFCURVE",
"572 670 CURVE SMOOTH",
"588.667 655.333 OFFCURVE",
"602 636.333 OFFCURVE",
"612 613 CURVE SMOOTH",
"622 590.333 OFFCURVE",
"627 564 OFFCURVE",
"627 534 CURVE SMOOTH",
"627 482.667 OFFCURVE",
"614.333 442.333 OFFCURVE",
"589 413 CURVE SMOOTH",
"563 383.667 OFFCURVE",
"529.667 368.667 OFFCURVE",
"489 368 CURVE",
"483 367.333 OFFCURVE",
"476.5 367.167 OFFCURVE",
"469.5 367.5 CURVE SMOOTH",
"462.5 367.833 OFFCURVE",
"454.667 368.333 OFFCURVE",
"446 369 CURVE SMOOTH",
"396 372 LINE"
);
}
);
width = 973;
}
);
note = uniFF30;
unicode = FF30;
},
